<svg xmlns="http://www.w3.org/2000/svg" xmlns:xlink="http://www.w3.org/1999/xlink" width="261" zoomAndPan="magnify" viewBox="0 0 195.75 195.749994" height="261" preserveAspectRatio="xMidYMid meet" version="1.0"><defs><g/><clipPath id="id1"><path d="M 0 0 L 195.5 0 L 195.5 195.5 L 0 195.5 Z M 0 0 " clip-rule="nonzero"/></clipPath><clipPath id="id2"><path d="M 56 80 L 134 80 L 134 128.089844 L 56 128.089844 Z M 56 80 " clip-rule="nonzero"/></clipPath><clipPath id="id3"><path d="M 70 48.589844 L 131 48.589844 L 131 124 L 70 124 Z M 70 48.589844 " clip-rule="nonzero"/></clipPath><clipPath id="id4"><path d="M 67 80 L 143.597656 80 L 143.597656 128.089844 L 67 128.089844 Z M 67 80 " clip-rule="nonzero"/></clipPath></defs><g clip-path="url(#id1)"><path fill="#545454" d="M 97.875 0 C 43.820312 0 0 43.820312 0 97.875 C 0 151.929688 43.820312 195.75 97.875 195.75 C 151.929688 195.75 195.75 151.929688 195.75 97.875 C 195.75 43.820312 151.929688 0 97.875 0 " fill-opacity="1" fill-rule="nonzero"/></g><g clip-path="url(#id2)"><path fill="#fdc93b" d="M 123.820312 86.242188 L 73.898438 86.242188 C 73.304688 86.242188 72.777344 85.878906 72.566406 85.328125 L 71.085938 81.449219 C 70.863281 80.871094 70.304688 80.488281 69.679688 80.488281 L 57.625 80.488281 C 56.660156 80.488281 55.945312 81.382812 56.160156 82.316406 L 66.921875 128.085938 L 133.65625 128.085938 Z M 123.820312 86.242188 " fill-opacity="1" fill-rule="nonzero"/></g><g clip-path="url(#id3)"><path fill="#ffffff" d="M 70.320312 48.59375 L 130.128906 48.59375 L 130.128906 123.683594 L 70.320312 123.683594 Z M 70.320312 48.59375 " fill-opacity="1" fill-rule="nonzero"/></g><path fill="#62c6ec" d="M 76.207031 55.824219 L 93.585938 55.824219 L 93.585938 74.671875 L 76.207031 74.671875 Z M 76.207031 55.824219 " fill-opacity="1" fill-rule="nonzero"/><path fill="#62c6ec" d="M 98.246094 55.824219 L 124.21875 55.824219 L 124.21875 57.78125 L 98.246094 57.78125 Z M 98.246094 55.824219 " fill-opacity="1" fill-rule="nonzero"/><path fill="#62c6ec" d="M 98.246094 61.335938 L 124.21875 61.335938 L 124.21875 63.292969 L 98.246094 63.292969 Z M 98.246094 61.335938 " fill-opacity="1" fill-rule="nonzero"/><path fill="#62c6ec" d="M 98.246094 66.847656 L 124.21875 66.847656 L 124.21875 68.804688 L 98.246094 68.804688 Z M 98.246094 66.847656 " fill-opacity="1" fill-rule="nonzero"/><path fill="#62c6ec" d="M 98.246094 72.359375 L 124.21875 72.359375 L 124.21875 74.316406 L 98.246094 74.316406 Z M 98.246094 72.359375 " fill-opacity="1" fill-rule="nonzero"/><path fill="#62c6ec" d="M 76.207031 77.871094 L 124.214844 77.871094 L 124.214844 79.828125 L 76.207031 79.828125 Z M 76.207031 77.871094 " fill-opacity="1" fill-rule="nonzero"/><path fill="#62c6ec" d="M 76.207031 83.382812 L 124.214844 83.382812 L 124.214844 85.339844 L 76.207031 85.339844 Z M 76.207031 83.382812 " fill-opacity="1" fill-rule="nonzero"/><path fill="#62c6ec" d="M 76.207031 88.894531 L 124.214844 88.894531 L 124.214844 90.851562 L 76.207031 90.851562 Z M 76.207031 88.894531 " fill-opacity="1" fill-rule="nonzero"/><path fill="#62c6ec" d="M 76.207031 94.40625 L 124.214844 94.40625 L 124.214844 96.363281 L 76.207031 96.363281 Z M 76.207031 94.40625 " fill-opacity="1" fill-rule="nonzero"/><path fill="#62c6ec" d="M 76.207031 99.917969 L 124.214844 99.917969 L 124.214844 101.875 L 76.207031 101.875 Z M 76.207031 99.917969 " fill-opacity="1" fill-rule="nonzero"/><path fill="#62c6ec" d="M 76.207031 105.433594 L 124.214844 105.433594 L 124.214844 107.390625 L 76.207031 107.390625 Z M 76.207031 105.433594 " fill-opacity="1" fill-rule="nonzero"/><path fill="#62c6ec" d="M 76.207031 110.945312 L 124.214844 110.945312 L 124.214844 112.902344 L 76.207031 112.902344 Z M 76.207031 110.945312 " fill-opacity="1" fill-rule="nonzero"/><path fill="#62c6ec" d="M 76.207031 116.457031 L 124.214844 116.457031 L 124.214844 118.414062 L 76.207031 118.414062 Z M 76.207031 116.457031 " fill-opacity="1" fill-rule="nonzero"/><g clip-path="url(#id4)"><path fill="#f7a739" d="M 95.894531 86.242188 L 96.933594 83.246094 C 97.402344 81.894531 96.390625 80.488281 94.957031 80.488281 L 80.171875 80.488281 C 79.199219 80.488281 78.355469 81.15625 78.132812 82.09375 L 67.324219 128.082031 L 134.058594 128.082031 L 143.074219 89.730469 C 143.492188 87.945312 142.128906 86.238281 140.28125 86.238281 L 95.894531 86.238281 Z M 95.894531 86.242188 " fill-opacity="1" fill-rule="nonzero"/></g><g fill="#ffffff" fill-opacity="1"><g transform="translate(77.031578, 155.485596)"><g><path d="M 8 0 C 7.46875 0 7.085938 -0.132812 6.859375 -0.40625 C 6.640625 -0.6875 6.503906 -1.035156 6.453125 -1.453125 L 6.359375 -1.453125 C 6.160156 -0.898438 5.832031 -0.484375 5.375 -0.203125 C 4.925781 0.0664062 4.390625 0.203125 3.765625 0.203125 C 2.816406 0.203125 2.078125 -0.0351562 1.546875 -0.515625 C 1.023438 -1.003906 0.765625 -1.664062 0.765625 -2.5 C 0.765625 -3.34375 1.070312 -3.988281 1.6875 -4.4375 C 2.3125 -4.894531 3.28125 -5.125 4.59375 -5.125 L 6.359375 -5.125 L 6.359375 -6.015625 C 6.359375 -6.648438 6.179688 -7.132812 5.828125 -7.46875 C 5.484375 -7.800781 4.953125 -7.96875 4.234375 -7.96875 C 3.691406 -7.96875 3.238281 -7.847656 2.875 -7.609375 C 2.507812 -7.367188 2.207031 -7.046875 1.96875 -6.640625 L 1.125 -7.421875 C 1.375 -7.910156 1.765625 -8.320312 2.296875 -8.65625 C 2.828125 -9 3.5 -9.171875 4.3125 -9.171875 C 5.394531 -9.171875 6.238281 -8.90625 6.84375 -8.375 C 7.445312 -7.84375 7.75 -7.101562 7.75 -6.15625 L 7.75 -1.21875 L 8.78125 -1.21875 L 8.78125 0 Z M 4 -0.96875 C 4.34375 -0.96875 4.660156 -1.007812 4.953125 -1.09375 C 5.242188 -1.175781 5.492188 -1.289062 5.703125 -1.4375 C 5.910156 -1.59375 6.070312 -1.769531 6.1875 -1.96875 C 6.300781 -2.164062 6.359375 -2.378906 6.359375 -2.609375 L 6.359375 -4.078125 L 4.515625 -4.078125 C 3.710938 -4.078125 3.128906 -3.960938 2.765625 -3.734375 C 2.398438 -3.503906 2.21875 -3.171875 2.21875 -2.734375 L 2.21875 -2.359375 C 2.21875 -1.921875 2.375 -1.578125 2.6875 -1.328125 C 3.007812 -1.085938 3.445312 -0.96875 4 -0.96875 Z M 4 -0.96875 "/></g></g></g><g fill="#ffffff" fill-opacity="1"><g transform="translate(86.310734, 155.485596)"><g><path d="M 1.484375 -12.859375 L 2.859375 -12.859375 L 2.859375 -7.5 L 2.9375 -7.5 C 3.164062 -8.070312 3.503906 -8.492188 3.953125 -8.765625 C 4.398438 -9.035156 4.9375 -9.171875 5.5625 -9.171875 C 6.113281 -9.171875 6.613281 -9.0625 7.0625 -8.84375 C 7.519531 -8.625 7.90625 -8.3125 8.21875 -7.90625 C 8.539062 -7.5 8.785156 -7.003906 8.953125 -6.421875 C 9.117188 -5.847656 9.203125 -5.203125 9.203125 -4.484375 C 9.203125 -3.765625 9.117188 -3.113281 8.953125 -2.53125 C 8.785156 -1.957031 8.539062 -1.46875 8.21875 -1.0625 C 7.90625 -0.65625 7.519531 -0.34375 7.0625 -0.125 C 6.613281 0.09375 6.113281 0.203125 5.5625 0.203125 C 4.34375 0.203125 3.46875 -0.347656 2.9375 -1.453125 L 2.859375 -1.453125 L 2.859375 0 L 1.484375 0 Z M 5.171875 -1.046875 C 5.960938 -1.046875 6.582031 -1.289062 7.03125 -1.78125 C 7.488281 -2.269531 7.71875 -2.914062 7.71875 -3.71875 L 7.71875 -5.25 C 7.71875 -6.050781 7.488281 -6.695312 7.03125 -7.1875 C 6.582031 -7.675781 5.960938 -7.921875 5.171875 -7.921875 C 4.859375 -7.921875 4.5625 -7.875 4.28125 -7.78125 C 4 -7.695312 3.753906 -7.578125 3.546875 -7.421875 C 3.335938 -7.273438 3.171875 -7.09375 3.046875 -6.875 C 2.921875 -6.664062 2.859375 -6.441406 2.859375 -6.203125 L 2.859375 -2.859375 C 2.859375 -2.578125 2.921875 -2.320312 3.046875 -2.09375 C 3.171875 -1.863281 3.335938 -1.671875 3.546875 -1.515625 C 3.753906 -1.359375 4 -1.238281 4.28125 -1.15625 C 4.5625 -1.082031 4.859375 -1.046875 5.171875 -1.046875 Z M 5.171875 -1.046875 "/></g></g></g><g fill="#ffffff" fill-opacity="1"><g transform="translate(96.389227, 155.485596)"><g><path d="M 4.859375 0.203125 C 4.265625 0.203125 3.71875 0.09375 3.21875 -0.125 C 2.71875 -0.34375 2.289062 -0.65625 1.9375 -1.0625 C 1.582031 -1.476562 1.304688 -1.972656 1.109375 -2.546875 C 0.910156 -3.117188 0.8125 -3.765625 0.8125 -4.484375 C 0.8125 -5.191406 0.910156 -5.832031 1.109375 -6.40625 C 1.304688 -6.988281 1.582031 -7.484375 1.9375 -7.890625 C 2.289062 -8.304688 2.71875 -8.625 3.21875 -8.84375 C 3.71875 -9.0625 4.265625 -9.171875 4.859375 -9.171875 C 5.460938 -9.171875 6.007812 -9.0625 6.5 -8.84375 C 7 -8.625 7.425781 -8.304688 7.78125 -7.890625 C 8.144531 -7.484375 8.421875 -6.988281 8.609375 -6.40625 C 8.804688 -5.832031 8.90625 -5.191406 8.90625 -4.484375 C 8.90625 -3.765625 8.804688 -3.117188 8.609375 -2.546875 C 8.421875 -1.972656 8.144531 -1.476562 7.78125 -1.0625 C 7.425781 -0.65625 7 -0.34375 6.5 -0.125 C 6.007812 0.09375 5.460938 0.203125 4.859375 0.203125 Z M 4.859375 -1.03125 C 5.617188 -1.03125 6.234375 -1.257812 6.703125 -1.71875 C 7.179688 -2.1875 7.421875 -2.894531 7.421875 -3.84375 L 7.421875 -5.125 C 7.421875 -6.070312 7.179688 -6.773438 6.703125 -7.234375 C 6.234375 -7.703125 5.617188 -7.9375 4.859375 -7.9375 C 4.109375 -7.9375 3.492188 -7.703125 3.015625 -7.234375 C 2.546875 -6.773438 2.3125 -6.070312 2.3125 -5.125 L 2.3125 -3.84375 C 2.3125 -2.894531 2.546875 -2.1875 3.015625 -1.71875 C 3.492188 -1.257812 4.109375 -1.03125 4.859375 -1.03125 Z M 4.859375 -1.03125 "/></g></g></g><g fill="#ffffff" fill-opacity="1"><g transform="translate(106.120183, 155.485596)"><g><path d="M 7 -1.453125 L 6.9375 -1.453125 C 6.84375 -1.242188 6.726562 -1.035156 6.59375 -0.828125 C 6.457031 -0.628906 6.289062 -0.453125 6.09375 -0.296875 C 5.894531 -0.140625 5.65625 -0.0195312 5.375 0.0625 C 5.101562 0.15625 4.78125 0.203125 4.40625 0.203125 C 3.476562 0.203125 2.742188 -0.09375 2.203125 -0.6875 C 1.660156 -1.28125 1.390625 -2.125 1.390625 -3.21875 L 1.390625 -8.96875 L 2.78125 -8.96875 L 2.78125 -3.453125 C 2.78125 -1.847656 3.460938 -1.046875 4.828125 -1.046875 C 5.109375 -1.046875 5.378906 -1.078125 5.640625 -1.140625 C 5.898438 -1.210938 6.128906 -1.316406 6.328125 -1.453125 C 6.535156 -1.597656 6.695312 -1.773438 6.8125 -1.984375 C 6.9375 -2.203125 7 -2.460938 7 -2.765625 L 7 -8.96875 L 8.390625 -8.96875 L 8.390625 0 L 7 0 Z M 7 -1.453125 "/></g></g></g><g fill="#ffffff" fill-opacity="1"><g transform="translate(115.99015, 155.485596)"><g><path d="M 3.453125 0 C 2.972656 0 2.609375 -0.132812 2.359375 -0.40625 C 2.109375 -0.675781 1.984375 -1.035156 1.984375 -1.484375 L 1.984375 -7.75 L 0.5 -7.75 L 0.5 -8.96875 L 1.34375 -8.96875 C 1.644531 -8.96875 1.847656 -9.023438 1.953125 -9.140625 C 2.066406 -9.265625 2.125 -9.476562 2.125 -9.78125 L 2.125 -11.453125 L 3.375 -11.453125 L 3.375 -8.96875 L 5.328125 -8.96875 L 5.328125 -7.75 L 3.375 -7.75 L 3.375 -1.21875 L 5.1875 -1.21875 L 5.1875 0 Z M 3.453125 0 "/></g></g></g></svg>