<svg xmlns="http://www.w3.org/2000/svg" xmlns:xlink="http://www.w3.org/1999/xlink" width="237" zoomAndPan="magnify" viewBox="0 0 177.75 177.749994" height="237" preserveAspectRatio="xMidYMid meet" version="1.0"><defs><g/><clipPath id="id1"><path d="M 0 0 L 177.5 0 L 177.5 177.5 L 0 177.5 Z M 0 0 " clip-rule="nonzero"/></clipPath><clipPath id="id2"><path d="M 45.5 69 L 123 69 L 123 117.59375 L 45.5 117.59375 Z M 45.5 69 " clip-rule="nonzero"/></clipPath><clipPath id="id3"><path d="M 59 38.09375 L 120 38.09375 L 120 114 L 59 114 Z M 59 38.09375 " clip-rule="nonzero"/></clipPath><clipPath id="id4"><path d="M 56 69 L 132.5 69 L 132.5 117.59375 L 56 117.59375 Z M 56 69 " clip-rule="nonzero"/></clipPath></defs><g clip-path="url(#id1)"><path fill="#737373" d="M 129.632812 0.0351562 L 48.117188 0.0351562 C 21.59375 0.0351562 0 21.59375 0 48.152344 L 0 129.597656 C 0 156.121094 21.59375 177.714844 48.117188 177.714844 L 129.632812 177.714844 C 156.15625 177.714844 177.75 156.121094 177.75 129.597656 L 177.75 48.152344 C 177.75 21.59375 156.15625 0.0351562 129.632812 0.0351562 Z M 129.632812 0.0351562 " fill-opacity="1" fill-rule="nonzero"/></g><g fill="#ffffff" fill-opacity="1"><g transform="translate(67.380803, 149.967045)"><g><path d="M 6.984375 0 C 6.523438 0 6.195312 -0.117188 6 -0.359375 C 5.800781 -0.609375 5.679688 -0.914062 5.640625 -1.28125 L 5.5625 -1.28125 C 5.382812 -0.789062 5.097656 -0.421875 4.703125 -0.171875 C 4.304688 0.0664062 3.835938 0.1875 3.296875 0.1875 C 2.460938 0.1875 1.816406 -0.0234375 1.359375 -0.453125 C 0.898438 -0.878906 0.671875 -1.457031 0.671875 -2.1875 C 0.671875 -2.925781 0.941406 -3.492188 1.484375 -3.890625 C 2.023438 -4.285156 2.867188 -4.484375 4.015625 -4.484375 L 5.5625 -4.484375 L 5.5625 -5.25 C 5.5625 -5.8125 5.40625 -6.238281 5.09375 -6.53125 C 4.789062 -6.820312 4.328125 -6.96875 3.703125 -6.96875 C 3.222656 -6.96875 2.820312 -6.859375 2.5 -6.640625 C 2.1875 -6.429688 1.925781 -6.148438 1.71875 -5.796875 L 0.984375 -6.484375 C 1.203125 -6.910156 1.539062 -7.269531 2 -7.5625 C 2.46875 -7.863281 3.054688 -8.015625 3.765625 -8.015625 C 4.710938 -8.015625 5.453125 -7.78125 5.984375 -7.3125 C 6.515625 -6.851562 6.78125 -6.207031 6.78125 -5.375 L 6.78125 -1.0625 L 7.671875 -1.0625 L 7.671875 0 Z M 3.5 -0.84375 C 3.800781 -0.84375 4.078125 -0.878906 4.328125 -0.953125 C 4.578125 -1.023438 4.789062 -1.125 4.96875 -1.25 C 5.15625 -1.382812 5.300781 -1.535156 5.40625 -1.703125 C 5.507812 -1.878906 5.5625 -2.070312 5.5625 -2.28125 L 5.5625 -3.5625 L 3.953125 -3.5625 C 3.253906 -3.5625 2.742188 -3.460938 2.421875 -3.265625 C 2.097656 -3.066406 1.9375 -2.773438 1.9375 -2.390625 L 1.9375 -2.0625 C 1.9375 -1.675781 2.078125 -1.375 2.359375 -1.15625 C 2.640625 -0.945312 3.019531 -0.84375 3.5 -0.84375 Z M 3.5 -0.84375 "/></g></g></g><g fill="#ffffff" fill-opacity="1"><g transform="translate(75.493657, 149.967045)"><g><path d="M 1.296875 -11.234375 L 2.5 -11.234375 L 2.5 -6.5625 L 2.5625 -6.5625 C 2.769531 -7.0625 3.066406 -7.425781 3.453125 -7.65625 C 3.847656 -7.894531 4.316406 -8.015625 4.859375 -8.015625 C 5.347656 -8.015625 5.789062 -7.914062 6.1875 -7.71875 C 6.582031 -7.53125 6.914062 -7.257812 7.1875 -6.90625 C 7.46875 -6.550781 7.679688 -6.117188 7.828125 -5.609375 C 7.972656 -5.109375 8.046875 -4.546875 8.046875 -3.921875 C 8.046875 -3.296875 7.972656 -2.726562 7.828125 -2.21875 C 7.679688 -1.707031 7.46875 -1.273438 7.1875 -0.921875 C 6.914062 -0.566406 6.582031 -0.289062 6.1875 -0.09375 C 5.789062 0.09375 5.347656 0.1875 4.859375 0.1875 C 3.796875 0.1875 3.03125 -0.300781 2.5625 -1.28125 L 2.5 -1.28125 L 2.5 0 L 1.296875 0 Z M 4.53125 -0.90625 C 5.21875 -0.90625 5.757812 -1.117188 6.15625 -1.546875 C 6.550781 -1.984375 6.75 -2.550781 6.75 -3.25 L 6.75 -4.59375 C 6.75 -5.289062 6.550781 -5.851562 6.15625 -6.28125 C 5.757812 -6.707031 5.21875 -6.921875 4.53125 -6.921875 C 4.25 -6.921875 3.984375 -6.882812 3.734375 -6.8125 C 3.492188 -6.738281 3.28125 -6.632812 3.09375 -6.5 C 2.914062 -6.363281 2.769531 -6.203125 2.65625 -6.015625 C 2.550781 -5.828125 2.5 -5.628906 2.5 -5.421875 L 2.5 -2.5 C 2.5 -2.25 2.550781 -2.023438 2.65625 -1.828125 C 2.769531 -1.628906 2.914062 -1.460938 3.09375 -1.328125 C 3.28125 -1.191406 3.492188 -1.085938 3.734375 -1.015625 C 3.984375 -0.941406 4.25 -0.90625 4.53125 -0.90625 Z M 4.53125 -0.90625 "/></g></g></g><g fill="#ffffff" fill-opacity="1"><g transform="translate(84.305371, 149.967045)"><g><path d="M 4.25 0.1875 C 3.726562 0.1875 3.25 0.09375 2.8125 -0.09375 C 2.375 -0.289062 2 -0.566406 1.6875 -0.921875 C 1.382812 -1.285156 1.144531 -1.71875 0.96875 -2.21875 C 0.800781 -2.726562 0.71875 -3.296875 0.71875 -3.921875 C 0.71875 -4.535156 0.800781 -5.09375 0.96875 -5.59375 C 1.144531 -6.101562 1.382812 -6.535156 1.6875 -6.890625 C 2 -7.253906 2.375 -7.53125 2.8125 -7.71875 C 3.25 -7.914062 3.726562 -8.015625 4.25 -8.015625 C 4.78125 -8.015625 5.257812 -7.914062 5.6875 -7.71875 C 6.113281 -7.53125 6.484375 -7.253906 6.796875 -6.890625 C 7.117188 -6.535156 7.363281 -6.101562 7.53125 -5.59375 C 7.707031 -5.09375 7.796875 -4.535156 7.796875 -3.921875 C 7.796875 -3.296875 7.707031 -2.726562 7.53125 -2.21875 C 7.363281 -1.71875 7.117188 -1.285156 6.796875 -0.921875 C 6.484375 -0.566406 6.113281 -0.289062 5.6875 -0.09375 C 5.257812 0.09375 4.78125 0.1875 4.25 0.1875 Z M 4.25 -0.890625 C 4.90625 -0.890625 5.441406 -1.09375 5.859375 -1.5 C 6.273438 -1.90625 6.484375 -2.523438 6.484375 -3.359375 L 6.484375 -4.484375 C 6.484375 -5.304688 6.273438 -5.921875 5.859375 -6.328125 C 5.441406 -6.734375 4.90625 -6.9375 4.25 -6.9375 C 3.59375 -6.9375 3.054688 -6.734375 2.640625 -6.328125 C 2.222656 -5.921875 2.015625 -5.304688 2.015625 -4.484375 L 2.015625 -3.359375 C 2.015625 -2.523438 2.222656 -1.90625 2.640625 -1.5 C 3.054688 -1.09375 3.59375 -0.890625 4.25 -0.890625 Z M 4.25 -0.890625 "/></g></g></g><g fill="#ffffff" fill-opacity="1"><g transform="translate(92.813229, 149.967045)"><g><path d="M 6.125 -1.28125 L 6.0625 -1.28125 C 5.976562 -1.09375 5.878906 -0.910156 5.765625 -0.734375 C 5.648438 -0.554688 5.503906 -0.398438 5.328125 -0.265625 C 5.160156 -0.128906 4.953125 -0.0195312 4.703125 0.0625 C 4.460938 0.144531 4.179688 0.1875 3.859375 0.1875 C 3.046875 0.1875 2.398438 -0.0703125 1.921875 -0.59375 C 1.453125 -1.113281 1.21875 -1.851562 1.21875 -2.8125 L 1.21875 -7.84375 L 2.4375 -7.84375 L 2.4375 -3.015625 C 2.4375 -1.609375 3.03125 -0.90625 4.21875 -0.90625 C 4.46875 -0.90625 4.703125 -0.9375 4.921875 -1 C 5.148438 -1.0625 5.351562 -1.148438 5.53125 -1.265625 C 5.707031 -1.390625 5.847656 -1.546875 5.953125 -1.734375 C 6.066406 -1.921875 6.125 -2.148438 6.125 -2.421875 L 6.125 -7.84375 L 7.328125 -7.84375 L 7.328125 0 L 6.125 0 Z M 6.125 -1.28125 "/></g></g></g><g fill="#ffffff" fill-opacity="1"><g transform="translate(101.442634, 149.967045)"><g><path d="M 3.015625 0 C 2.597656 0 2.28125 -0.117188 2.0625 -0.359375 C 1.84375 -0.597656 1.734375 -0.910156 1.734375 -1.296875 L 1.734375 -6.78125 L 0.4375 -6.78125 L 0.4375 -7.84375 L 1.171875 -7.84375 C 1.429688 -7.84375 1.609375 -7.894531 1.703125 -8 C 1.804688 -8.101562 1.859375 -8.285156 1.859375 -8.546875 L 1.859375 -10.015625 L 2.953125 -10.015625 L 2.953125 -7.84375 L 4.65625 -7.84375 L 4.65625 -6.78125 L 2.953125 -6.78125 L 2.953125 -1.0625 L 4.546875 -1.0625 L 4.546875 0 Z M 3.015625 0 "/></g></g></g><g fill="#ffffff" fill-opacity="1"><g transform="translate(106.772183, 149.967045)"><g/></g></g><g clip-path="url(#id2)"><path fill="#fdc93b" d="M 112.890625 75.742188 L 63.398438 75.742188 C 62.808594 75.742188 62.285156 75.382812 62.074219 74.828125 L 60.609375 70.953125 C 60.386719 70.375 59.832031 69.992188 59.214844 69.992188 L 47.261719 69.992188 C 46.304688 69.992188 45.597656 70.886719 45.8125 71.820312 L 56.480469 117.589844 L 122.640625 117.589844 Z M 112.890625 75.742188 " fill-opacity="1" fill-rule="nonzero"/></g><g clip-path="url(#id3)"><path fill="#ffffff" d="M 59.851562 38.097656 L 119.144531 38.097656 L 119.144531 113.183594 L 59.851562 113.183594 Z M 59.851562 38.097656 " fill-opacity="1" fill-rule="nonzero"/></g><path fill="#38b6ff" d="M 65.6875 45.324219 L 82.914062 45.324219 L 82.914062 64.175781 L 65.6875 64.175781 Z M 65.6875 45.324219 " fill-opacity="1" fill-rule="nonzero"/><path fill="#38b6ff" d="M 87.535156 45.324219 L 113.289062 45.324219 L 113.289062 47.28125 L 87.535156 47.28125 Z M 87.535156 45.324219 " fill-opacity="1" fill-rule="nonzero"/><path fill="#38b6ff" d="M 87.535156 50.835938 L 113.289062 50.835938 L 113.289062 52.792969 L 87.535156 52.792969 Z M 87.535156 50.835938 " fill-opacity="1" fill-rule="nonzero"/><path fill="#38b6ff" d="M 87.535156 56.351562 L 113.289062 56.351562 L 113.289062 58.308594 L 87.535156 58.308594 Z M 87.535156 56.351562 " fill-opacity="1" fill-rule="nonzero"/><path fill="#38b6ff" d="M 87.535156 61.863281 L 113.289062 61.863281 L 113.289062 63.820312 L 87.535156 63.820312 Z M 87.535156 61.863281 " fill-opacity="1" fill-rule="nonzero"/><path fill="#38b6ff" d="M 65.6875 67.375 L 113.285156 67.375 L 113.285156 69.332031 L 65.6875 69.332031 Z M 65.6875 67.375 " fill-opacity="1" fill-rule="nonzero"/><path fill="#38b6ff" d="M 65.6875 72.886719 L 113.285156 72.886719 L 113.285156 74.84375 L 65.6875 74.84375 Z M 65.6875 72.886719 " fill-opacity="1" fill-rule="nonzero"/><path fill="#38b6ff" d="M 65.6875 78.398438 L 113.285156 78.398438 L 113.285156 80.355469 L 65.6875 80.355469 Z M 65.6875 78.398438 " fill-opacity="1" fill-rule="nonzero"/><path fill="#38b6ff" d="M 65.6875 83.910156 L 113.285156 83.910156 L 113.285156 85.867188 L 65.6875 85.867188 Z M 65.6875 83.910156 " fill-opacity="1" fill-rule="nonzero"/><path fill="#38b6ff" d="M 65.6875 89.421875 L 113.285156 89.421875 L 113.285156 91.378906 L 65.6875 91.378906 Z M 65.6875 89.421875 " fill-opacity="1" fill-rule="nonzero"/><path fill="#38b6ff" d="M 65.6875 94.933594 L 113.285156 94.933594 L 113.285156 96.890625 L 65.6875 96.890625 Z M 65.6875 94.933594 " fill-opacity="1" fill-rule="nonzero"/><path fill="#38b6ff" d="M 65.6875 100.445312 L 113.285156 100.445312 L 113.285156 102.402344 L 65.6875 102.402344 Z M 65.6875 100.445312 " fill-opacity="1" fill-rule="nonzero"/><path fill="#38b6ff" d="M 65.6875 105.960938 L 113.285156 105.960938 L 113.285156 107.917969 L 65.6875 107.917969 Z M 65.6875 105.960938 " fill-opacity="1" fill-rule="nonzero"/><g clip-path="url(#id4)"><path fill="#f7a739" d="M 85.203125 75.742188 L 86.234375 72.746094 C 86.699219 71.398438 85.699219 69.992188 84.273438 69.992188 L 69.617188 69.992188 C 68.652344 69.992188 67.816406 70.660156 67.59375 71.597656 L 56.878906 117.585938 L 123.042969 117.585938 L 131.980469 79.234375 C 132.394531 77.445312 131.042969 75.742188 129.210938 75.742188 Z M 85.203125 75.742188 " fill-opacity="1" fill-rule="nonzero"/></g></svg>