<svg xmlns="http://www.w3.org/2000/svg" xmlns:xlink="http://www.w3.org/1999/xlink" width="261" zoomAndPan="magnify" viewBox="0 0 195.75 195.749994" height="261" preserveAspectRatio="xMidYMid meet" version="1.0"><defs><g/><clipPath id="id1"><path d="M 0 0 L 195.5 0 L 195.5 195.5 L 0 195.5 Z M 0 0 " clip-rule="nonzero"/></clipPath><clipPath id="id2"><path d="M 99 64 L 149.964844 64 L 149.964844 121 L 99 121 Z M 99 64 " clip-rule="nonzero"/></clipPath><clipPath id="id3"><path d="M 49.464844 50.066406 L 120 50.066406 L 120 107 L 49.464844 107 Z M 49.464844 50.066406 " clip-rule="nonzero"/></clipPath></defs><g clip-path="url(#id1)"><path fill="#545454" d="M 97.875 0 C 43.820312 0 0 43.820312 0 97.875 C 0 151.929688 43.820312 195.75 97.875 195.75 C 151.929688 195.75 195.75 151.929688 195.75 97.875 C 195.75 43.820312 151.929688 0 97.875 0 " fill-opacity="1" fill-rule="nonzero"/></g><g clip-path="url(#id2)"><path fill="#7ed957" d="M 99.628906 89.164062 C 99.628906 75.382812 110.886719 64.210938 124.78125 64.210938 C 138.671875 64.210938 149.925781 75.382812 149.925781 89.164062 C 149.925781 100.785156 141.921875 110.546875 131.085938 113.324219 C 132.550781 115.964844 134.65625 118.875 137.355469 120.332031 C 137.355469 120.332031 124.203125 121.324219 117.242188 112.976562 C 107.035156 109.796875 99.628906 100.339844 99.628906 89.164062 " fill-opacity="1" fill-rule="nonzero"/></g><path fill="#ffffff" d="M 137.304688 82.402344 L 110.785156 82.402344 C 109.820312 82.402344 109.035156 81.625 109.035156 80.667969 C 109.035156 79.710938 109.820312 78.9375 110.785156 78.9375 L 137.304688 78.9375 C 138.269531 78.9375 139.050781 79.710938 139.050781 80.667969 C 139.050781 81.625 138.269531 82.402344 137.304688 82.402344 " fill-opacity="1" fill-rule="nonzero"/><path fill="#ffffff" d="M 137.304688 90.6875 L 110.785156 90.6875 C 109.820312 90.6875 109.035156 89.910156 109.035156 88.953125 C 109.035156 87.996094 109.820312 87.21875 110.785156 87.21875 L 137.304688 87.21875 C 138.269531 87.21875 139.050781 87.996094 139.050781 88.953125 C 139.050781 89.910156 138.269531 90.6875 137.304688 90.6875 " fill-opacity="1" fill-rule="nonzero"/><path fill="#ffffff" d="M 137.304688 98.96875 L 110.785156 98.96875 C 109.820312 98.96875 109.035156 98.191406 109.035156 97.234375 C 109.035156 96.28125 109.820312 95.503906 110.785156 95.503906 L 137.304688 95.503906 C 138.269531 95.503906 139.050781 96.28125 139.050781 97.234375 C 139.050781 98.191406 138.269531 98.96875 137.304688 98.96875 " fill-opacity="1" fill-rule="nonzero"/><g clip-path="url(#id3)"><path fill="#38b6ff" d="M 99.332031 55.832031 C 98.210938 55.832031 97.113281 55.921875 96.042969 56.097656 C 93.179688 52.441406 88.703125 50.085938 83.675781 50.085938 C 77.058594 50.085938 71.398438 54.15625 69.105469 59.910156 C 67.84375 59.589844 66.519531 59.414062 65.160156 59.414062 C 56.507812 59.414062 49.5 66.367188 49.5 74.945312 C 49.5 83.527344 56.507812 90.484375 65.160156 90.484375 C 65.5 90.484375 65.835938 90.46875 66.171875 90.449219 C 69.121094 94.636719 74.011719 97.375 79.550781 97.375 C 81.464844 97.375 83.300781 97.046875 85.007812 96.445312 C 84.894531 98.949219 84.292969 104.628906 81.171875 106.621094 C 81.171875 106.621094 93.1875 105.980469 97.628906 96.011719 C 98.191406 96.058594 98.757812 96.085938 99.332031 96.085938 C 110.535156 96.085938 119.617188 87.074219 119.617188 75.957031 C 119.617188 64.839844 110.535156 55.832031 99.332031 55.832031 " fill-opacity="1" fill-rule="nonzero"/></g><path fill="#ffffff" d="M 75.195312 75.777344 C 75.195312 77.796875 73.542969 79.4375 71.503906 79.4375 C 69.46875 79.4375 67.816406 77.796875 67.816406 75.777344 C 67.816406 73.753906 69.46875 72.113281 71.503906 72.113281 C 73.542969 72.113281 75.195312 73.753906 75.195312 75.777344 " fill-opacity="1" fill-rule="nonzero"/><path fill="#ffffff" d="M 88.246094 75.777344 C 88.246094 77.796875 86.59375 79.4375 84.558594 79.4375 C 82.523438 79.4375 80.871094 77.796875 80.871094 75.777344 C 80.871094 73.753906 82.523438 72.113281 84.558594 72.113281 C 86.59375 72.113281 88.246094 73.753906 88.246094 75.777344 " fill-opacity="1" fill-rule="nonzero"/><path fill="#ffffff" d="M 101.300781 75.777344 C 101.300781 77.796875 99.648438 79.4375 97.613281 79.4375 C 95.574219 79.4375 93.921875 77.796875 93.921875 75.777344 C 93.921875 73.753906 95.574219 72.113281 97.613281 72.113281 C 99.648438 72.113281 101.300781 73.753906 101.300781 75.777344 " fill-opacity="1" fill-rule="nonzero"/><g fill="#ffffff" fill-opacity="1"><g transform="translate(70.27393, 152.506187)"><g><path d="M 4.8125 0.203125 C 4.1875 0.203125 3.625 0.09375 3.125 -0.125 C 2.625 -0.34375 2.203125 -0.65625 1.859375 -1.0625 C 1.523438 -1.46875 1.265625 -1.957031 1.078125 -2.53125 C 0.898438 -3.113281 0.8125 -3.765625 0.8125 -4.484375 C 0.8125 -5.203125 0.898438 -5.847656 1.078125 -6.421875 C 1.265625 -7.003906 1.523438 -7.5 1.859375 -7.90625 C 2.203125 -8.3125 2.625 -8.625 3.125 -8.84375 C 3.625 -9.0625 4.1875 -9.171875 4.8125 -9.171875 C 5.707031 -9.171875 6.421875 -8.976562 6.953125 -8.59375 C 7.492188 -8.207031 7.898438 -7.703125 8.171875 -7.078125 L 7 -6.484375 C 6.84375 -6.941406 6.578125 -7.296875 6.203125 -7.546875 C 5.828125 -7.804688 5.363281 -7.9375 4.8125 -7.9375 C 4.394531 -7.9375 4.03125 -7.867188 3.71875 -7.734375 C 3.40625 -7.609375 3.144531 -7.425781 2.9375 -7.1875 C 2.726562 -6.945312 2.570312 -6.660156 2.46875 -6.328125 C 2.363281 -6.003906 2.3125 -5.644531 2.3125 -5.25 L 2.3125 -3.71875 C 2.3125 -2.925781 2.519531 -2.28125 2.9375 -1.78125 C 3.363281 -1.28125 3.988281 -1.03125 4.8125 -1.03125 C 5.9375 -1.03125 6.75 -1.550781 7.25 -2.59375 L 8.25 -1.90625 C 7.957031 -1.257812 7.523438 -0.742188 6.953125 -0.359375 C 6.378906 0.015625 5.664062 0.203125 4.8125 0.203125 Z M 4.8125 0.203125 "/></g></g></g><g fill="#ffffff" fill-opacity="1"><g transform="translate(79.014407, 152.506187)"><g><path d="M 4.859375 0.203125 C 4.265625 0.203125 3.71875 0.09375 3.21875 -0.125 C 2.71875 -0.34375 2.289062 -0.65625 1.9375 -1.0625 C 1.582031 -1.476562 1.304688 -1.972656 1.109375 -2.546875 C 0.910156 -3.117188 0.8125 -3.765625 0.8125 -4.484375 C 0.8125 -5.191406 0.910156 -5.832031 1.109375 -6.40625 C 1.304688 -6.988281 1.582031 -7.484375 1.9375 -7.890625 C 2.289062 -8.304688 2.71875 -8.625 3.21875 -8.84375 C 3.71875 -9.0625 4.265625 -9.171875 4.859375 -9.171875 C 5.460938 -9.171875 6.007812 -9.0625 6.5 -8.84375 C 7 -8.625 7.425781 -8.304688 7.78125 -7.890625 C 8.144531 -7.484375 8.421875 -6.988281 8.609375 -6.40625 C 8.804688 -5.832031 8.90625 -5.191406 8.90625 -4.484375 C 8.90625 -3.765625 8.804688 -3.117188 8.609375 -2.546875 C 8.421875 -1.972656 8.144531 -1.476562 7.78125 -1.0625 C 7.425781 -0.65625 7 -0.34375 6.5 -0.125 C 6.007812 0.09375 5.460938 0.203125 4.859375 0.203125 Z M 4.859375 -1.03125 C 5.617188 -1.03125 6.234375 -1.257812 6.703125 -1.71875 C 7.179688 -2.1875 7.421875 -2.894531 7.421875 -3.84375 L 7.421875 -5.125 C 7.421875 -6.070312 7.179688 -6.773438 6.703125 -7.234375 C 6.234375 -7.703125 5.617188 -7.9375 4.859375 -7.9375 C 4.109375 -7.9375 3.492188 -7.703125 3.015625 -7.234375 C 2.546875 -6.773438 2.3125 -6.070312 2.3125 -5.125 L 2.3125 -3.84375 C 2.3125 -2.894531 2.546875 -2.1875 3.015625 -1.71875 C 3.492188 -1.257812 4.109375 -1.03125 4.859375 -1.03125 Z M 4.859375 -1.03125 "/></g></g></g><g fill="#ffffff" fill-opacity="1"><g transform="translate(88.745362, 152.506187)"><g><path d="M 1.484375 0 L 1.484375 -8.96875 L 2.859375 -8.96875 L 2.859375 -7.5 L 2.9375 -7.5 C 3.15625 -8.007812 3.460938 -8.414062 3.859375 -8.71875 C 4.265625 -9.019531 4.800781 -9.171875 5.46875 -9.171875 C 6.394531 -9.171875 7.128906 -8.875 7.671875 -8.28125 C 8.210938 -7.6875 8.484375 -6.84375 8.484375 -5.75 L 8.484375 0 L 7.09375 0 L 7.09375 -5.515625 C 7.09375 -7.117188 6.414062 -7.921875 5.0625 -7.921875 C 4.78125 -7.921875 4.507812 -7.882812 4.25 -7.8125 C 3.988281 -7.75 3.753906 -7.644531 3.546875 -7.5 C 3.335938 -7.363281 3.171875 -7.1875 3.046875 -6.96875 C 2.921875 -6.757812 2.859375 -6.507812 2.859375 -6.21875 L 2.859375 0 Z M 1.484375 0 "/></g></g></g><g fill="#ffffff" fill-opacity="1"><g transform="translate(98.61533, 152.506187)"><g><path d="M 3.453125 0 C 2.972656 0 2.609375 -0.132812 2.359375 -0.40625 C 2.109375 -0.675781 1.984375 -1.035156 1.984375 -1.484375 L 1.984375 -7.75 L 0.5 -7.75 L 0.5 -8.96875 L 1.34375 -8.96875 C 1.644531 -8.96875 1.847656 -9.023438 1.953125 -9.140625 C 2.066406 -9.265625 2.125 -9.476562 2.125 -9.78125 L 2.125 -11.453125 L 3.375 -11.453125 L 3.375 -8.96875 L 5.328125 -8.96875 L 5.328125 -7.75 L 3.375 -7.75 L 3.375 -1.21875 L 5.1875 -1.21875 L 5.1875 0 Z M 3.453125 0 "/></g></g></g><g fill="#ffffff" fill-opacity="1"><g transform="translate(104.714554, 152.506187)"><g><path d="M 8 0 C 7.46875 0 7.085938 -0.132812 6.859375 -0.40625 C 6.640625 -0.6875 6.503906 -1.035156 6.453125 -1.453125 L 6.359375 -1.453125 C 6.160156 -0.898438 5.832031 -0.484375 5.375 -0.203125 C 4.925781 0.0664062 4.390625 0.203125 3.765625 0.203125 C 2.816406 0.203125 2.078125 -0.0351562 1.546875 -0.515625 C 1.023438 -1.003906 0.765625 -1.664062 0.765625 -2.5 C 0.765625 -3.34375 1.070312 -3.988281 1.6875 -4.4375 C 2.3125 -4.894531 3.28125 -5.125 4.59375 -5.125 L 6.359375 -5.125 L 6.359375 -6.015625 C 6.359375 -6.648438 6.179688 -7.132812 5.828125 -7.46875 C 5.484375 -7.800781 4.953125 -7.96875 4.234375 -7.96875 C 3.691406 -7.96875 3.238281 -7.847656 2.875 -7.609375 C 2.507812 -7.367188 2.207031 -7.046875 1.96875 -6.640625 L 1.125 -7.421875 C 1.375 -7.910156 1.765625 -8.320312 2.296875 -8.65625 C 2.828125 -9 3.5 -9.171875 4.3125 -9.171875 C 5.394531 -9.171875 6.238281 -8.90625 6.84375 -8.375 C 7.445312 -7.84375 7.75 -7.101562 7.75 -6.15625 L 7.75 -1.21875 L 8.78125 -1.21875 L 8.78125 0 Z M 4 -0.96875 C 4.34375 -0.96875 4.660156 -1.007812 4.953125 -1.09375 C 5.242188 -1.175781 5.492188 -1.289062 5.703125 -1.4375 C 5.910156 -1.59375 6.070312 -1.769531 6.1875 -1.96875 C 6.300781 -2.164062 6.359375 -2.378906 6.359375 -2.609375 L 6.359375 -4.078125 L 4.515625 -4.078125 C 3.710938 -4.078125 3.128906 -3.960938 2.765625 -3.734375 C 2.398438 -3.503906 2.21875 -3.171875 2.21875 -2.734375 L 2.21875 -2.359375 C 2.21875 -1.921875 2.375 -1.578125 2.6875 -1.328125 C 3.007812 -1.085938 3.445312 -0.96875 4 -0.96875 Z M 4 -0.96875 "/></g></g></g><g fill="#ffffff" fill-opacity="1"><g transform="translate(113.99371, 152.506187)"><g><path d="M 4.8125 0.203125 C 4.1875 0.203125 3.625 0.09375 3.125 -0.125 C 2.625 -0.34375 2.203125 -0.65625 1.859375 -1.0625 C 1.523438 -1.46875 1.265625 -1.957031 1.078125 -2.53125 C 0.898438 -3.113281 0.8125 -3.765625 0.8125 -4.484375 C 0.8125 -5.203125 0.898438 -5.847656 1.078125 -6.421875 C 1.265625 -7.003906 1.523438 -7.5 1.859375 -7.90625 C 2.203125 -8.3125 2.625 -8.625 3.125 -8.84375 C 3.625 -9.0625 4.1875 -9.171875 4.8125 -9.171875 C 5.707031 -9.171875 6.421875 -8.976562 6.953125 -8.59375 C 7.492188 -8.207031 7.898438 -7.703125 8.171875 -7.078125 L 7 -6.484375 C 6.84375 -6.941406 6.578125 -7.296875 6.203125 -7.546875 C 5.828125 -7.804688 5.363281 -7.9375 4.8125 -7.9375 C 4.394531 -7.9375 4.03125 -7.867188 3.71875 -7.734375 C 3.40625 -7.609375 3.144531 -7.425781 2.9375 -7.1875 C 2.726562 -6.945312 2.570312 -6.660156 2.46875 -6.328125 C 2.363281 -6.003906 2.3125 -5.644531 2.3125 -5.25 L 2.3125 -3.71875 C 2.3125 -2.925781 2.519531 -2.28125 2.9375 -1.78125 C 3.363281 -1.28125 3.988281 -1.03125 4.8125 -1.03125 C 5.9375 -1.03125 6.75 -1.550781 7.25 -2.59375 L 8.25 -1.90625 C 7.957031 -1.257812 7.523438 -0.742188 6.953125 -0.359375 C 6.378906 0.015625 5.664062 0.203125 4.8125 0.203125 Z M 4.8125 0.203125 "/></g></g></g><g fill="#ffffff" fill-opacity="1"><g transform="translate(122.734187, 152.506187)"><g><path d="M 3.453125 0 C 2.972656 0 2.609375 -0.132812 2.359375 -0.40625 C 2.109375 -0.675781 1.984375 -1.035156 1.984375 -1.484375 L 1.984375 -7.75 L 0.5 -7.75 L 0.5 -8.96875 L 1.34375 -8.96875 C 1.644531 -8.96875 1.847656 -9.023438 1.953125 -9.140625 C 2.066406 -9.265625 2.125 -9.476562 2.125 -9.78125 L 2.125 -11.453125 L 3.375 -11.453125 L 3.375 -8.96875 L 5.328125 -8.96875 L 5.328125 -7.75 L 3.375 -7.75 L 3.375 -1.21875 L 5.1875 -1.21875 L 5.1875 0 Z M 3.453125 0 "/></g></g></g></svg>