<svg xmlns="http://www.w3.org/2000/svg" xmlns:xlink="http://www.w3.org/1999/xlink" width="237" zoomAndPan="magnify" viewBox="0 0 177.75 177.749994" height="237" preserveAspectRatio="xMidYMid meet" version="1.0"><defs><g/><clipPath id="id1"><path d="M 0 0 L 177.5 0 L 177.5 177.5 L 0 177.5 Z M 0 0 " clip-rule="nonzero"/></clipPath><clipPath id="id2"><path d="M 35.539062 41.105469 L 110 41.105469 L 110 102 L 35.539062 102 Z M 35.539062 41.105469 " clip-rule="nonzero"/></clipPath></defs><g clip-path="url(#id1)"><path fill="#737373" d="M 129.632812 0.0351562 L 48.117188 0.0351562 C 21.59375 0.0351562 0 21.59375 0 48.152344 L 0 129.597656 C 0 156.121094 21.59375 177.714844 48.117188 177.714844 L 129.632812 177.714844 C 156.15625 177.714844 177.75 156.121094 177.75 129.597656 L 177.75 48.152344 C 177.75 21.59375 156.15625 0.0351562 129.632812 0.0351562 Z M 129.632812 0.0351562 " fill-opacity="1" fill-rule="nonzero"/></g><path fill="#7ed957" d="M 88.699219 83.078125 C 88.699219 68.28125 100.628906 56.289062 115.351562 56.289062 C 130.070312 56.289062 142 68.28125 142 83.078125 C 142 95.558594 133.515625 106.039062 122.035156 109.019531 C 123.585938 111.855469 125.816406 114.980469 128.675781 116.546875 C 128.675781 116.546875 114.738281 117.613281 107.363281 108.648438 C 96.546875 105.234375 88.699219 95.078125 88.699219 83.078125 " fill-opacity="1" fill-rule="nonzero"/><path fill="#ffffff" d="M 128.621094 75.820312 L 100.519531 75.820312 C 99.496094 75.820312 98.664062 74.988281 98.664062 73.960938 C 98.664062 72.929688 99.496094 72.097656 100.519531 72.097656 L 128.621094 72.097656 C 129.644531 72.097656 130.472656 72.929688 130.472656 73.960938 C 130.472656 74.988281 129.644531 75.820312 128.621094 75.820312 " fill-opacity="1" fill-rule="nonzero"/><path fill="#ffffff" d="M 128.621094 84.714844 L 100.519531 84.714844 C 99.496094 84.714844 98.664062 83.882812 98.664062 82.855469 C 98.664062 81.824219 99.496094 80.992188 100.519531 80.992188 L 128.621094 80.992188 C 129.644531 80.992188 130.472656 81.824219 130.472656 82.855469 C 130.472656 83.882812 129.644531 84.714844 128.621094 84.714844 " fill-opacity="1" fill-rule="nonzero"/><path fill="#ffffff" d="M 128.621094 93.609375 L 100.519531 93.609375 C 99.496094 93.609375 98.664062 92.773438 98.664062 91.746094 C 98.664062 90.71875 99.496094 89.886719 100.519531 89.886719 L 128.621094 89.886719 C 129.644531 89.886719 130.472656 90.71875 130.472656 91.746094 C 130.472656 92.773438 129.644531 93.609375 128.621094 93.609375 " fill-opacity="1" fill-rule="nonzero"/><g clip-path="url(#id2)"><path fill="#38b6ff" d="M 88.382812 47.292969 C 87.195312 47.292969 86.03125 47.386719 84.898438 47.574219 C 81.863281 43.652344 77.121094 41.125 71.792969 41.125 C 64.78125 41.125 58.785156 45.496094 56.355469 51.671875 C 55.015625 51.324219 53.613281 51.140625 52.171875 51.140625 C 43.003906 51.140625 35.578125 58.605469 35.578125 67.816406 C 35.578125 77.027344 43.003906 84.5 52.171875 84.5 C 52.53125 84.5 52.886719 84.480469 53.246094 84.460938 C 56.371094 88.957031 61.554688 91.898438 67.421875 91.898438 C 69.449219 91.898438 71.394531 91.542969 73.207031 90.898438 C 73.085938 93.589844 72.449219 99.6875 69.140625 101.824219 C 69.140625 101.824219 81.871094 101.136719 86.578125 90.433594 C 87.175781 90.484375 87.777344 90.511719 88.382812 90.511719 C 100.253906 90.511719 109.882812 80.835938 109.882812 68.902344 C 109.882812 56.964844 100.253906 47.292969 88.382812 47.292969 " fill-opacity="1" fill-rule="nonzero"/></g><path fill="#ffffff" d="M 62.808594 68.707031 C 62.808594 70.875 61.058594 72.636719 58.894531 72.636719 C 56.738281 72.636719 54.988281 70.875 54.988281 68.707031 C 54.988281 66.535156 56.738281 64.773438 58.894531 64.773438 C 61.058594 64.773438 62.808594 66.535156 62.808594 68.707031 " fill-opacity="1" fill-rule="nonzero"/><path fill="#ffffff" d="M 76.636719 68.707031 C 76.636719 70.875 74.886719 72.636719 72.730469 72.636719 C 70.570312 72.636719 68.820312 70.875 68.820312 68.707031 C 68.820312 66.535156 70.570312 64.773438 72.730469 64.773438 C 74.886719 64.773438 76.636719 66.535156 76.636719 68.707031 " fill-opacity="1" fill-rule="nonzero"/><path fill="#ffffff" d="M 90.472656 68.707031 C 90.472656 70.875 88.71875 72.636719 86.5625 72.636719 C 84.402344 72.636719 82.648438 70.875 82.648438 68.707031 C 82.648438 66.535156 84.402344 64.773438 86.5625 64.773438 C 88.71875 64.773438 90.472656 66.535156 90.472656 68.707031 " fill-opacity="1" fill-rule="nonzero"/><g fill="#ffffff" fill-opacity="1"><g transform="translate(66.729518, 146.172505)"><g><path d="M 4.203125 0.1875 C 3.660156 0.1875 3.171875 0.09375 2.734375 -0.09375 C 2.296875 -0.289062 1.925781 -0.566406 1.625 -0.921875 C 1.332031 -1.273438 1.109375 -1.707031 0.953125 -2.21875 C 0.796875 -2.726562 0.71875 -3.296875 0.71875 -3.921875 C 0.71875 -4.546875 0.796875 -5.109375 0.953125 -5.609375 C 1.109375 -6.117188 1.332031 -6.550781 1.625 -6.90625 C 1.925781 -7.257812 2.296875 -7.53125 2.734375 -7.71875 C 3.171875 -7.914062 3.660156 -8.015625 4.203125 -8.015625 C 4.984375 -8.015625 5.609375 -7.84375 6.078125 -7.5 C 6.546875 -7.164062 6.898438 -6.726562 7.140625 -6.1875 L 6.125 -5.671875 C 5.976562 -6.066406 5.742188 -6.375 5.421875 -6.59375 C 5.097656 -6.820312 4.691406 -6.9375 4.203125 -6.9375 C 3.835938 -6.9375 3.519531 -6.878906 3.25 -6.765625 C 2.976562 -6.648438 2.75 -6.488281 2.5625 -6.28125 C 2.382812 -6.070312 2.25 -5.820312 2.15625 -5.53125 C 2.0625 -5.25 2.015625 -4.9375 2.015625 -4.59375 L 2.015625 -3.25 C 2.015625 -2.5625 2.195312 -1.992188 2.5625 -1.546875 C 2.9375 -1.109375 3.484375 -0.890625 4.203125 -0.890625 C 5.191406 -0.890625 5.898438 -1.347656 6.328125 -2.265625 L 7.21875 -1.671875 C 6.957031 -1.097656 6.578125 -0.644531 6.078125 -0.3125 C 5.578125 0.0195312 4.953125 0.1875 4.203125 0.1875 Z M 4.203125 0.1875 "/></g></g></g><g fill="#ffffff" fill-opacity="1"><g transform="translate(74.371403, 146.172505)"><g><path d="M 4.25 0.1875 C 3.726562 0.1875 3.25 0.09375 2.8125 -0.09375 C 2.375 -0.289062 2 -0.566406 1.6875 -0.921875 C 1.382812 -1.285156 1.144531 -1.71875 0.96875 -2.21875 C 0.800781 -2.726562 0.71875 -3.296875 0.71875 -3.921875 C 0.71875 -4.535156 0.800781 -5.09375 0.96875 -5.59375 C 1.144531 -6.101562 1.382812 -6.535156 1.6875 -6.890625 C 2 -7.253906 2.375 -7.53125 2.8125 -7.71875 C 3.25 -7.914062 3.726562 -8.015625 4.25 -8.015625 C 4.78125 -8.015625 5.257812 -7.914062 5.6875 -7.71875 C 6.113281 -7.53125 6.484375 -7.253906 6.796875 -6.890625 C 7.117188 -6.535156 7.363281 -6.101562 7.53125 -5.59375 C 7.707031 -5.09375 7.796875 -4.535156 7.796875 -3.921875 C 7.796875 -3.296875 7.707031 -2.726562 7.53125 -2.21875 C 7.363281 -1.71875 7.117188 -1.285156 6.796875 -0.921875 C 6.484375 -0.566406 6.113281 -0.289062 5.6875 -0.09375 C 5.257812 0.09375 4.78125 0.1875 4.25 0.1875 Z M 4.25 -0.890625 C 4.90625 -0.890625 5.441406 -1.09375 5.859375 -1.5 C 6.273438 -1.90625 6.484375 -2.523438 6.484375 -3.359375 L 6.484375 -4.484375 C 6.484375 -5.304688 6.273438 -5.921875 5.859375 -6.328125 C 5.441406 -6.734375 4.90625 -6.9375 4.25 -6.9375 C 3.59375 -6.9375 3.054688 -6.734375 2.640625 -6.328125 C 2.222656 -5.921875 2.015625 -5.304688 2.015625 -4.484375 L 2.015625 -3.359375 C 2.015625 -2.523438 2.222656 -1.90625 2.640625 -1.5 C 3.054688 -1.09375 3.59375 -0.890625 4.25 -0.890625 Z M 4.25 -0.890625 "/></g></g></g><g fill="#ffffff" fill-opacity="1"><g transform="translate(82.879261, 146.172505)"><g><path d="M 1.296875 0 L 1.296875 -7.84375 L 2.5 -7.84375 L 2.5 -6.5625 L 2.5625 -6.5625 C 2.757812 -7.007812 3.03125 -7.363281 3.375 -7.625 C 3.726562 -7.882812 4.195312 -8.015625 4.78125 -8.015625 C 5.59375 -8.015625 6.234375 -7.753906 6.703125 -7.234375 C 7.171875 -6.710938 7.40625 -5.976562 7.40625 -5.03125 L 7.40625 0 L 6.203125 0 L 6.203125 -4.8125 C 6.203125 -6.21875 5.609375 -6.921875 4.421875 -6.921875 C 4.179688 -6.921875 3.945312 -6.890625 3.71875 -6.828125 C 3.488281 -6.773438 3.28125 -6.6875 3.09375 -6.5625 C 2.914062 -6.4375 2.769531 -6.28125 2.65625 -6.09375 C 2.550781 -5.90625 2.5 -5.6875 2.5 -5.4375 L 2.5 0 Z M 1.296875 0 "/></g></g></g><g fill="#ffffff" fill-opacity="1"><g transform="translate(91.508666, 146.172505)"><g><path d="M 3.015625 0 C 2.597656 0 2.28125 -0.117188 2.0625 -0.359375 C 1.84375 -0.597656 1.734375 -0.910156 1.734375 -1.296875 L 1.734375 -6.78125 L 0.4375 -6.78125 L 0.4375 -7.84375 L 1.171875 -7.84375 C 1.429688 -7.84375 1.609375 -7.894531 1.703125 -8 C 1.804688 -8.101562 1.859375 -8.285156 1.859375 -8.546875 L 1.859375 -10.015625 L 2.953125 -10.015625 L 2.953125 -7.84375 L 4.65625 -7.84375 L 4.65625 -6.78125 L 2.953125 -6.78125 L 2.953125 -1.0625 L 4.546875 -1.0625 L 4.546875 0 Z M 3.015625 0 "/></g></g></g><g fill="#ffffff" fill-opacity="1"><g transform="translate(96.841269, 146.172505)"><g><path d="M 6.984375 0 C 6.523438 0 6.195312 -0.117188 6 -0.359375 C 5.800781 -0.609375 5.679688 -0.914062 5.640625 -1.28125 L 5.5625 -1.28125 C 5.382812 -0.789062 5.097656 -0.421875 4.703125 -0.171875 C 4.304688 0.0664062 3.835938 0.1875 3.296875 0.1875 C 2.460938 0.1875 1.816406 -0.0234375 1.359375 -0.453125 C 0.898438 -0.878906 0.671875 -1.457031 0.671875 -2.1875 C 0.671875 -2.925781 0.941406 -3.492188 1.484375 -3.890625 C 2.023438 -4.285156 2.867188 -4.484375 4.015625 -4.484375 L 5.5625 -4.484375 L 5.5625 -5.25 C 5.5625 -5.8125 5.40625 -6.238281 5.09375 -6.53125 C 4.789062 -6.820312 4.328125 -6.96875 3.703125 -6.96875 C 3.222656 -6.96875 2.820312 -6.859375 2.5 -6.640625 C 2.1875 -6.429688 1.925781 -6.148438 1.71875 -5.796875 L 0.984375 -6.484375 C 1.203125 -6.910156 1.539062 -7.269531 2 -7.5625 C 2.46875 -7.863281 3.054688 -8.015625 3.765625 -8.015625 C 4.710938 -8.015625 5.453125 -7.78125 5.984375 -7.3125 C 6.515625 -6.851562 6.78125 -6.207031 6.78125 -5.375 L 6.78125 -1.0625 L 7.671875 -1.0625 L 7.671875 0 Z M 3.5 -0.84375 C 3.800781 -0.84375 4.078125 -0.878906 4.328125 -0.953125 C 4.578125 -1.023438 4.789062 -1.125 4.96875 -1.25 C 5.15625 -1.382812 5.300781 -1.535156 5.40625 -1.703125 C 5.507812 -1.878906 5.5625 -2.070312 5.5625 -2.28125 L 5.5625 -3.5625 L 3.953125 -3.5625 C 3.253906 -3.5625 2.742188 -3.460938 2.421875 -3.265625 C 2.097656 -3.066406 1.9375 -2.773438 1.9375 -2.390625 L 1.9375 -2.0625 C 1.9375 -1.675781 2.078125 -1.375 2.359375 -1.15625 C 2.640625 -0.945312 3.019531 -0.84375 3.5 -0.84375 Z M 3.5 -0.84375 "/></g></g></g><g fill="#ffffff" fill-opacity="1"><g transform="translate(104.954124, 146.172505)"><g><path d="M 4.203125 0.1875 C 3.660156 0.1875 3.171875 0.09375 2.734375 -0.09375 C 2.296875 -0.289062 1.925781 -0.566406 1.625 -0.921875 C 1.332031 -1.273438 1.109375 -1.707031 0.953125 -2.21875 C 0.796875 -2.726562 0.71875 -3.296875 0.71875 -3.921875 C 0.71875 -4.546875 0.796875 -5.109375 0.953125 -5.609375 C 1.109375 -6.117188 1.332031 -6.550781 1.625 -6.90625 C 1.925781 -7.257812 2.296875 -7.53125 2.734375 -7.71875 C 3.171875 -7.914062 3.660156 -8.015625 4.203125 -8.015625 C 4.984375 -8.015625 5.609375 -7.84375 6.078125 -7.5 C 6.546875 -7.164062 6.898438 -6.726562 7.140625 -6.1875 L 6.125 -5.671875 C 5.976562 -6.066406 5.742188 -6.375 5.421875 -6.59375 C 5.097656 -6.820312 4.691406 -6.9375 4.203125 -6.9375 C 3.835938 -6.9375 3.519531 -6.878906 3.25 -6.765625 C 2.976562 -6.648438 2.75 -6.488281 2.5625 -6.28125 C 2.382812 -6.070312 2.25 -5.820312 2.15625 -5.53125 C 2.0625 -5.25 2.015625 -4.9375 2.015625 -4.59375 L 2.015625 -3.25 C 2.015625 -2.5625 2.195312 -1.992188 2.5625 -1.546875 C 2.9375 -1.109375 3.484375 -0.890625 4.203125 -0.890625 C 5.191406 -0.890625 5.898438 -1.347656 6.328125 -2.265625 L 7.21875 -1.671875 C 6.957031 -1.097656 6.578125 -0.644531 6.078125 -0.3125 C 5.578125 0.0195312 4.953125 0.1875 4.203125 0.1875 Z M 4.203125 0.1875 "/></g></g></g><g fill="#ffffff" fill-opacity="1"><g transform="translate(112.596009, 146.172505)"><g><path d="M 3.015625 0 C 2.597656 0 2.28125 -0.117188 2.0625 -0.359375 C 1.84375 -0.597656 1.734375 -0.910156 1.734375 -1.296875 L 1.734375 -6.78125 L 0.4375 -6.78125 L 0.4375 -7.84375 L 1.171875 -7.84375 C 1.429688 -7.84375 1.609375 -7.894531 1.703125 -8 C 1.804688 -8.101562 1.859375 -8.285156 1.859375 -8.546875 L 1.859375 -10.015625 L 2.953125 -10.015625 L 2.953125 -7.84375 L 4.65625 -7.84375 L 4.65625 -6.78125 L 2.953125 -6.78125 L 2.953125 -1.0625 L 4.546875 -1.0625 L 4.546875 0 Z M 3.015625 0 "/></g></g></g><g fill="#ffffff" fill-opacity="1"><g transform="translate(117.923473, 146.172505)"><g/></g></g></svg>