<svg xmlns="http://www.w3.org/2000/svg" xmlns:xlink="http://www.w3.org/1999/xlink" width="50" zoomAndPan="magnify" viewBox="0 0 37.5 43.499999" height="58" preserveAspectRatio="xMidYMid meet" version="1.0"><defs><clipPath id="id1"><path d="M 0 10 L 19 10 L 19 42.96875 L 0 42.96875 Z M 0 10 " clip-rule="nonzero"/></clipPath><clipPath id="id2"><path d="M 18.667969 10.867188 L 37.007812 10.867188 L 37.007812 42.96875 L 18.667969 42.96875 Z M 18.667969 10.867188 " clip-rule="nonzero"/></clipPath><clipPath id="id3"><path d="M 0.00390625 0.0390625 L 37.007812 0.0390625 L 37.007812 21.789062 L 0.00390625 21.789062 Z M 0.00390625 0.0390625 " clip-rule="nonzero"/></clipPath></defs><g clip-path="url(#id1)"><path fill="#5ce1e6" d="M 18.75 21.78125 L 18.75 43.539062 L 0.00390625 32.660156 L 0.00390625 10.917969 L 18.75 21.78125 " fill-opacity="1" fill-rule="nonzero"/></g><g clip-path="url(#id2)"><path fill="#ffde59" d="M 37.496094 10.917969 L 37.496094 32.660156 L 18.75 43.539062 L 18.75 21.78125 L 37.496094 10.917969 " fill-opacity="1" fill-rule="nonzero"/></g><g clip-path="url(#id3)"><path fill="#ff5757" d="M 37.496094 10.917969 L 18.75 21.78125 L 0.00390625 10.917969 L 18.75 0.0390625 L 37.496094 10.917969 " fill-opacity="1" fill-rule="nonzero"/></g></svg>