<svg xmlns="http://www.w3.org/2000/svg" xmlns:xlink="http://www.w3.org/1999/xlink" width="41" zoomAndPan="magnify" viewBox="0 0 30.75 35.25" height="47" preserveAspectRatio="xMidYMid meet" version="1.0"><defs><clipPath id="id1"><path d="M 0.199219 8 L 16 8 L 16 34.515625 L 0.199219 34.515625 Z M 0.199219 8 " clip-rule="nonzero"/></clipPath><clipPath id="id2"><path d="M 15.308594 8.660156 L 30.308594 8.660156 L 30.308594 34.515625 L 15.308594 34.515625 Z M 15.308594 8.660156 " clip-rule="nonzero"/></clipPath><clipPath id="id3"><path d="M 0.203125 0 L 30.308594 0 L 30.308594 17.398438 L 0.203125 17.398438 Z M 0.203125 0 " clip-rule="nonzero"/></clipPath></defs><g clip-path="url(#id1)"><path fill="rgb(0%, 76.078796%, 79.60968%)" d="M 15.375 17.394531 L 15.375 34.796875 L 0.203125 26.09375 L 0.203125 8.703125 L 15.375 17.394531 " fill-opacity="1" fill-rule="nonzero"/></g><g clip-path="url(#id2)"><path fill="rgb(33.729553%, 100%, 81.959534%)" d="M 30.550781 8.703125 L 30.550781 26.09375 L 15.375 34.796875 L 15.375 17.394531 L 30.550781 8.703125 " fill-opacity="1" fill-rule="nonzero"/></g><g clip-path="url(#id3)"><path fill="rgb(36.079407%, 88.238525%, 90.19928%)" d="M 30.550781 8.703125 L 15.375 17.394531 L 0.203125 8.703125 L 15.375 0 L 30.550781 8.703125 " fill-opacity="1" fill-rule="nonzero"/></g></svg>