<svg xmlns="http://www.w3.org/2000/svg" xmlns:xlink="http://www.w3.org/1999/xlink" width="243" zoomAndPan="magnify" viewBox="0 0 182.25 30.000001" height="40" preserveAspectRatio="xMidYMid meet" version="1.0"><defs><g><g id="id1"/></g><clipPath id="id2"><path d="M 153.851562 7 L 167 7 L 167 29.03125 L 153.851562 29.03125 Z M 153.851562 7 " clip-rule="nonzero"/></clipPath><clipPath id="id3"><path d="M 166.136719 7.226562 L 178.523438 7.226562 L 178.523438 29.03125 L 166.136719 29.03125 Z M 166.136719 7.226562 " clip-rule="nonzero"/></clipPath><clipPath id="id4"><path d="M 153.855469 0 L 178.523438 0 L 178.523438 14.515625 L 153.855469 14.515625 Z M 153.855469 0 " clip-rule="nonzero"/></clipPath></defs><g clip-path="url(#id2)"><path fill="rgb(0%, 76.078796%, 79.60968%)" d="M 166.191406 14.511719 L 166.191406 29.03125 L 153.855469 21.773438 L 153.855469 7.261719 L 166.191406 14.511719 " fill-opacity="1" fill-rule="nonzero"/></g><g clip-path="url(#id3)"><path fill="rgb(33.729553%, 100%, 81.959534%)" d="M 178.523438 7.261719 L 178.523438 21.773438 L 166.191406 29.03125 L 166.191406 14.511719 L 178.523438 7.261719 " fill-opacity="1" fill-rule="nonzero"/></g><g clip-path="url(#id4)"><path fill="rgb(36.079407%, 88.238525%, 90.19928%)" d="M 178.523438 7.261719 L 166.191406 14.511719 L 153.855469 7.261719 L 166.191406 0 L 178.523438 7.261719 " fill-opacity="1" fill-rule="nonzero"/></g><g fill="rgb(33.729553%, 100%, 76.078796%)" fill-opacity="1"><g transform="translate(122.867907, 18.844754)"><g><path d="M 1.6875 0.15625 C 1.414062 0.15625 1.21875 0.0859375 1.09375 -0.046875 C 0.976562 -0.179688 0.921875 -0.351562 0.921875 -0.5625 L 0.921875 -0.734375 C 0.921875 -0.941406 0.976562 -1.113281 1.09375 -1.25 C 1.21875 -1.382812 1.414062 -1.453125 1.6875 -1.453125 C 1.945312 -1.453125 2.132812 -1.382812 2.25 -1.25 C 2.375 -1.113281 2.4375 -0.941406 2.4375 -0.734375 L 2.4375 -0.5625 C 2.4375 -0.351562 2.375 -0.179688 2.25 -0.046875 C 2.132812 0.0859375 1.945312 0.15625 1.6875 0.15625 Z M 1.6875 0.15625 "/></g></g></g><g fill="rgb(33.729553%, 100%, 76.078796%)" fill-opacity="1"><g transform="translate(126.233155, 18.844754)"><g><path d="M 2.46875 0 C 2.113281 0 1.847656 -0.09375 1.671875 -0.28125 C 1.492188 -0.476562 1.40625 -0.734375 1.40625 -1.046875 L 1.40625 -5.515625 L 0.359375 -5.515625 L 0.359375 -6.390625 L 0.953125 -6.390625 C 1.171875 -6.390625 1.316406 -6.429688 1.390625 -6.515625 C 1.472656 -6.597656 1.515625 -6.75 1.515625 -6.96875 L 1.515625 -8.15625 L 2.40625 -8.15625 L 2.40625 -6.390625 L 3.796875 -6.390625 L 3.796875 -5.515625 L 2.40625 -5.515625 L 2.40625 -0.859375 L 3.703125 -0.859375 L 3.703125 0 Z M 2.46875 0 "/></g></g></g><g fill="rgb(33.729553%, 100%, 76.078796%)" fill-opacity="1"><g transform="translate(130.575815, 18.844754)"><g><path d="M 3.453125 0.15625 C 3.015625 0.15625 2.617188 0.078125 2.265625 -0.078125 C 1.921875 -0.242188 1.617188 -0.472656 1.359375 -0.765625 C 1.109375 -1.054688 0.914062 -1.40625 0.78125 -1.8125 C 0.644531 -2.21875 0.578125 -2.675781 0.578125 -3.1875 C 0.578125 -3.695312 0.644531 -4.15625 0.78125 -4.5625 C 0.914062 -4.976562 1.109375 -5.332031 1.359375 -5.625 C 1.617188 -5.914062 1.921875 -6.140625 2.265625 -6.296875 C 2.617188 -6.453125 3.015625 -6.53125 3.453125 -6.53125 C 3.878906 -6.53125 4.257812 -6.453125 4.59375 -6.296875 C 4.9375 -6.140625 5.226562 -5.921875 5.46875 -5.640625 C 5.707031 -5.367188 5.890625 -5.039062 6.015625 -4.65625 C 6.148438 -4.28125 6.21875 -3.867188 6.21875 -3.421875 L 6.21875 -2.9375 L 1.625 -2.9375 L 1.625 -2.640625 C 1.625 -2.367188 1.664062 -2.113281 1.75 -1.875 C 1.832031 -1.644531 1.953125 -1.441406 2.109375 -1.265625 C 2.273438 -1.097656 2.472656 -0.960938 2.703125 -0.859375 C 2.941406 -0.765625 3.210938 -0.71875 3.515625 -0.71875 C 3.921875 -0.71875 4.273438 -0.8125 4.578125 -1 C 4.878906 -1.1875 5.109375 -1.457031 5.265625 -1.8125 L 5.984375 -1.3125 C 5.773438 -0.875 5.453125 -0.519531 5.015625 -0.25 C 4.578125 0.0195312 4.054688 0.15625 3.453125 0.15625 Z M 3.453125 -5.703125 C 3.179688 -5.703125 2.929688 -5.65625 2.703125 -5.5625 C 2.484375 -5.46875 2.289062 -5.332031 2.125 -5.15625 C 1.96875 -4.988281 1.84375 -4.785156 1.75 -4.546875 C 1.664062 -4.304688 1.625 -4.050781 1.625 -3.78125 L 1.625 -3.6875 L 5.140625 -3.6875 L 5.140625 -3.828125 C 5.140625 -4.390625 4.984375 -4.84375 4.671875 -5.1875 C 4.367188 -5.53125 3.960938 -5.703125 3.453125 -5.703125 Z M 3.453125 -5.703125 "/></g></g></g><g fill="rgb(33.729553%, 100%, 76.078796%)" fill-opacity="1"><g transform="translate(137.368181, 18.844754)"><g><path d="M 3.421875 0.15625 C 2.984375 0.15625 2.585938 0.078125 2.234375 -0.078125 C 1.878906 -0.242188 1.578125 -0.46875 1.328125 -0.75 C 1.085938 -1.039062 0.898438 -1.390625 0.765625 -1.796875 C 0.640625 -2.210938 0.578125 -2.675781 0.578125 -3.1875 C 0.578125 -3.695312 0.640625 -4.160156 0.765625 -4.578125 C 0.898438 -4.992188 1.085938 -5.34375 1.328125 -5.625 C 1.578125 -5.914062 1.878906 -6.140625 2.234375 -6.296875 C 2.585938 -6.453125 2.984375 -6.53125 3.421875 -6.53125 C 4.054688 -6.53125 4.566406 -6.390625 4.953125 -6.109375 C 5.335938 -5.835938 5.625 -5.476562 5.8125 -5.03125 L 4.984375 -4.609375 C 4.867188 -4.941406 4.675781 -5.195312 4.40625 -5.375 C 4.144531 -5.5625 3.816406 -5.65625 3.421875 -5.65625 C 3.128906 -5.65625 2.867188 -5.609375 2.640625 -5.515625 C 2.421875 -5.421875 2.238281 -5.285156 2.09375 -5.109375 C 1.945312 -4.941406 1.832031 -4.738281 1.75 -4.5 C 1.675781 -4.269531 1.640625 -4.015625 1.640625 -3.734375 L 1.640625 -2.640625 C 1.640625 -2.085938 1.789062 -1.628906 2.09375 -1.265625 C 2.394531 -0.910156 2.835938 -0.734375 3.421875 -0.734375 C 4.222656 -0.734375 4.800781 -1.101562 5.15625 -1.84375 L 5.875 -1.359375 C 5.664062 -0.898438 5.359375 -0.53125 4.953125 -0.25 C 4.546875 0.0195312 4.035156 0.15625 3.421875 0.15625 Z M 3.421875 0.15625 "/></g></g></g><g fill="rgb(33.729553%, 100%, 76.078796%)" fill-opacity="1"><g transform="translate(143.591419, 18.844754)"><g><path d="M 1.046875 -9.15625 L 2.046875 -9.15625 L 2.046875 -5.34375 L 2.09375 -5.34375 C 2.25 -5.707031 2.46875 -5.992188 2.75 -6.203125 C 3.039062 -6.421875 3.421875 -6.53125 3.890625 -6.53125 C 4.554688 -6.53125 5.078125 -6.316406 5.453125 -5.890625 C 5.835938 -5.472656 6.03125 -4.875 6.03125 -4.09375 L 6.03125 0 L 5.046875 0 L 5.046875 -3.921875 C 5.046875 -5.066406 4.5625 -5.640625 3.59375 -5.640625 C 3.394531 -5.640625 3.203125 -5.613281 3.015625 -5.5625 C 2.835938 -5.519531 2.671875 -5.445312 2.515625 -5.34375 C 2.367188 -5.25 2.253906 -5.125 2.171875 -4.96875 C 2.085938 -4.8125 2.046875 -4.632812 2.046875 -4.4375 L 2.046875 0 L 1.046875 0 Z M 1.046875 -9.15625 "/></g></g></g><g fill="rgb(100%, 100%, 100%)" fill-opacity="1"><g transform="translate(44.687618, 18.844754)"><g><path d="M 3.453125 0.15625 C 3.015625 0.15625 2.617188 0.078125 2.265625 -0.078125 C 1.921875 -0.242188 1.617188 -0.472656 1.359375 -0.765625 C 1.109375 -1.054688 0.914062 -1.40625 0.78125 -1.8125 C 0.644531 -2.21875 0.578125 -2.675781 0.578125 -3.1875 C 0.578125 -3.695312 0.644531 -4.15625 0.78125 -4.5625 C 0.914062 -4.976562 1.109375 -5.332031 1.359375 -5.625 C 1.617188 -5.914062 1.921875 -6.140625 2.265625 -6.296875 C 2.617188 -6.453125 3.015625 -6.53125 3.453125 -6.53125 C 3.878906 -6.53125 4.257812 -6.453125 4.59375 -6.296875 C 4.9375 -6.140625 5.226562 -5.921875 5.46875 -5.640625 C 5.707031 -5.367188 5.890625 -5.039062 6.015625 -4.65625 C 6.148438 -4.28125 6.21875 -3.867188 6.21875 -3.421875 L 6.21875 -2.9375 L 1.625 -2.9375 L 1.625 -2.640625 C 1.625 -2.367188 1.664062 -2.113281 1.75 -1.875 C 1.832031 -1.644531 1.953125 -1.441406 2.109375 -1.265625 C 2.273438 -1.097656 2.472656 -0.960938 2.703125 -0.859375 C 2.941406 -0.765625 3.210938 -0.71875 3.515625 -0.71875 C 3.921875 -0.71875 4.273438 -0.8125 4.578125 -1 C 4.878906 -1.1875 5.109375 -1.457031 5.265625 -1.8125 L 5.984375 -1.3125 C 5.773438 -0.875 5.453125 -0.519531 5.015625 -0.25 C 4.578125 0.0195312 4.054688 0.15625 3.453125 0.15625 Z M 3.453125 -5.703125 C 3.179688 -5.703125 2.929688 -5.65625 2.703125 -5.5625 C 2.484375 -5.46875 2.289062 -5.332031 2.125 -5.15625 C 1.96875 -4.988281 1.84375 -4.785156 1.75 -4.546875 C 1.664062 -4.304688 1.625 -4.050781 1.625 -3.78125 L 1.625 -3.6875 L 5.140625 -3.6875 L 5.140625 -3.828125 C 5.140625 -4.390625 4.984375 -4.84375 4.671875 -5.1875 C 4.367188 -5.53125 3.960938 -5.703125 3.453125 -5.703125 Z M 3.453125 -5.703125 "/></g></g></g><g fill="rgb(100%, 100%, 100%)" fill-opacity="1"><g transform="translate(51.479984, 18.844754)"><g><path d="M 2.46875 0 C 2.113281 0 1.847656 -0.09375 1.671875 -0.28125 C 1.492188 -0.476562 1.40625 -0.734375 1.40625 -1.046875 L 1.40625 -5.515625 L 0.359375 -5.515625 L 0.359375 -6.390625 L 0.953125 -6.390625 C 1.171875 -6.390625 1.316406 -6.429688 1.390625 -6.515625 C 1.472656 -6.597656 1.515625 -6.75 1.515625 -6.96875 L 1.515625 -8.15625 L 2.40625 -8.15625 L 2.40625 -6.390625 L 3.796875 -6.390625 L 3.796875 -5.515625 L 2.40625 -5.515625 L 2.40625 -0.859375 L 3.703125 -0.859375 L 3.703125 0 Z M 2.46875 0 "/></g></g></g><g fill="rgb(100%, 100%, 100%)" fill-opacity="1"><g transform="translate(55.822644, 18.844754)"><g><path d="M 1.046875 -9.15625 L 2.046875 -9.15625 L 2.046875 -5.34375 L 2.09375 -5.34375 C 2.25 -5.707031 2.46875 -5.992188 2.75 -6.203125 C 3.039062 -6.421875 3.421875 -6.53125 3.890625 -6.53125 C 4.554688 -6.53125 5.078125 -6.316406 5.453125 -5.890625 C 5.835938 -5.472656 6.03125 -4.875 6.03125 -4.09375 L 6.03125 0 L 5.046875 0 L 5.046875 -3.921875 C 5.046875 -5.066406 4.5625 -5.640625 3.59375 -5.640625 C 3.394531 -5.640625 3.203125 -5.613281 3.015625 -5.5625 C 2.835938 -5.519531 2.671875 -5.445312 2.515625 -5.34375 C 2.367188 -5.25 2.253906 -5.125 2.171875 -4.96875 C 2.085938 -4.8125 2.046875 -4.632812 2.046875 -4.4375 L 2.046875 0 L 1.046875 0 Z M 1.046875 -9.15625 "/></g></g></g><g fill="rgb(100%, 100%, 100%)" fill-opacity="1"><g transform="translate(62.850081, 18.844754)"><g><path d="M 5.6875 0 C 5.320312 0 5.054688 -0.0976562 4.890625 -0.296875 C 4.734375 -0.492188 4.632812 -0.742188 4.59375 -1.046875 L 4.53125 -1.046875 C 4.382812 -0.648438 4.148438 -0.347656 3.828125 -0.140625 C 3.515625 0.0546875 3.132812 0.15625 2.6875 0.15625 C 2.007812 0.15625 1.484375 -0.015625 1.109375 -0.359375 C 0.734375 -0.710938 0.546875 -1.1875 0.546875 -1.78125 C 0.546875 -2.382812 0.765625 -2.847656 1.203125 -3.171875 C 1.648438 -3.492188 2.335938 -3.65625 3.265625 -3.65625 L 4.53125 -3.65625 L 4.53125 -4.28125 C 4.53125 -4.738281 4.40625 -5.085938 4.15625 -5.328125 C 3.90625 -5.566406 3.523438 -5.6875 3.015625 -5.6875 C 2.628906 -5.6875 2.304688 -5.597656 2.046875 -5.421875 C 1.785156 -5.242188 1.566406 -5.015625 1.390625 -4.734375 L 0.796875 -5.28125 C 0.972656 -5.625 1.25 -5.914062 1.625 -6.15625 C 2.007812 -6.40625 2.488281 -6.53125 3.0625 -6.53125 C 3.84375 -6.53125 4.445312 -6.335938 4.875 -5.953125 C 5.300781 -5.578125 5.515625 -5.050781 5.515625 -4.375 L 5.515625 -0.859375 L 6.25 -0.859375 L 6.25 0 Z M 2.84375 -0.6875 C 3.09375 -0.6875 3.320312 -0.710938 3.53125 -0.765625 C 3.738281 -0.828125 3.914062 -0.910156 4.0625 -1.015625 C 4.207031 -1.128906 4.320312 -1.253906 4.40625 -1.390625 C 4.488281 -1.535156 4.53125 -1.691406 4.53125 -1.859375 L 4.53125 -2.90625 L 3.21875 -2.90625 C 2.644531 -2.90625 2.226562 -2.820312 1.96875 -2.65625 C 1.707031 -2.488281 1.578125 -2.25 1.578125 -1.9375 L 1.578125 -1.6875 C 1.578125 -1.375 1.691406 -1.128906 1.921875 -0.953125 C 2.148438 -0.773438 2.457031 -0.6875 2.84375 -0.6875 Z M 2.84375 -0.6875 "/></g></g></g><g fill="rgb(100%, 100%, 100%)" fill-opacity="1"><g transform="translate(69.45686, 18.844754)"><g><path d="M 1.046875 0 L 1.046875 -6.390625 L 2.046875 -6.390625 L 2.046875 -5.34375 L 2.09375 -5.34375 C 2.25 -5.707031 2.46875 -5.992188 2.75 -6.203125 C 3.039062 -6.421875 3.421875 -6.53125 3.890625 -6.53125 C 4.554688 -6.53125 5.078125 -6.316406 5.453125 -5.890625 C 5.835938 -5.472656 6.03125 -4.875 6.03125 -4.09375 L 6.03125 0 L 5.046875 0 L 5.046875 -3.921875 C 5.046875 -5.066406 4.5625 -5.640625 3.59375 -5.640625 C 3.394531 -5.640625 3.203125 -5.613281 3.015625 -5.5625 C 2.835938 -5.519531 2.671875 -5.445312 2.515625 -5.34375 C 2.367188 -5.25 2.253906 -5.125 2.171875 -4.96875 C 2.085938 -4.8125 2.046875 -4.632812 2.046875 -4.4375 L 2.046875 0 Z M 1.046875 0 "/></g></g></g><g fill="rgb(100%, 100%, 100%)" fill-opacity="1"><g transform="translate(76.484297, 18.844754)"><g><path d="M 0.390625 -6.390625 L 1.34375 -6.390625 L 2.03125 -3.625 L 2.703125 -0.828125 L 2.734375 -0.828125 L 3.515625 -3.625 L 4.3125 -6.390625 L 5.203125 -6.390625 L 6.03125 -3.625 L 6.8125 -0.828125 L 6.84375 -0.828125 L 7.5 -3.625 L 8.1875 -6.390625 L 9.125 -6.390625 L 7.421875 0 L 6.203125 0 L 5.3125 -3.0625 L 4.75 -5.015625 L 4.734375 -5.015625 L 4.1875 -3.0625 L 3.296875 0 L 2.09375 0 Z M 0.390625 -6.390625 "/></g></g></g><g fill="rgb(100%, 100%, 100%)" fill-opacity="1"><g transform="translate(85.986182, 18.844754)"><g><path d="M 1.546875 -7.890625 C 1.328125 -7.890625 1.171875 -7.9375 1.078125 -8.03125 C 0.984375 -8.132812 0.9375 -8.269531 0.9375 -8.4375 L 0.9375 -8.59375 C 0.9375 -8.757812 0.984375 -8.894531 1.078125 -9 C 1.171875 -9.101562 1.328125 -9.15625 1.546875 -9.15625 C 1.765625 -9.15625 1.921875 -9.101562 2.015625 -9 C 2.109375 -8.894531 2.15625 -8.757812 2.15625 -8.59375 L 2.15625 -8.4375 C 2.15625 -8.269531 2.109375 -8.132812 2.015625 -8.03125 C 1.921875 -7.9375 1.765625 -7.890625 1.546875 -7.890625 Z M 1.046875 -6.390625 L 2.046875 -6.390625 L 2.046875 0 L 1.046875 0 Z M 1.046875 -6.390625 "/></g></g></g><g fill="rgb(100%, 100%, 100%)" fill-opacity="1"><g transform="translate(89.079242, 18.844754)"><g><path d="M 2.109375 0 C 1.753906 0 1.488281 -0.09375 1.3125 -0.28125 C 1.132812 -0.476562 1.046875 -0.726562 1.046875 -1.03125 L 1.046875 -9.15625 L 2.046875 -9.15625 L 2.046875 -0.859375 L 2.984375 -0.859375 L 2.984375 0 Z M 2.109375 0 "/></g></g></g><g fill="rgb(100%, 100%, 100%)" fill-opacity="1"><g transform="translate(92.444491, 18.844754)"><g><path d="M 2.109375 0 C 1.753906 0 1.488281 -0.09375 1.3125 -0.28125 C 1.132812 -0.476562 1.046875 -0.726562 1.046875 -1.03125 L 1.046875 -9.15625 L 2.046875 -9.15625 L 2.046875 -0.859375 L 2.984375 -0.859375 L 2.984375 0 Z M 2.109375 0 "/></g></g></g><g fill="rgb(100%, 100%, 100%)" fill-opacity="1"><g transform="translate(95.809739, 18.844754)"><g><path d="M 1.546875 -7.890625 C 1.328125 -7.890625 1.171875 -7.9375 1.078125 -8.03125 C 0.984375 -8.132812 0.9375 -8.269531 0.9375 -8.4375 L 0.9375 -8.59375 C 0.9375 -8.757812 0.984375 -8.894531 1.078125 -9 C 1.171875 -9.101562 1.328125 -9.15625 1.546875 -9.15625 C 1.765625 -9.15625 1.921875 -9.101562 2.015625 -9 C 2.109375 -8.894531 2.15625 -8.757812 2.15625 -8.59375 L 2.15625 -8.4375 C 2.15625 -8.269531 2.109375 -8.132812 2.015625 -8.03125 C 1.921875 -7.9375 1.765625 -7.890625 1.546875 -7.890625 Z M 1.046875 -6.390625 L 2.046875 -6.390625 L 2.046875 0 L 1.046875 0 Z M 1.046875 -6.390625 "/></g></g></g><g fill="rgb(100%, 100%, 100%)" fill-opacity="1"><g transform="translate(98.902799, 18.844754)"><g><path d="M 5.6875 0 C 5.320312 0 5.054688 -0.0976562 4.890625 -0.296875 C 4.734375 -0.492188 4.632812 -0.742188 4.59375 -1.046875 L 4.53125 -1.046875 C 4.382812 -0.648438 4.148438 -0.347656 3.828125 -0.140625 C 3.515625 0.0546875 3.132812 0.15625 2.6875 0.15625 C 2.007812 0.15625 1.484375 -0.015625 1.109375 -0.359375 C 0.734375 -0.710938 0.546875 -1.1875 0.546875 -1.78125 C 0.546875 -2.382812 0.765625 -2.847656 1.203125 -3.171875 C 1.648438 -3.492188 2.335938 -3.65625 3.265625 -3.65625 L 4.53125 -3.65625 L 4.53125 -4.28125 C 4.53125 -4.738281 4.40625 -5.085938 4.15625 -5.328125 C 3.90625 -5.566406 3.523438 -5.6875 3.015625 -5.6875 C 2.628906 -5.6875 2.304688 -5.597656 2.046875 -5.421875 C 1.785156 -5.242188 1.566406 -5.015625 1.390625 -4.734375 L 0.796875 -5.28125 C 0.972656 -5.625 1.25 -5.914062 1.625 -6.15625 C 2.007812 -6.40625 2.488281 -6.53125 3.0625 -6.53125 C 3.84375 -6.53125 4.445312 -6.335938 4.875 -5.953125 C 5.300781 -5.578125 5.515625 -5.050781 5.515625 -4.375 L 5.515625 -0.859375 L 6.25 -0.859375 L 6.25 0 Z M 2.84375 -0.6875 C 3.09375 -0.6875 3.320312 -0.710938 3.53125 -0.765625 C 3.738281 -0.828125 3.914062 -0.910156 4.0625 -1.015625 C 4.207031 -1.128906 4.320312 -1.253906 4.40625 -1.390625 C 4.488281 -1.535156 4.53125 -1.691406 4.53125 -1.859375 L 4.53125 -2.90625 L 3.21875 -2.90625 C 2.644531 -2.90625 2.226562 -2.820312 1.96875 -2.65625 C 1.707031 -2.488281 1.578125 -2.25 1.578125 -1.9375 L 1.578125 -1.6875 C 1.578125 -1.375 1.691406 -1.128906 1.921875 -0.953125 C 2.148438 -0.773438 2.457031 -0.6875 2.84375 -0.6875 Z M 2.84375 -0.6875 "/></g></g></g><g fill="rgb(100%, 100%, 100%)" fill-opacity="1"><g transform="translate(105.509578, 18.844754)"><g><path d="M 1.046875 0 L 1.046875 -6.390625 L 2.046875 -6.390625 L 2.046875 -5.34375 L 2.09375 -5.34375 C 2.164062 -5.507812 2.25 -5.664062 2.34375 -5.8125 C 2.4375 -5.957031 2.550781 -6.082031 2.6875 -6.1875 C 2.820312 -6.289062 2.976562 -6.375 3.15625 -6.4375 C 3.34375 -6.5 3.5625 -6.53125 3.8125 -6.53125 C 4.226562 -6.53125 4.613281 -6.425781 4.96875 -6.21875 C 5.320312 -6.019531 5.585938 -5.691406 5.765625 -5.234375 L 5.796875 -5.234375 C 5.910156 -5.578125 6.125 -5.878906 6.4375 -6.140625 C 6.757812 -6.398438 7.191406 -6.53125 7.734375 -6.53125 C 8.390625 -6.53125 8.898438 -6.316406 9.265625 -5.890625 C 9.628906 -5.472656 9.8125 -4.875 9.8125 -4.09375 L 9.8125 0 L 8.828125 0 L 8.828125 -3.921875 C 8.828125 -4.492188 8.710938 -4.921875 8.484375 -5.203125 C 8.265625 -5.492188 7.910156 -5.640625 7.421875 -5.640625 C 7.222656 -5.640625 7.035156 -5.613281 6.859375 -5.5625 C 6.679688 -5.519531 6.519531 -5.445312 6.375 -5.34375 C 6.238281 -5.25 6.128906 -5.125 6.046875 -4.96875 C 5.960938 -4.8125 5.921875 -4.632812 5.921875 -4.4375 L 5.921875 0 L 4.9375 0 L 4.9375 -3.921875 C 4.9375 -4.492188 4.820312 -4.921875 4.59375 -5.203125 C 4.375 -5.492188 4.03125 -5.640625 3.5625 -5.640625 C 3.363281 -5.640625 3.171875 -5.613281 2.984375 -5.5625 C 2.804688 -5.519531 2.644531 -5.445312 2.5 -5.34375 C 2.363281 -5.25 2.253906 -5.125 2.171875 -4.96875 C 2.085938 -4.8125 2.046875 -4.632812 2.046875 -4.4375 L 2.046875 0 Z M 1.046875 0 "/></g></g></g><g fill="rgb(100%, 100%, 100%)" fill-opacity="1"><g transform="translate(116.310546, 18.844754)"><g><path d="M 2.96875 0.15625 C 2.375 0.15625 1.875 0.0390625 1.46875 -0.1875 C 1.070312 -0.414062 0.734375 -0.71875 0.453125 -1.09375 L 1.15625 -1.671875 C 1.394531 -1.359375 1.664062 -1.113281 1.96875 -0.9375 C 2.28125 -0.769531 2.640625 -0.6875 3.046875 -0.6875 C 3.460938 -0.6875 3.785156 -0.773438 4.015625 -0.953125 C 4.253906 -1.140625 4.375 -1.398438 4.375 -1.734375 C 4.375 -1.984375 4.289062 -2.195312 4.125 -2.375 C 3.96875 -2.550781 3.679688 -2.671875 3.265625 -2.734375 L 2.765625 -2.8125 C 2.460938 -2.851562 2.1875 -2.914062 1.9375 -3 C 1.695312 -3.082031 1.484375 -3.195312 1.296875 -3.34375 C 1.109375 -3.488281 0.960938 -3.664062 0.859375 -3.875 C 0.753906 -4.09375 0.703125 -4.351562 0.703125 -4.65625 C 0.703125 -4.96875 0.757812 -5.238281 0.875 -5.46875 C 0.988281 -5.707031 1.144531 -5.90625 1.34375 -6.0625 C 1.550781 -6.21875 1.796875 -6.332031 2.078125 -6.40625 C 2.359375 -6.488281 2.660156 -6.53125 2.984375 -6.53125 C 3.503906 -6.53125 3.9375 -6.4375 4.28125 -6.25 C 4.632812 -6.070312 4.941406 -5.820312 5.203125 -5.5 L 4.546875 -4.90625 C 4.410156 -5.101562 4.207031 -5.28125 3.9375 -5.4375 C 3.664062 -5.601562 3.320312 -5.6875 2.90625 -5.6875 C 2.5 -5.6875 2.1875 -5.597656 1.96875 -5.421875 C 1.757812 -5.242188 1.65625 -5.003906 1.65625 -4.703125 C 1.65625 -4.390625 1.757812 -4.160156 1.96875 -4.015625 C 2.1875 -3.878906 2.492188 -3.78125 2.890625 -3.71875 L 3.375 -3.640625 C 4.082031 -3.535156 4.582031 -3.332031 4.875 -3.03125 C 5.175781 -2.726562 5.328125 -2.332031 5.328125 -1.84375 C 5.328125 -1.226562 5.117188 -0.738281 4.703125 -0.375 C 4.285156 -0.0195312 3.707031 0.15625 2.96875 0.15625 Z M 2.96875 0.15625 "/></g></g></g></svg>