<svg xmlns="http://www.w3.org/2000/svg" xmlns:xlink="http://www.w3.org/1999/xlink" width="118" zoomAndPan="magnify" viewBox="0 0 88.5 81.749997" height="109" preserveAspectRatio="xMidYMid meet" version="1.0"><defs><clipPath id="id1"><path d="M 2 0.105469 L 86 0.105469 L 86 81.394531 L 2 81.394531 Z M 2 0.105469 " clip-rule="nonzero"/></clipPath></defs><g clip-path="url(#id1)"><path fill="rgb(33.729553%, 100%, 76.078796%)" d="M 57.402344 81.40625 C 58.175781 81.148438 58.9375 80.867188 59.691406 80.566406 C 60.445312 80.261719 61.191406 79.9375 61.929688 79.589844 C 62.664062 79.242188 63.390625 78.871094 64.101562 78.480469 C 64.816406 78.09375 65.519531 77.679688 66.210938 77.25 C 66.898438 76.816406 67.578125 76.367188 68.238281 75.894531 C 68.902344 75.421875 69.554688 74.933594 70.1875 74.421875 C 70.824219 73.914062 71.441406 73.386719 72.046875 72.839844 C 72.652344 72.292969 73.238281 71.730469 73.808594 71.148438 C 74.378906 70.566406 74.933594 69.96875 75.46875 69.355469 C 76.007812 68.742188 76.523438 68.113281 77.023438 67.46875 C 77.523438 66.824219 78.003906 66.167969 78.464844 65.492188 C 78.925781 64.820312 79.367188 64.136719 79.785156 63.4375 C 80.207031 62.738281 80.605469 62.027344 80.984375 61.304688 C 81.363281 60.582031 81.722656 59.851562 82.058594 59.109375 C 82.394531 58.363281 82.710938 57.613281 83 56.851562 C 83.292969 56.089844 83.5625 55.320312 83.8125 54.539062 C 84.058594 53.761719 84.28125 52.980469 84.484375 52.1875 C 84.683594 51.398438 84.863281 50.601562 85.015625 49.800781 C 85.171875 48.996094 85.304688 48.191406 85.410156 47.382812 C 85.519531 46.574219 85.601562 45.761719 85.660156 44.949219 C 85.722656 44.132812 85.757812 43.320312 85.769531 42.503906 C 85.78125 41.6875 85.773438 40.871094 85.734375 40.054688 C 85.699219 39.238281 85.640625 38.425781 85.558594 37.613281 C 85.476562 36.800781 85.367188 35.992188 85.238281 35.1875 C 85.109375 34.378906 84.953125 33.578125 84.777344 32.78125 C 84.601562 31.984375 84.398438 31.195312 84.175781 30.410156 C 83.953125 29.625 83.707031 28.847656 83.4375 28.078125 C 83.167969 27.304688 82.878906 26.542969 82.5625 25.792969 C 82.25 25.039062 81.914062 24.292969 81.558594 23.5625 C 81.199219 22.828125 80.824219 22.105469 80.421875 21.394531 C 80.023438 20.683594 79.605469 19.984375 79.164062 19.296875 C 78.722656 18.613281 78.265625 17.9375 77.785156 17.28125 C 77.304688 16.621094 76.804688 15.976562 76.289062 15.347656 C 75.773438 14.71875 75.238281 14.101562 74.683594 13.503906 C 74.128906 12.90625 73.558594 12.324219 72.972656 11.761719 C 72.386719 11.195312 71.78125 10.648438 71.164062 10.121094 C 70.542969 9.589844 69.910156 9.082031 69.261719 8.589844 C 68.609375 8.097656 67.949219 7.625 67.273438 7.171875 C 66.59375 6.722656 65.90625 6.289062 65.203125 5.878906 C 64.5 5.464844 63.789062 5.074219 63.0625 4.703125 C 62.339844 4.335938 61.601562 3.988281 60.859375 3.660156 C 60.113281 3.335938 59.359375 3.03125 58.597656 2.75 C 57.832031 2.46875 57.0625 2.207031 56.285156 1.972656 C 55.507812 1.734375 54.722656 1.523438 53.929688 1.332031 C 53.140625 1.140625 52.34375 0.976562 51.542969 0.832031 C 50.742188 0.6875 49.941406 0.570312 49.132812 0.472656 C 48.324219 0.378906 47.515625 0.304688 46.703125 0.257812 C 45.894531 0.210938 45.082031 0.1875 44.265625 0.1875 C 43.453125 0.1875 42.640625 0.210938 41.832031 0.257812 C 41.019531 0.304688 40.210938 0.378906 39.402344 0.472656 C 38.59375 0.570312 37.789062 0.6875 36.992188 0.832031 C 36.191406 0.976562 35.394531 1.140625 34.605469 1.332031 C 33.8125 1.523438 33.027344 1.734375 32.25 1.972656 C 31.472656 2.207031 30.703125 2.46875 29.9375 2.75 C 29.175781 3.03125 28.421875 3.335938 27.675781 3.660156 C 26.929688 3.988281 26.195312 4.335938 25.472656 4.703125 C 24.746094 5.074219 24.03125 5.464844 23.332031 5.878906 C 22.628906 6.289062 21.941406 6.722656 21.261719 7.171875 C 20.585938 7.625 19.921875 8.097656 19.273438 8.589844 C 18.625 9.082031 17.992188 9.589844 17.371094 10.121094 C 16.753906 10.648438 16.148438 11.195312 15.5625 11.761719 C 14.976562 12.324219 14.40625 12.90625 13.851562 13.503906 C 13.296875 14.101562 12.761719 14.71875 12.246094 15.347656 C 11.726562 15.976562 11.230469 16.621094 10.75 17.28125 C 10.269531 17.9375 9.8125 18.613281 9.371094 19.296875 C 8.929688 19.984375 8.511719 20.683594 8.113281 21.394531 C 7.710938 22.105469 7.332031 22.828125 6.976562 23.5625 C 6.621094 24.292969 6.285156 25.039062 5.972656 25.792969 C 5.65625 26.542969 5.367188 27.304688 5.097656 28.078125 C 4.828125 28.847656 4.582031 29.625 4.359375 30.410156 C 4.136719 31.195312 3.933594 31.984375 3.757812 32.78125 C 3.578125 33.578125 3.425781 34.378906 3.296875 35.1875 C 3.164062 35.992188 3.058594 36.800781 2.976562 37.613281 C 2.894531 38.425781 2.832031 39.238281 2.796875 40.054688 C 2.761719 40.871094 2.75 41.6875 2.765625 42.503906 C 2.777344 43.320312 2.8125 44.132812 2.871094 44.949219 C 2.933594 45.761719 3.015625 46.574219 3.125 47.382812 C 3.230469 48.191406 3.363281 48.996094 3.515625 49.800781 C 3.671875 50.601562 3.851562 51.398438 4.050781 52.1875 C 4.253906 52.980469 4.476562 53.761719 4.722656 54.539062 C 4.972656 55.320312 5.242188 56.089844 5.535156 56.851562 C 5.824219 57.613281 6.140625 58.363281 6.476562 59.109375 C 6.8125 59.851562 7.167969 60.582031 7.550781 61.304688 C 7.929688 62.027344 8.328125 62.738281 8.75 63.4375 C 9.167969 64.136719 9.609375 64.820312 10.070312 65.492188 C 10.53125 66.167969 11.011719 66.824219 11.511719 67.46875 C 12.011719 68.113281 12.527344 68.742188 13.0625 69.355469 C 13.601562 69.96875 14.152344 70.566406 14.726562 71.148438 C 15.296875 71.730469 15.882812 72.292969 16.488281 72.839844 C 17.09375 73.386719 17.710938 73.914062 18.347656 74.421875 C 18.980469 74.933594 19.632812 75.421875 20.292969 75.894531 C 20.957031 76.367188 21.636719 76.816406 22.324219 77.25 C 23.015625 77.679688 23.71875 78.09375 24.433594 78.480469 C 25.144531 78.871094 25.871094 79.242188 26.605469 79.589844 C 27.34375 79.9375 28.085938 80.261719 28.84375 80.566406 C 29.597656 80.867188 30.359375 81.148438 31.132812 81.40625 C 33.214844 81.789062 33.960938 80.5 33.960938 79.386719 C 33.960938 78.636719 33.960938 76.964844 33.960938 74.699219 C 33.953125 74.398438 33.890625 74.113281 33.761719 73.84375 C 33.636719 73.570312 33.460938 73.339844 33.238281 73.140625 C 33.011719 72.945312 32.757812 72.804688 32.472656 72.71875 C 32.1875 72.628906 31.894531 72.605469 31.601562 72.640625 C 22.054688 73.671875 19.957031 66.648438 19.957031 66.648438 C 18.0625 61.820312 15.339844 60.53125 15.339844 60.53125 C 11.574219 57.933594 15.617188 57.988281 15.617188 57.988281 C 16.953125 58.171875 18.179688 58.644531 19.292969 59.40625 C 20.410156 60.164062 21.300781 61.132812 21.96875 62.308594 C 22.214844 62.785156 22.5 63.234375 22.828125 63.65625 C 23.15625 64.074219 23.523438 64.464844 23.921875 64.816406 C 24.324219 65.167969 24.753906 65.480469 25.214844 65.753906 C 25.671875 66.023438 26.15625 66.25 26.65625 66.429688 C 27.15625 66.613281 27.671875 66.746094 28.199219 66.828125 C 28.726562 66.914062 29.253906 66.945312 29.789062 66.929688 C 30.320312 66.914062 30.847656 66.851562 31.367188 66.734375 C 31.886719 66.621094 32.394531 66.457031 32.882812 66.246094 C 33.230469 66.121094 33.523438 65.917969 33.765625 65.640625 C 34.003906 65.359375 34.164062 65.039062 34.238281 64.679688 C 34.386719 64.007812 34.601562 63.355469 34.878906 62.726562 C 34.949219 62.582031 35.003906 62.429688 35.039062 62.269531 C 35.074219 62.113281 35.09375 61.953125 35.09375 61.789062 C 35.09375 61.625 35.074219 61.464844 35.039062 61.308594 C 35 61.148438 34.949219 60.996094 34.878906 60.851562 C 34.804688 60.703125 34.71875 60.566406 34.617188 60.441406 C 34.515625 60.316406 34.402344 60.203125 34.273438 60.101562 C 34.144531 60.003906 34.007812 59.917969 33.863281 59.847656 C 33.714844 59.78125 33.5625 59.730469 33.40625 59.695312 C 25.300781 58.109375 17.785156 53.648438 17.785156 39.515625 C 17.761719 37.792969 18.003906 36.105469 18.515625 34.460938 C 19.023438 32.8125 19.777344 31.285156 20.769531 29.878906 C 21.140625 29.378906 21.390625 28.828125 21.519531 28.21875 C 21.648438 27.609375 21.648438 27.003906 21.519531 26.394531 C 21.125 24.421875 21.125 22.445312 21.519531 20.46875 C 21.570312 20.207031 21.648438 19.953125 21.753906 19.707031 C 21.855469 19.464844 21.984375 19.230469 22.136719 19.011719 C 22.292969 18.792969 22.464844 18.59375 22.660156 18.410156 C 22.855469 18.230469 23.066406 18.070312 23.292969 17.929688 C 23.519531 17.792969 23.761719 17.679688 24.011719 17.59375 C 24.265625 17.503906 24.519531 17.445312 24.785156 17.410156 C 25.050781 17.378906 25.3125 17.371094 25.578125 17.394531 C 25.84375 17.417969 26.105469 17.464844 26.359375 17.542969 C 28.492188 18.242188 30.5 19.207031 32.378906 20.4375 C 33.433594 21.070312 34.554688 21.242188 35.746094 20.957031 C 41.445312 19.683594 47.140625 19.683594 52.839844 20.957031 C 54.03125 21.242188 55.15625 21.070312 56.207031 20.4375 C 58.039062 19.242188 59.988281 18.296875 62.054688 17.59375 C 62.324219 17.511719 62.597656 17.460938 62.875 17.4375 C 63.15625 17.414062 63.433594 17.421875 63.710938 17.460938 C 63.992188 17.5 64.261719 17.566406 64.523438 17.660156 C 64.789062 17.757812 65.039062 17.882812 65.277344 18.03125 C 65.511719 18.183594 65.730469 18.355469 65.929688 18.554688 C 66.132812 18.753906 66.308594 18.96875 66.460938 19.207031 C 66.613281 19.441406 66.742188 19.691406 66.839844 19.953125 C 66.941406 20.21875 67.011719 20.488281 67.050781 20.765625 C 67.414062 22.660156 67.414062 24.554688 67.050781 26.449219 C 66.921875 27.054688 66.921875 27.664062 67.050781 28.269531 C 67.179688 28.878906 67.429688 29.433594 67.796875 29.933594 C 68.792969 31.339844 69.542969 32.867188 70.054688 34.511719 C 70.566406 36.160156 70.808594 37.84375 70.78125 39.570312 C 70.78125 53.734375 63.25 58.160156 55.164062 59.730469 C 55.007812 59.761719 54.855469 59.808594 54.710938 59.871094 C 54.5625 59.9375 54.425781 60.019531 54.300781 60.113281 C 54.171875 60.210938 54.054688 60.320312 53.953125 60.441406 C 53.851562 60.566406 53.761719 60.699219 53.6875 60.839844 C 53.617188 60.984375 53.558594 61.132812 53.523438 61.289062 C 53.484375 61.445312 53.460938 61.601562 53.457031 61.761719 C 53.457031 61.921875 53.472656 62.082031 53.503906 62.238281 C 53.539062 62.394531 53.585938 62.546875 53.65625 62.691406 C 54.378906 64.359375 54.726562 66.101562 54.695312 67.921875 L 54.695312 79.402344 C 54.695312 79.402344 55.285156 81.753906 57.402344 81.40625 Z M 57.402344 81.40625 " fill-opacity="1" fill-rule="nonzero"/></g></svg>