<svg xmlns="http://www.w3.org/2000/svg" xmlns:xlink="http://www.w3.org/1999/xlink" width="243" zoomAndPan="magnify" viewBox="0 0 182.25 31.5" height="42" preserveAspectRatio="xMidYMid meet" version="1.0"><defs><g/><clipPath id="id1"><path d="M 153.636719 7 L 167 7 L 167 31.007812 L 153.636719 31.007812 Z M 153.636719 7 " clip-rule="nonzero"/></clipPath><clipPath id="id2"><path d="M 166.867188 7.71875 L 180.210938 7.71875 L 180.210938 31.007812 L 166.867188 31.007812 Z M 166.867188 7.71875 " clip-rule="nonzero"/></clipPath><clipPath id="id3"><path d="M 153.640625 0 L 180.210938 0 L 180.210938 15.503906 L 153.640625 15.503906 Z M 153.640625 0 " clip-rule="nonzero"/></clipPath></defs><g fill="#ffffff" fill-opacity="1"><g transform="translate(5.185099, 21.661708)"><g><path d="M 4.78125 0.203125 C 4.164062 0.203125 3.613281 0.0976562 3.125 -0.109375 C 2.644531 -0.328125 2.234375 -0.640625 1.890625 -1.046875 C 1.546875 -1.453125 1.273438 -1.9375 1.078125 -2.5 C 0.890625 -3.070312 0.796875 -3.710938 0.796875 -4.421875 C 0.796875 -5.109375 0.890625 -5.738281 1.078125 -6.3125 C 1.273438 -6.882812 1.546875 -7.375 1.890625 -7.78125 C 2.234375 -8.1875 2.644531 -8.492188 3.125 -8.703125 C 3.613281 -8.921875 4.164062 -9.03125 4.78125 -9.03125 C 5.363281 -9.03125 5.890625 -8.921875 6.359375 -8.703125 C 6.828125 -8.492188 7.226562 -8.195312 7.5625 -7.8125 C 7.894531 -7.425781 8.148438 -6.96875 8.328125 -6.4375 C 8.503906 -5.914062 8.59375 -5.34375 8.59375 -4.71875 L 8.59375 -4.078125 L 2.234375 -4.078125 L 2.234375 -3.65625 C 2.234375 -3.28125 2.289062 -2.929688 2.40625 -2.609375 C 2.53125 -2.285156 2.703125 -2.003906 2.921875 -1.765625 C 3.148438 -1.523438 3.425781 -1.335938 3.75 -1.203125 C 4.082031 -1.066406 4.453125 -1 4.859375 -1 C 5.421875 -1 5.910156 -1.128906 6.328125 -1.390625 C 6.742188 -1.648438 7.0625 -2.023438 7.28125 -2.515625 L 8.265625 -1.8125 C 7.984375 -1.207031 7.535156 -0.71875 6.921875 -0.34375 C 6.316406 0.0195312 5.601562 0.203125 4.78125 0.203125 Z M 4.78125 -7.890625 C 4.394531 -7.890625 4.046875 -7.820312 3.734375 -7.6875 C 3.429688 -7.5625 3.171875 -7.378906 2.953125 -7.140625 C 2.734375 -6.898438 2.554688 -6.613281 2.421875 -6.28125 C 2.296875 -5.957031 2.234375 -5.601562 2.234375 -5.21875 L 2.234375 -5.09375 L 7.125 -5.09375 L 7.125 -5.28125 C 7.125 -6.070312 6.90625 -6.703125 6.46875 -7.171875 C 6.039062 -7.648438 5.476562 -7.890625 4.78125 -7.890625 Z M 4.78125 -7.890625 "/></g></g></g><g fill="#ffffff" fill-opacity="1"><g transform="translate(14.5817, 21.661708)"><g><path d="M 3.40625 0 C 2.925781 0 2.5625 -0.128906 2.3125 -0.390625 C 2.070312 -0.660156 1.953125 -1.015625 1.953125 -1.453125 L 1.953125 -7.625 L 0.5 -7.625 L 0.5 -8.828125 L 1.3125 -8.828125 C 1.613281 -8.828125 1.816406 -8.882812 1.921875 -9 C 2.035156 -9.125 2.09375 -9.332031 2.09375 -9.625 L 2.09375 -11.28125 L 3.3125 -11.28125 L 3.3125 -8.828125 L 5.25 -8.828125 L 5.25 -7.625 L 3.3125 -7.625 L 3.3125 -1.203125 L 5.109375 -1.203125 L 5.109375 0 Z M 3.40625 0 "/></g></g></g><g fill="#ffffff" fill-opacity="1"><g transform="translate(20.589363, 21.661708)"><g><path d="M 1.453125 -12.65625 L 2.828125 -12.65625 L 2.828125 -7.390625 L 2.890625 -7.390625 C 3.109375 -7.890625 3.410156 -8.285156 3.796875 -8.578125 C 4.191406 -8.878906 4.722656 -9.03125 5.390625 -9.03125 C 6.304688 -9.03125 7.023438 -8.734375 7.546875 -8.140625 C 8.078125 -7.554688 8.34375 -6.726562 8.34375 -5.65625 L 8.34375 0 L 6.984375 0 L 6.984375 -5.421875 C 6.984375 -7.003906 6.316406 -7.796875 4.984375 -7.796875 C 4.703125 -7.796875 4.429688 -7.757812 4.171875 -7.6875 C 3.921875 -7.625 3.691406 -7.523438 3.484375 -7.390625 C 3.285156 -7.253906 3.125 -7.078125 3 -6.859375 C 2.882812 -6.648438 2.828125 -6.40625 2.828125 -6.125 L 2.828125 0 L 1.453125 0 Z M 1.453125 -12.65625 "/></g></g></g><g fill="#ffffff" fill-opacity="1"><g transform="translate(30.311163, 21.661708)"><g><path d="M 7.875 0 C 7.351562 0 6.984375 -0.132812 6.765625 -0.40625 C 6.546875 -0.6875 6.40625 -1.03125 6.34375 -1.4375 L 6.265625 -1.4375 C 6.066406 -0.882812 5.742188 -0.472656 5.296875 -0.203125 C 4.859375 0.0664062 4.332031 0.203125 3.71875 0.203125 C 2.78125 0.203125 2.050781 -0.0351562 1.53125 -0.515625 C 1.007812 -0.992188 0.75 -1.644531 0.75 -2.46875 C 0.75 -3.300781 1.050781 -3.9375 1.65625 -4.375 C 2.269531 -4.820312 3.222656 -5.046875 4.515625 -5.046875 L 6.265625 -5.046875 L 6.265625 -5.921875 C 6.265625 -6.546875 6.09375 -7.023438 5.75 -7.359375 C 5.40625 -7.691406 4.878906 -7.859375 4.171875 -7.859375 C 3.640625 -7.859375 3.191406 -7.738281 2.828125 -7.5 C 2.472656 -7.257812 2.175781 -6.9375 1.9375 -6.53125 L 1.109375 -7.3125 C 1.347656 -7.789062 1.726562 -8.195312 2.25 -8.53125 C 2.78125 -8.863281 3.445312 -9.03125 4.25 -9.03125 C 5.3125 -9.03125 6.140625 -8.765625 6.734375 -8.234375 C 7.328125 -7.710938 7.625 -6.988281 7.625 -6.0625 L 7.625 -1.203125 L 8.640625 -1.203125 L 8.640625 0 Z M 3.9375 -0.953125 C 4.28125 -0.953125 4.59375 -0.992188 4.875 -1.078125 C 5.15625 -1.160156 5.398438 -1.273438 5.609375 -1.421875 C 5.816406 -1.566406 5.976562 -1.734375 6.09375 -1.921875 C 6.207031 -2.117188 6.265625 -2.332031 6.265625 -2.5625 L 6.265625 -4.015625 L 4.453125 -4.015625 C 3.660156 -4.015625 3.082031 -3.898438 2.71875 -3.671875 C 2.363281 -3.453125 2.1875 -3.125 2.1875 -2.6875 L 2.1875 -2.328125 C 2.1875 -1.890625 2.34375 -1.550781 2.65625 -1.3125 C 2.96875 -1.070312 3.394531 -0.953125 3.9375 -0.953125 Z M 3.9375 -0.953125 "/></g></g></g><g fill="#ffffff" fill-opacity="1"><g transform="translate(39.451021, 21.661708)"><g><path d="M 1.453125 0 L 1.453125 -8.828125 L 2.828125 -8.828125 L 2.828125 -7.390625 L 2.890625 -7.390625 C 3.109375 -7.890625 3.410156 -8.285156 3.796875 -8.578125 C 4.191406 -8.878906 4.722656 -9.03125 5.390625 -9.03125 C 6.304688 -9.03125 7.023438 -8.734375 7.546875 -8.140625 C 8.078125 -7.554688 8.34375 -6.726562 8.34375 -5.65625 L 8.34375 0 L 6.984375 0 L 6.984375 -5.421875 C 6.984375 -7.003906 6.316406 -7.796875 4.984375 -7.796875 C 4.703125 -7.796875 4.429688 -7.757812 4.171875 -7.6875 C 3.921875 -7.625 3.691406 -7.523438 3.484375 -7.390625 C 3.285156 -7.253906 3.125 -7.078125 3 -6.859375 C 2.882812 -6.648438 2.828125 -6.40625 2.828125 -6.125 L 2.828125 0 Z M 1.453125 0 "/></g></g></g><g fill="#ffffff" fill-opacity="1"><g transform="translate(49.172821, 21.661708)"><g><path d="M 0.53125 -8.828125 L 1.859375 -8.828125 L 2.8125 -5.015625 L 3.75 -1.140625 L 3.78125 -1.140625 L 4.859375 -5.015625 L 5.96875 -8.828125 L 7.1875 -8.828125 L 8.328125 -5.015625 L 9.421875 -1.140625 L 9.46875 -1.140625 L 10.375 -5.015625 L 11.328125 -8.828125 L 12.609375 -8.828125 L 10.265625 0 L 8.578125 0 L 7.34375 -4.25 L 6.5625 -6.921875 L 6.53125 -6.921875 L 5.78125 -4.25 L 4.546875 0 L 2.890625 0 Z M 0.53125 -8.828125 "/></g></g></g><g fill="#ffffff" fill-opacity="1"><g transform="translate(62.317788, 21.661708)"><g><path d="M 2.140625 -10.90625 C 1.835938 -10.90625 1.617188 -10.972656 1.484375 -11.109375 C 1.359375 -11.253906 1.296875 -11.441406 1.296875 -11.671875 L 1.296875 -11.890625 C 1.296875 -12.117188 1.359375 -12.300781 1.484375 -12.4375 C 1.617188 -12.582031 1.835938 -12.65625 2.140625 -12.65625 C 2.429688 -12.65625 2.644531 -12.582031 2.78125 -12.4375 C 2.914062 -12.300781 2.984375 -12.117188 2.984375 -11.890625 L 2.984375 -11.671875 C 2.984375 -11.441406 2.914062 -11.253906 2.78125 -11.109375 C 2.644531 -10.972656 2.429688 -10.90625 2.140625 -10.90625 Z M 1.453125 -8.828125 L 2.828125 -8.828125 L 2.828125 0 L 1.453125 0 Z M 1.453125 -8.828125 "/></g></g></g><g fill="#ffffff" fill-opacity="1"><g transform="translate(66.596746, 21.661708)"><g><path d="M 2.90625 0 C 2.425781 0 2.0625 -0.128906 1.8125 -0.390625 C 1.570312 -0.660156 1.453125 -1.003906 1.453125 -1.421875 L 1.453125 -12.65625 L 2.828125 -12.65625 L 2.828125 -1.203125 L 4.125 -1.203125 L 4.125 0 Z M 2.90625 0 "/></g></g></g><g fill="#ffffff" fill-opacity="1"><g transform="translate(71.252252, 21.661708)"><g><path d="M 2.90625 0 C 2.425781 0 2.0625 -0.128906 1.8125 -0.390625 C 1.570312 -0.660156 1.453125 -1.003906 1.453125 -1.421875 L 1.453125 -12.65625 L 2.828125 -12.65625 L 2.828125 -1.203125 L 4.125 -1.203125 L 4.125 0 Z M 2.90625 0 "/></g></g></g><g fill="#ffffff" fill-opacity="1"><g transform="translate(75.907757, 21.661708)"><g><path d="M 2.140625 -10.90625 C 1.835938 -10.90625 1.617188 -10.972656 1.484375 -11.109375 C 1.359375 -11.253906 1.296875 -11.441406 1.296875 -11.671875 L 1.296875 -11.890625 C 1.296875 -12.117188 1.359375 -12.300781 1.484375 -12.4375 C 1.617188 -12.582031 1.835938 -12.65625 2.140625 -12.65625 C 2.429688 -12.65625 2.644531 -12.582031 2.78125 -12.4375 C 2.914062 -12.300781 2.984375 -12.117188 2.984375 -11.890625 L 2.984375 -11.671875 C 2.984375 -11.441406 2.914062 -11.253906 2.78125 -11.109375 C 2.644531 -10.972656 2.429688 -10.90625 2.140625 -10.90625 Z M 1.453125 -8.828125 L 2.828125 -8.828125 L 2.828125 0 L 1.453125 0 Z M 1.453125 -8.828125 "/></g></g></g><g fill="#ffffff" fill-opacity="1"><g transform="translate(80.186716, 21.661708)"><g><path d="M 7.875 0 C 7.351562 0 6.984375 -0.132812 6.765625 -0.40625 C 6.546875 -0.6875 6.40625 -1.03125 6.34375 -1.4375 L 6.265625 -1.4375 C 6.066406 -0.882812 5.742188 -0.472656 5.296875 -0.203125 C 4.859375 0.0664062 4.332031 0.203125 3.71875 0.203125 C 2.78125 0.203125 2.050781 -0.0351562 1.53125 -0.515625 C 1.007812 -0.992188 0.75 -1.644531 0.75 -2.46875 C 0.75 -3.300781 1.050781 -3.9375 1.65625 -4.375 C 2.269531 -4.820312 3.222656 -5.046875 4.515625 -5.046875 L 6.265625 -5.046875 L 6.265625 -5.921875 C 6.265625 -6.546875 6.09375 -7.023438 5.75 -7.359375 C 5.40625 -7.691406 4.878906 -7.859375 4.171875 -7.859375 C 3.640625 -7.859375 3.191406 -7.738281 2.828125 -7.5 C 2.472656 -7.257812 2.175781 -6.9375 1.9375 -6.53125 L 1.109375 -7.3125 C 1.347656 -7.789062 1.726562 -8.195312 2.25 -8.53125 C 2.78125 -8.863281 3.445312 -9.03125 4.25 -9.03125 C 5.3125 -9.03125 6.140625 -8.765625 6.734375 -8.234375 C 7.328125 -7.710938 7.625 -6.988281 7.625 -6.0625 L 7.625 -1.203125 L 8.640625 -1.203125 L 8.640625 0 Z M 3.9375 -0.953125 C 4.28125 -0.953125 4.59375 -0.992188 4.875 -1.078125 C 5.15625 -1.160156 5.398438 -1.273438 5.609375 -1.421875 C 5.816406 -1.566406 5.976562 -1.734375 6.09375 -1.921875 C 6.207031 -2.117188 6.265625 -2.332031 6.265625 -2.5625 L 6.265625 -4.015625 L 4.453125 -4.015625 C 3.660156 -4.015625 3.082031 -3.898438 2.71875 -3.671875 C 2.363281 -3.453125 2.1875 -3.125 2.1875 -2.6875 L 2.1875 -2.328125 C 2.1875 -1.890625 2.34375 -1.550781 2.65625 -1.3125 C 2.96875 -1.070312 3.394531 -0.953125 3.9375 -0.953125 Z M 3.9375 -0.953125 "/></g></g></g><g fill="#ffffff" fill-opacity="1"><g transform="translate(89.326574, 21.661708)"><g><path d="M 1.453125 0 L 1.453125 -8.828125 L 2.828125 -8.828125 L 2.828125 -7.390625 L 2.890625 -7.390625 C 2.992188 -7.617188 3.109375 -7.832031 3.234375 -8.03125 C 3.367188 -8.226562 3.53125 -8.398438 3.71875 -8.546875 C 3.90625 -8.703125 4.125 -8.820312 4.375 -8.90625 C 4.625 -8.988281 4.921875 -9.03125 5.265625 -9.03125 C 5.847656 -9.03125 6.382812 -8.890625 6.875 -8.609375 C 7.363281 -8.335938 7.726562 -7.878906 7.96875 -7.234375 L 8 -7.234375 C 8.164062 -7.710938 8.46875 -8.128906 8.90625 -8.484375 C 9.34375 -8.847656 9.9375 -9.03125 10.6875 -9.03125 C 11.59375 -9.03125 12.296875 -8.734375 12.796875 -8.140625 C 13.304688 -7.554688 13.5625 -6.726562 13.5625 -5.65625 L 13.5625 0 L 12.203125 0 L 12.203125 -5.421875 C 12.203125 -6.210938 12.046875 -6.804688 11.734375 -7.203125 C 11.429688 -7.597656 10.941406 -7.796875 10.265625 -7.796875 C 9.992188 -7.796875 9.734375 -7.757812 9.484375 -7.6875 C 9.242188 -7.625 9.023438 -7.523438 8.828125 -7.390625 C 8.628906 -7.253906 8.472656 -7.078125 8.359375 -6.859375 C 8.253906 -6.648438 8.203125 -6.40625 8.203125 -6.125 L 8.203125 0 L 6.828125 0 L 6.828125 -5.421875 C 6.828125 -6.210938 6.671875 -6.804688 6.359375 -7.203125 C 6.054688 -7.597656 5.578125 -7.796875 4.921875 -7.796875 C 4.648438 -7.796875 4.390625 -7.757812 4.140625 -7.6875 C 3.890625 -7.625 3.664062 -7.523438 3.46875 -7.390625 C 3.28125 -7.253906 3.125 -7.078125 3 -6.859375 C 2.882812 -6.648438 2.828125 -6.40625 2.828125 -6.125 L 2.828125 0 Z M 1.453125 0 "/></g></g></g><g fill="#ffffff" fill-opacity="1"><g transform="translate(104.2687, 21.661708)"><g><path d="M 4.109375 0.203125 C 3.285156 0.203125 2.597656 0.046875 2.046875 -0.265625 C 1.492188 -0.578125 1.015625 -0.992188 0.609375 -1.515625 L 1.59375 -2.3125 C 1.9375 -1.875 2.316406 -1.535156 2.734375 -1.296875 C 3.160156 -1.066406 3.648438 -0.953125 4.203125 -0.953125 C 4.785156 -0.953125 5.238281 -1.078125 5.5625 -1.328125 C 5.894531 -1.585938 6.0625 -1.941406 6.0625 -2.390625 C 6.0625 -2.734375 5.945312 -3.023438 5.71875 -3.265625 C 5.5 -3.515625 5.097656 -3.6875 4.515625 -3.78125 L 3.8125 -3.890625 C 3.40625 -3.941406 3.03125 -4.023438 2.6875 -4.140625 C 2.34375 -4.265625 2.039062 -4.425781 1.78125 -4.625 C 1.53125 -4.820312 1.332031 -5.066406 1.1875 -5.359375 C 1.039062 -5.660156 0.96875 -6.019531 0.96875 -6.4375 C 0.96875 -6.863281 1.046875 -7.238281 1.203125 -7.5625 C 1.367188 -7.894531 1.59375 -8.164062 1.875 -8.375 C 2.15625 -8.59375 2.488281 -8.753906 2.875 -8.859375 C 3.257812 -8.972656 3.675781 -9.03125 4.125 -9.03125 C 4.84375 -9.03125 5.441406 -8.90625 5.921875 -8.65625 C 6.410156 -8.40625 6.835938 -8.054688 7.203125 -7.609375 L 6.296875 -6.796875 C 6.097656 -7.066406 5.8125 -7.3125 5.4375 -7.53125 C 5.0625 -7.757812 4.585938 -7.875 4.015625 -7.875 C 3.453125 -7.875 3.023438 -7.75 2.734375 -7.5 C 2.441406 -7.257812 2.296875 -6.925781 2.296875 -6.5 C 2.296875 -6.0625 2.441406 -5.742188 2.734375 -5.546875 C 3.023438 -5.359375 3.441406 -5.222656 3.984375 -5.140625 L 4.671875 -5.03125 C 5.648438 -4.882812 6.34375 -4.601562 6.75 -4.1875 C 7.164062 -3.769531 7.375 -3.222656 7.375 -2.546875 C 7.375 -1.691406 7.082031 -1.019531 6.5 -0.53125 C 5.914062 -0.0390625 5.117188 0.203125 4.109375 0.203125 Z M 4.109375 0.203125 "/></g></g></g><g fill="#ffffff" fill-opacity="1"><g transform="translate(112.604115, 21.661708)"><g><path d="M 2.328125 0.203125 C 1.960938 0.203125 1.695312 0.113281 1.53125 -0.0625 C 1.363281 -0.25 1.28125 -0.488281 1.28125 -0.78125 L 1.28125 -1.015625 C 1.28125 -1.304688 1.363281 -1.539062 1.53125 -1.71875 C 1.695312 -1.90625 1.960938 -2 2.328125 -2 C 2.691406 -2 2.957031 -1.90625 3.125 -1.71875 C 3.289062 -1.539062 3.375 -1.304688 3.375 -1.015625 L 3.375 -0.78125 C 3.375 -0.488281 3.289062 -0.25 3.125 -0.0625 C 2.957031 0.113281 2.691406 0.203125 2.328125 0.203125 Z M 2.328125 0.203125 "/></g></g></g><g fill="#ffffff" fill-opacity="1"><g transform="translate(117.259621, 21.661708)"><g><path d="M 3.40625 0 C 2.925781 0 2.5625 -0.128906 2.3125 -0.390625 C 2.070312 -0.660156 1.953125 -1.015625 1.953125 -1.453125 L 1.953125 -7.625 L 0.5 -7.625 L 0.5 -8.828125 L 1.3125 -8.828125 C 1.613281 -8.828125 1.816406 -8.882812 1.921875 -9 C 2.035156 -9.125 2.09375 -9.332031 2.09375 -9.625 L 2.09375 -11.28125 L 3.3125 -11.28125 L 3.3125 -8.828125 L 5.25 -8.828125 L 5.25 -7.625 L 3.3125 -7.625 L 3.3125 -1.203125 L 5.109375 -1.203125 L 5.109375 0 Z M 3.40625 0 "/></g></g></g><g fill="#ffffff" fill-opacity="1"><g transform="translate(123.267283, 21.661708)"><g><path d="M 4.78125 0.203125 C 4.164062 0.203125 3.613281 0.0976562 3.125 -0.109375 C 2.644531 -0.328125 2.234375 -0.640625 1.890625 -1.046875 C 1.546875 -1.453125 1.273438 -1.9375 1.078125 -2.5 C 0.890625 -3.070312 0.796875 -3.710938 0.796875 -4.421875 C 0.796875 -5.109375 0.890625 -5.738281 1.078125 -6.3125 C 1.273438 -6.882812 1.546875 -7.375 1.890625 -7.78125 C 2.234375 -8.1875 2.644531 -8.492188 3.125 -8.703125 C 3.613281 -8.921875 4.164062 -9.03125 4.78125 -9.03125 C 5.363281 -9.03125 5.890625 -8.921875 6.359375 -8.703125 C 6.828125 -8.492188 7.226562 -8.195312 7.5625 -7.8125 C 7.894531 -7.425781 8.148438 -6.96875 8.328125 -6.4375 C 8.503906 -5.914062 8.59375 -5.34375 8.59375 -4.71875 L 8.59375 -4.078125 L 2.234375 -4.078125 L 2.234375 -3.65625 C 2.234375 -3.28125 2.289062 -2.929688 2.40625 -2.609375 C 2.53125 -2.285156 2.703125 -2.003906 2.921875 -1.765625 C 3.148438 -1.523438 3.425781 -1.335938 3.75 -1.203125 C 4.082031 -1.066406 4.453125 -1 4.859375 -1 C 5.421875 -1 5.910156 -1.128906 6.328125 -1.390625 C 6.742188 -1.648438 7.0625 -2.023438 7.28125 -2.515625 L 8.265625 -1.8125 C 7.984375 -1.207031 7.535156 -0.71875 6.921875 -0.34375 C 6.316406 0.0195312 5.601562 0.203125 4.78125 0.203125 Z M 4.78125 -7.890625 C 4.394531 -7.890625 4.046875 -7.820312 3.734375 -7.6875 C 3.429688 -7.5625 3.171875 -7.378906 2.953125 -7.140625 C 2.734375 -6.898438 2.554688 -6.613281 2.421875 -6.28125 C 2.296875 -5.957031 2.234375 -5.601562 2.234375 -5.21875 L 2.234375 -5.09375 L 7.125 -5.09375 L 7.125 -5.28125 C 7.125 -6.070312 6.90625 -6.703125 6.46875 -7.171875 C 6.039062 -7.648438 5.476562 -7.890625 4.78125 -7.890625 Z M 4.78125 -7.890625 "/></g></g></g><g fill="#ffffff" fill-opacity="1"><g transform="translate(132.663885, 21.661708)"><g><path d="M 4.734375 0.203125 C 4.117188 0.203125 3.566406 0.0976562 3.078125 -0.109375 C 2.585938 -0.328125 2.171875 -0.632812 1.828125 -1.03125 C 1.492188 -1.4375 1.238281 -1.925781 1.0625 -2.5 C 0.882812 -3.070312 0.796875 -3.710938 0.796875 -4.421875 C 0.796875 -5.117188 0.882812 -5.753906 1.0625 -6.328125 C 1.238281 -6.898438 1.492188 -7.382812 1.828125 -7.78125 C 2.171875 -8.1875 2.585938 -8.492188 3.078125 -8.703125 C 3.566406 -8.921875 4.117188 -9.03125 4.734375 -9.03125 C 5.617188 -9.03125 6.320312 -8.835938 6.84375 -8.453125 C 7.375 -8.078125 7.773438 -7.582031 8.046875 -6.96875 L 6.890625 -6.375 C 6.734375 -6.832031 6.472656 -7.1875 6.109375 -7.4375 C 5.742188 -7.6875 5.285156 -7.8125 4.734375 -7.8125 C 4.328125 -7.8125 3.96875 -7.742188 3.65625 -7.609375 C 3.351562 -7.484375 3.097656 -7.300781 2.890625 -7.0625 C 2.679688 -6.832031 2.523438 -6.554688 2.421875 -6.234375 C 2.328125 -5.910156 2.28125 -5.554688 2.28125 -5.171875 L 2.28125 -3.65625 C 2.28125 -2.882812 2.488281 -2.25 2.90625 -1.75 C 3.320312 -1.257812 3.929688 -1.015625 4.734375 -1.015625 C 5.847656 -1.015625 6.648438 -1.523438 7.140625 -2.546875 L 8.125 -1.875 C 7.84375 -1.238281 7.414062 -0.734375 6.84375 -0.359375 C 6.28125 0.015625 5.578125 0.203125 4.734375 0.203125 Z M 4.734375 0.203125 "/></g></g></g><g fill="#ffffff" fill-opacity="1"><g transform="translate(141.27315, 21.661708)"><g><path d="M 1.453125 -12.65625 L 2.828125 -12.65625 L 2.828125 -7.390625 L 2.890625 -7.390625 C 3.109375 -7.890625 3.410156 -8.285156 3.796875 -8.578125 C 4.191406 -8.878906 4.722656 -9.03125 5.390625 -9.03125 C 6.304688 -9.03125 7.023438 -8.734375 7.546875 -8.140625 C 8.078125 -7.554688 8.34375 -6.726562 8.34375 -5.65625 L 8.34375 0 L 6.984375 0 L 6.984375 -5.421875 C 6.984375 -7.003906 6.316406 -7.796875 4.984375 -7.796875 C 4.703125 -7.796875 4.429688 -7.757812 4.171875 -7.6875 C 3.921875 -7.625 3.691406 -7.523438 3.484375 -7.390625 C 3.285156 -7.253906 3.125 -7.078125 3 -6.859375 C 2.882812 -6.648438 2.828125 -6.40625 2.828125 -6.125 L 2.828125 0 L 1.453125 0 Z M 1.453125 -12.65625 "/></g></g></g><g clip-path="url(#id1)"><path fill="#ff66c4" d="M 166.925781 15.5 L 166.925781 31.007812 L 153.640625 23.253906 L 153.640625 7.753906 L 166.925781 15.5 " fill-opacity="1" fill-rule="nonzero"/></g><g clip-path="url(#id2)"><path fill="#38b6ff" d="M 180.210938 7.753906 L 180.210938 23.253906 L 166.925781 31.007812 L 166.925781 15.5 L 180.210938 7.753906 " fill-opacity="1" fill-rule="nonzero"/></g><g clip-path="url(#id3)"><path fill="#ffde59" d="M 180.210938 7.753906 L 166.925781 15.5 L 153.640625 7.753906 L 166.925781 0 L 180.210938 7.753906 " fill-opacity="1" fill-rule="nonzero"/></g></svg>