<svg xmlns="http://www.w3.org/2000/svg" xmlns:xlink="http://www.w3.org/1999/xlink" width="303" zoomAndPan="magnify" viewBox="0 0 227.25 40.499999" height="54" preserveAspectRatio="xMidYMid meet" version="1.0"><defs><g><g id="id1"/></g><clipPath id="id2"><path d="M 20.78125 10 L 39 10 L 39 40.007812 L 20.78125 40.007812 Z M 20.78125 10 " clip-rule="nonzero"/></clipPath><clipPath id="id3"><path d="M 38.113281 10 L 55.597656 10 L 55.597656 40.007812 L 38.113281 40.007812 Z M 38.113281 10 " clip-rule="nonzero"/></clipPath><clipPath id="id4"><path d="M 20.785156 0 L 55.597656 0 L 55.597656 20 L 20.785156 20 Z M 20.785156 0 " clip-rule="nonzero"/></clipPath></defs><g clip-path="url(#id2)"><path fill="rgb(0%, 76.078796%, 79.60968%)" d="M 38.191406 19.996094 L 38.191406 40.007812 L 20.785156 30 L 20.785156 10.003906 L 38.191406 19.996094 " fill-opacity="1" fill-rule="nonzero"/></g><g clip-path="url(#id3)"><path fill="rgb(33.729553%, 100%, 81.959534%)" d="M 55.597656 10.003906 L 55.597656 30 L 38.191406 40.007812 L 38.191406 19.996094 L 55.597656 10.003906 " fill-opacity="1" fill-rule="nonzero"/></g><g clip-path="url(#id4)"><path fill="rgb(36.079407%, 88.238525%, 90.19928%)" d="M 55.597656 10.003906 L 38.191406 19.996094 L 20.785156 10.003906 L 38.191406 0 L 55.597656 10.003906 " fill-opacity="1" fill-rule="nonzero"/></g><g fill="rgb(33.729553%, 100%, 76.078796%)" fill-opacity="1"><g transform="translate(167.591836, 26.095774)"><g><path d="M 2.328125 0.203125 C 1.960938 0.203125 1.695312 0.113281 1.53125 -0.0625 C 1.363281 -0.25 1.28125 -0.488281 1.28125 -0.78125 L 1.28125 -1.015625 C 1.28125 -1.304688 1.363281 -1.539062 1.53125 -1.71875 C 1.695312 -1.90625 1.960938 -2 2.328125 -2 C 2.691406 -2 2.957031 -1.90625 3.125 -1.71875 C 3.289062 -1.539062 3.375 -1.304688 3.375 -1.015625 L 3.375 -0.78125 C 3.375 -0.488281 3.289062 -0.25 3.125 -0.0625 C 2.957031 0.113281 2.691406 0.203125 2.328125 0.203125 Z M 2.328125 0.203125 "/></g></g></g><g fill="rgb(33.729553%, 100%, 76.078796%)" fill-opacity="1"><g transform="translate(172.251954, 26.095774)"><g><path d="M 3.40625 0 C 2.925781 0 2.5625 -0.132812 2.3125 -0.40625 C 2.070312 -0.675781 1.953125 -1.023438 1.953125 -1.453125 L 1.953125 -7.640625 L 0.5 -7.640625 L 0.5 -8.84375 L 1.3125 -8.84375 C 1.613281 -8.84375 1.816406 -8.898438 1.921875 -9.015625 C 2.035156 -9.140625 2.09375 -9.351562 2.09375 -9.65625 L 2.09375 -11.296875 L 3.328125 -11.296875 L 3.328125 -8.84375 L 5.265625 -8.84375 L 5.265625 -7.640625 L 3.328125 -7.640625 L 3.328125 -1.203125 L 5.125 -1.203125 L 5.125 0 Z M 3.40625 0 "/></g></g></g><g fill="rgb(33.729553%, 100%, 76.078796%)" fill-opacity="1"><g transform="translate(178.265568, 26.095774)"><g><path d="M 4.78125 0.203125 C 4.175781 0.203125 3.628906 0.09375 3.140625 -0.125 C 2.660156 -0.34375 2.242188 -0.648438 1.890625 -1.046875 C 1.546875 -1.453125 1.28125 -1.9375 1.09375 -2.5 C 0.90625 -3.070312 0.8125 -3.710938 0.8125 -4.421875 C 0.8125 -5.117188 0.90625 -5.753906 1.09375 -6.328125 C 1.28125 -6.898438 1.546875 -7.390625 1.890625 -7.796875 C 2.242188 -8.203125 2.660156 -8.507812 3.140625 -8.71875 C 3.628906 -8.9375 4.175781 -9.046875 4.78125 -9.046875 C 5.375 -9.046875 5.90625 -8.9375 6.375 -8.71875 C 6.84375 -8.507812 7.242188 -8.210938 7.578125 -7.828125 C 7.910156 -7.441406 8.164062 -6.984375 8.34375 -6.453125 C 8.519531 -5.929688 8.609375 -5.359375 8.609375 -4.734375 L 8.609375 -4.078125 L 2.25 -4.078125 L 2.25 -3.671875 C 2.25 -3.296875 2.304688 -2.941406 2.421875 -2.609375 C 2.546875 -2.285156 2.71875 -2.003906 2.9375 -1.765625 C 3.164062 -1.523438 3.441406 -1.335938 3.765625 -1.203125 C 4.085938 -1.066406 4.457031 -1 4.875 -1 C 5.425781 -1 5.910156 -1.128906 6.328125 -1.390625 C 6.742188 -1.648438 7.066406 -2.023438 7.296875 -2.515625 L 8.28125 -1.8125 C 7.988281 -1.207031 7.539062 -0.71875 6.9375 -0.34375 C 6.332031 0.0195312 5.613281 0.203125 4.78125 0.203125 Z M 4.78125 -7.90625 C 4.40625 -7.90625 4.0625 -7.835938 3.75 -7.703125 C 3.445312 -7.566406 3.179688 -7.378906 2.953125 -7.140625 C 2.734375 -6.898438 2.5625 -6.617188 2.4375 -6.296875 C 2.3125 -5.972656 2.25 -5.617188 2.25 -5.234375 L 2.25 -5.109375 L 7.125 -5.109375 L 7.125 -5.296875 C 7.125 -6.085938 6.910156 -6.71875 6.484375 -7.1875 C 6.054688 -7.664062 5.488281 -7.90625 4.78125 -7.90625 Z M 4.78125 -7.90625 "/></g></g></g><g fill="rgb(33.729553%, 100%, 76.078796%)" fill-opacity="1"><g transform="translate(187.671479, 26.095774)"><g><path d="M 4.75 0.203125 C 4.132812 0.203125 3.578125 0.09375 3.078125 -0.125 C 2.585938 -0.34375 2.175781 -0.648438 1.84375 -1.046875 C 1.507812 -1.441406 1.253906 -1.925781 1.078125 -2.5 C 0.898438 -3.070312 0.8125 -3.710938 0.8125 -4.421875 C 0.8125 -5.128906 0.898438 -5.769531 1.078125 -6.34375 C 1.253906 -6.914062 1.507812 -7.398438 1.84375 -7.796875 C 2.175781 -8.203125 2.585938 -8.507812 3.078125 -8.71875 C 3.578125 -8.9375 4.132812 -9.046875 4.75 -9.046875 C 5.625 -9.046875 6.328125 -8.851562 6.859375 -8.46875 C 7.390625 -8.09375 7.789062 -7.59375 8.0625 -6.96875 L 6.90625 -6.390625 C 6.75 -6.847656 6.488281 -7.203125 6.125 -7.453125 C 5.757812 -7.703125 5.300781 -7.828125 4.75 -7.828125 C 4.332031 -7.828125 3.96875 -7.757812 3.65625 -7.625 C 3.351562 -7.5 3.097656 -7.316406 2.890625 -7.078125 C 2.691406 -6.847656 2.539062 -6.570312 2.4375 -6.25 C 2.332031 -5.925781 2.28125 -5.566406 2.28125 -5.171875 L 2.28125 -3.671875 C 2.28125 -2.890625 2.488281 -2.25 2.90625 -1.75 C 3.320312 -1.257812 3.9375 -1.015625 4.75 -1.015625 C 5.851562 -1.015625 6.648438 -1.523438 7.140625 -2.546875 L 8.140625 -1.890625 C 7.859375 -1.242188 7.429688 -0.734375 6.859375 -0.359375 C 6.296875 0.015625 5.59375 0.203125 4.75 0.203125 Z M 4.75 0.203125 "/></g></g></g><g fill="rgb(33.729553%, 100%, 76.078796%)" fill-opacity="1"><g transform="translate(196.289273, 26.095774)"><g><path d="M 1.453125 -12.6875 L 2.828125 -12.6875 L 2.828125 -7.40625 L 2.890625 -7.40625 C 3.109375 -7.90625 3.414062 -8.300781 3.8125 -8.59375 C 4.207031 -8.894531 4.738281 -9.046875 5.40625 -9.046875 C 6.3125 -9.046875 7.03125 -8.75 7.5625 -8.15625 C 8.09375 -7.570312 8.359375 -6.742188 8.359375 -5.671875 L 8.359375 0 L 7 0 L 7 -5.4375 C 7 -7.019531 6.328125 -7.8125 4.984375 -7.8125 C 4.710938 -7.8125 4.445312 -7.773438 4.1875 -7.703125 C 3.9375 -7.640625 3.707031 -7.539062 3.5 -7.40625 C 3.289062 -7.269531 3.125 -7.09375 3 -6.875 C 2.882812 -6.664062 2.828125 -6.421875 2.828125 -6.140625 L 2.828125 0 L 1.453125 0 Z M 1.453125 -12.6875 "/></g></g></g><g fill="rgb(100%, 100%, 100%)" fill-opacity="1"><g transform="translate(59.329592, 26.095774)"><g><path d="M 4.78125 0.203125 C 4.175781 0.203125 3.628906 0.09375 3.140625 -0.125 C 2.660156 -0.34375 2.242188 -0.648438 1.890625 -1.046875 C 1.546875 -1.453125 1.28125 -1.9375 1.09375 -2.5 C 0.90625 -3.070312 0.8125 -3.710938 0.8125 -4.421875 C 0.8125 -5.117188 0.90625 -5.753906 1.09375 -6.328125 C 1.28125 -6.898438 1.546875 -7.390625 1.890625 -7.796875 C 2.242188 -8.203125 2.660156 -8.507812 3.140625 -8.71875 C 3.628906 -8.9375 4.175781 -9.046875 4.78125 -9.046875 C 5.375 -9.046875 5.90625 -8.9375 6.375 -8.71875 C 6.84375 -8.507812 7.242188 -8.210938 7.578125 -7.828125 C 7.910156 -7.441406 8.164062 -6.984375 8.34375 -6.453125 C 8.519531 -5.929688 8.609375 -5.359375 8.609375 -4.734375 L 8.609375 -4.078125 L 2.25 -4.078125 L 2.25 -3.671875 C 2.25 -3.296875 2.304688 -2.941406 2.421875 -2.609375 C 2.546875 -2.285156 2.71875 -2.003906 2.9375 -1.765625 C 3.164062 -1.523438 3.441406 -1.335938 3.765625 -1.203125 C 4.085938 -1.066406 4.457031 -1 4.875 -1 C 5.425781 -1 5.910156 -1.128906 6.328125 -1.390625 C 6.742188 -1.648438 7.066406 -2.023438 7.296875 -2.515625 L 8.28125 -1.8125 C 7.988281 -1.207031 7.539062 -0.71875 6.9375 -0.34375 C 6.332031 0.0195312 5.613281 0.203125 4.78125 0.203125 Z M 4.78125 -7.90625 C 4.40625 -7.90625 4.0625 -7.835938 3.75 -7.703125 C 3.445312 -7.566406 3.179688 -7.378906 2.953125 -7.140625 C 2.734375 -6.898438 2.5625 -6.617188 2.4375 -6.296875 C 2.3125 -5.972656 2.25 -5.617188 2.25 -5.234375 L 2.25 -5.109375 L 7.125 -5.109375 L 7.125 -5.296875 C 7.125 -6.085938 6.910156 -6.71875 6.484375 -7.1875 C 6.054688 -7.664062 5.488281 -7.90625 4.78125 -7.90625 Z M 4.78125 -7.90625 "/></g></g></g><g fill="rgb(100%, 100%, 100%)" fill-opacity="1"><g transform="translate(68.735502, 26.095774)"><g><path d="M 3.40625 0 C 2.925781 0 2.5625 -0.132812 2.3125 -0.40625 C 2.070312 -0.675781 1.953125 -1.023438 1.953125 -1.453125 L 1.953125 -7.640625 L 0.5 -7.640625 L 0.5 -8.84375 L 1.3125 -8.84375 C 1.613281 -8.84375 1.816406 -8.898438 1.921875 -9.015625 C 2.035156 -9.140625 2.09375 -9.351562 2.09375 -9.65625 L 2.09375 -11.296875 L 3.328125 -11.296875 L 3.328125 -8.84375 L 5.265625 -8.84375 L 5.265625 -7.640625 L 3.328125 -7.640625 L 3.328125 -1.203125 L 5.125 -1.203125 L 5.125 0 Z M 3.40625 0 "/></g></g></g><g fill="rgb(100%, 100%, 100%)" fill-opacity="1"><g transform="translate(74.749117, 26.095774)"><g><path d="M 1.453125 -12.6875 L 2.828125 -12.6875 L 2.828125 -7.40625 L 2.890625 -7.40625 C 3.109375 -7.90625 3.414062 -8.300781 3.8125 -8.59375 C 4.207031 -8.894531 4.738281 -9.046875 5.40625 -9.046875 C 6.3125 -9.046875 7.03125 -8.75 7.5625 -8.15625 C 8.09375 -7.570312 8.359375 -6.742188 8.359375 -5.671875 L 8.359375 0 L 7 0 L 7 -5.4375 C 7 -7.019531 6.328125 -7.8125 4.984375 -7.8125 C 4.710938 -7.8125 4.445312 -7.773438 4.1875 -7.703125 C 3.9375 -7.640625 3.707031 -7.539062 3.5 -7.40625 C 3.289062 -7.269531 3.125 -7.09375 3 -6.875 C 2.882812 -6.664062 2.828125 -6.421875 2.828125 -6.140625 L 2.828125 0 L 1.453125 0 Z M 1.453125 -12.6875 "/></g></g></g><g fill="rgb(100%, 100%, 100%)" fill-opacity="1"><g transform="translate(84.480548, 26.095774)"><g><path d="M 7.890625 0 C 7.367188 0 6.992188 -0.132812 6.765625 -0.40625 C 6.546875 -0.6875 6.410156 -1.03125 6.359375 -1.4375 L 6.28125 -1.4375 C 6.082031 -0.882812 5.757812 -0.472656 5.3125 -0.203125 C 4.863281 0.0664062 4.332031 0.203125 3.71875 0.203125 C 2.78125 0.203125 2.050781 -0.0351562 1.53125 -0.515625 C 1.007812 -0.992188 0.75 -1.644531 0.75 -2.46875 C 0.75 -3.300781 1.054688 -3.941406 1.671875 -4.390625 C 2.285156 -4.835938 3.238281 -5.0625 4.53125 -5.0625 L 6.28125 -5.0625 L 6.28125 -5.9375 C 6.28125 -6.5625 6.109375 -7.039062 5.765625 -7.375 C 5.421875 -7.707031 4.894531 -7.875 4.1875 -7.875 C 3.644531 -7.875 3.191406 -7.75 2.828125 -7.5 C 2.472656 -7.257812 2.175781 -6.941406 1.9375 -6.546875 L 1.109375 -7.3125 C 1.347656 -7.789062 1.726562 -8.195312 2.25 -8.53125 C 2.78125 -8.875 3.445312 -9.046875 4.25 -9.046875 C 5.320312 -9.046875 6.15625 -8.78125 6.75 -8.25 C 7.34375 -7.726562 7.640625 -7 7.640625 -6.0625 L 7.640625 -1.203125 L 8.65625 -1.203125 L 8.65625 0 Z M 3.9375 -0.953125 C 4.28125 -0.953125 4.59375 -0.992188 4.875 -1.078125 C 5.164062 -1.160156 5.414062 -1.273438 5.625 -1.421875 C 5.832031 -1.566406 5.992188 -1.738281 6.109375 -1.9375 C 6.222656 -2.132812 6.28125 -2.347656 6.28125 -2.578125 L 6.28125 -4.03125 L 4.453125 -4.03125 C 3.671875 -4.03125 3.097656 -3.914062 2.734375 -3.6875 C 2.367188 -3.457031 2.1875 -3.125 2.1875 -2.6875 L 2.1875 -2.328125 C 2.1875 -1.898438 2.34375 -1.5625 2.65625 -1.3125 C 2.976562 -1.070312 3.40625 -0.953125 3.9375 -0.953125 Z M 3.9375 -0.953125 "/></g></g></g><g fill="rgb(100%, 100%, 100%)" fill-opacity="1"><g transform="translate(93.629462, 26.095774)"><g><path d="M 1.453125 0 L 1.453125 -8.84375 L 2.828125 -8.84375 L 2.828125 -7.40625 L 2.890625 -7.40625 C 3.109375 -7.90625 3.414062 -8.300781 3.8125 -8.59375 C 4.207031 -8.894531 4.738281 -9.046875 5.40625 -9.046875 C 6.3125 -9.046875 7.03125 -8.75 7.5625 -8.15625 C 8.09375 -7.570312 8.359375 -6.742188 8.359375 -5.671875 L 8.359375 0 L 7 0 L 7 -5.4375 C 7 -7.019531 6.328125 -7.8125 4.984375 -7.8125 C 4.710938 -7.8125 4.445312 -7.773438 4.1875 -7.703125 C 3.9375 -7.640625 3.707031 -7.539062 3.5 -7.40625 C 3.289062 -7.269531 3.125 -7.09375 3 -6.875 C 2.882812 -6.664062 2.828125 -6.421875 2.828125 -6.140625 L 2.828125 0 Z M 1.453125 0 "/></g></g></g><g fill="rgb(100%, 100%, 100%)" fill-opacity="1"><g transform="translate(103.360893, 26.095774)"><g><path d="M 0.53125 -8.84375 L 1.875 -8.84375 L 2.8125 -5.015625 L 3.75 -1.140625 L 3.78125 -1.140625 L 4.875 -5.015625 L 5.984375 -8.84375 L 7.203125 -8.84375 L 8.34375 -5.015625 L 9.4375 -1.140625 L 9.484375 -1.140625 L 10.390625 -5.015625 L 11.34375 -8.84375 L 12.625 -8.84375 L 10.28125 0 L 8.59375 0 L 7.359375 -4.25 L 6.578125 -6.9375 L 6.546875 -6.9375 L 5.796875 -4.25 L 4.5625 0 L 2.890625 0 Z M 0.53125 -8.84375 "/></g></g></g><g fill="rgb(100%, 100%, 100%)" fill-opacity="1"><g transform="translate(116.518883, 26.095774)"><g><path d="M 2.140625 -10.921875 C 1.847656 -10.921875 1.632812 -10.988281 1.5 -11.125 C 1.363281 -11.269531 1.296875 -11.457031 1.296875 -11.6875 L 1.296875 -11.90625 C 1.296875 -12.132812 1.363281 -12.320312 1.5 -12.46875 C 1.632812 -12.613281 1.847656 -12.6875 2.140625 -12.6875 C 2.441406 -12.6875 2.65625 -12.613281 2.78125 -12.46875 C 2.914062 -12.320312 2.984375 -12.132812 2.984375 -11.90625 L 2.984375 -11.6875 C 2.984375 -11.457031 2.914062 -11.269531 2.78125 -11.125 C 2.65625 -10.988281 2.441406 -10.921875 2.140625 -10.921875 Z M 1.453125 -8.84375 L 2.828125 -8.84375 L 2.828125 0 L 1.453125 0 Z M 1.453125 -8.84375 "/></g></g></g><g fill="rgb(100%, 100%, 100%)" fill-opacity="1"><g transform="translate(120.80208, 26.095774)"><g><path d="M 2.90625 0 C 2.425781 0 2.0625 -0.132812 1.8125 -0.40625 C 1.570312 -0.675781 1.453125 -1.015625 1.453125 -1.421875 L 1.453125 -12.6875 L 2.828125 -12.6875 L 2.828125 -1.203125 L 4.125 -1.203125 L 4.125 0 Z M 2.90625 0 "/></g></g></g><g fill="rgb(100%, 100%, 100%)" fill-opacity="1"><g transform="translate(125.462198, 26.095774)"><g><path d="M 2.90625 0 C 2.425781 0 2.0625 -0.132812 1.8125 -0.40625 C 1.570312 -0.675781 1.453125 -1.015625 1.453125 -1.421875 L 1.453125 -12.6875 L 2.828125 -12.6875 L 2.828125 -1.203125 L 4.125 -1.203125 L 4.125 0 Z M 2.90625 0 "/></g></g></g><g fill="rgb(100%, 100%, 100%)" fill-opacity="1"><g transform="translate(130.122315, 26.095774)"><g><path d="M 2.140625 -10.921875 C 1.847656 -10.921875 1.632812 -10.988281 1.5 -11.125 C 1.363281 -11.269531 1.296875 -11.457031 1.296875 -11.6875 L 1.296875 -11.90625 C 1.296875 -12.132812 1.363281 -12.320312 1.5 -12.46875 C 1.632812 -12.613281 1.847656 -12.6875 2.140625 -12.6875 C 2.441406 -12.6875 2.65625 -12.613281 2.78125 -12.46875 C 2.914062 -12.320312 2.984375 -12.132812 2.984375 -11.90625 L 2.984375 -11.6875 C 2.984375 -11.457031 2.914062 -11.269531 2.78125 -11.125 C 2.65625 -10.988281 2.441406 -10.921875 2.140625 -10.921875 Z M 1.453125 -8.84375 L 2.828125 -8.84375 L 2.828125 0 L 1.453125 0 Z M 1.453125 -8.84375 "/></g></g></g><g fill="rgb(100%, 100%, 100%)" fill-opacity="1"><g transform="translate(134.405513, 26.095774)"><g><path d="M 7.890625 0 C 7.367188 0 6.992188 -0.132812 6.765625 -0.40625 C 6.546875 -0.6875 6.410156 -1.03125 6.359375 -1.4375 L 6.28125 -1.4375 C 6.082031 -0.882812 5.757812 -0.472656 5.3125 -0.203125 C 4.863281 0.0664062 4.332031 0.203125 3.71875 0.203125 C 2.78125 0.203125 2.050781 -0.0351562 1.53125 -0.515625 C 1.007812 -0.992188 0.75 -1.644531 0.75 -2.46875 C 0.75 -3.300781 1.054688 -3.941406 1.671875 -4.390625 C 2.285156 -4.835938 3.238281 -5.0625 4.53125 -5.0625 L 6.28125 -5.0625 L 6.28125 -5.9375 C 6.28125 -6.5625 6.109375 -7.039062 5.765625 -7.375 C 5.421875 -7.707031 4.894531 -7.875 4.1875 -7.875 C 3.644531 -7.875 3.191406 -7.75 2.828125 -7.5 C 2.472656 -7.257812 2.175781 -6.941406 1.9375 -6.546875 L 1.109375 -7.3125 C 1.347656 -7.789062 1.726562 -8.195312 2.25 -8.53125 C 2.78125 -8.875 3.445312 -9.046875 4.25 -9.046875 C 5.320312 -9.046875 6.15625 -8.78125 6.75 -8.25 C 7.34375 -7.726562 7.640625 -7 7.640625 -6.0625 L 7.640625 -1.203125 L 8.65625 -1.203125 L 8.65625 0 Z M 3.9375 -0.953125 C 4.28125 -0.953125 4.59375 -0.992188 4.875 -1.078125 C 5.164062 -1.160156 5.414062 -1.273438 5.625 -1.421875 C 5.832031 -1.566406 5.992188 -1.738281 6.109375 -1.9375 C 6.222656 -2.132812 6.28125 -2.347656 6.28125 -2.578125 L 6.28125 -4.03125 L 4.453125 -4.03125 C 3.671875 -4.03125 3.097656 -3.914062 2.734375 -3.6875 C 2.367188 -3.457031 2.1875 -3.125 2.1875 -2.6875 L 2.1875 -2.328125 C 2.1875 -1.898438 2.34375 -1.5625 2.65625 -1.3125 C 2.976562 -1.070312 3.40625 -0.953125 3.9375 -0.953125 Z M 3.9375 -0.953125 "/></g></g></g><g fill="rgb(100%, 100%, 100%)" fill-opacity="1"><g transform="translate(143.554426, 26.095774)"><g><path d="M 1.453125 0 L 1.453125 -8.84375 L 2.828125 -8.84375 L 2.828125 -7.40625 L 2.890625 -7.40625 C 2.992188 -7.632812 3.109375 -7.847656 3.234375 -8.046875 C 3.367188 -8.242188 3.53125 -8.414062 3.71875 -8.5625 C 3.914062 -8.71875 4.140625 -8.835938 4.390625 -8.921875 C 4.640625 -9.003906 4.9375 -9.046875 5.28125 -9.046875 C 5.863281 -9.046875 6.398438 -8.90625 6.890625 -8.625 C 7.378906 -8.34375 7.742188 -7.882812 7.984375 -7.25 L 8.015625 -7.25 C 8.179688 -7.726562 8.484375 -8.144531 8.921875 -8.5 C 9.359375 -8.863281 9.957031 -9.046875 10.71875 -9.046875 C 11.613281 -9.046875 12.316406 -8.75 12.828125 -8.15625 C 13.335938 -7.570312 13.59375 -6.742188 13.59375 -5.671875 L 13.59375 0 L 12.21875 0 L 12.21875 -5.4375 C 12.21875 -6.21875 12.0625 -6.804688 11.75 -7.203125 C 11.445312 -7.609375 10.957031 -7.8125 10.28125 -7.8125 C 10.007812 -7.8125 9.75 -7.773438 9.5 -7.703125 C 9.257812 -7.640625 9.039062 -7.539062 8.84375 -7.40625 C 8.644531 -7.269531 8.488281 -7.09375 8.375 -6.875 C 8.257812 -6.664062 8.203125 -6.421875 8.203125 -6.140625 L 8.203125 0 L 6.84375 0 L 6.84375 -5.4375 C 6.84375 -6.21875 6.6875 -6.804688 6.375 -7.203125 C 6.0625 -7.609375 5.582031 -7.8125 4.9375 -7.8125 C 4.664062 -7.8125 4.398438 -7.773438 4.140625 -7.703125 C 3.890625 -7.640625 3.664062 -7.539062 3.46875 -7.40625 C 3.28125 -7.269531 3.125 -7.09375 3 -6.875 C 2.882812 -6.664062 2.828125 -6.421875 2.828125 -6.140625 L 2.828125 0 Z M 1.453125 0 "/></g></g></g><g fill="rgb(100%, 100%, 100%)" fill-opacity="1"><g transform="translate(158.511356, 26.095774)"><g><path d="M 4.109375 0.203125 C 3.285156 0.203125 2.597656 0.046875 2.046875 -0.265625 C 1.492188 -0.578125 1.015625 -1 0.609375 -1.53125 L 1.59375 -2.3125 C 1.9375 -1.875 2.316406 -1.535156 2.734375 -1.296875 C 3.160156 -1.066406 3.65625 -0.953125 4.21875 -0.953125 C 4.800781 -0.953125 5.253906 -1.078125 5.578125 -1.328125 C 5.898438 -1.585938 6.0625 -1.945312 6.0625 -2.40625 C 6.0625 -2.738281 5.953125 -3.03125 5.734375 -3.28125 C 5.515625 -3.53125 5.113281 -3.695312 4.53125 -3.78125 L 3.828125 -3.890625 C 3.410156 -3.953125 3.03125 -4.039062 2.6875 -4.15625 C 2.34375 -4.28125 2.039062 -4.441406 1.78125 -4.640625 C 1.53125 -4.835938 1.332031 -5.082031 1.1875 -5.375 C 1.050781 -5.675781 0.984375 -6.03125 0.984375 -6.4375 C 0.984375 -6.875 1.0625 -7.253906 1.21875 -7.578125 C 1.375 -7.910156 1.59375 -8.179688 1.875 -8.390625 C 2.15625 -8.609375 2.488281 -8.769531 2.875 -8.875 C 3.269531 -8.988281 3.6875 -9.046875 4.125 -9.046875 C 4.84375 -9.046875 5.445312 -8.921875 5.9375 -8.671875 C 6.425781 -8.421875 6.851562 -8.070312 7.21875 -7.625 L 6.3125 -6.8125 C 6.113281 -7.082031 5.828125 -7.328125 5.453125 -7.546875 C 5.078125 -7.773438 4.601562 -7.890625 4.03125 -7.890625 C 3.457031 -7.890625 3.023438 -7.765625 2.734375 -7.515625 C 2.441406 -7.265625 2.296875 -6.929688 2.296875 -6.515625 C 2.296875 -6.078125 2.441406 -5.757812 2.734375 -5.5625 C 3.023438 -5.375 3.445312 -5.234375 4 -5.140625 L 4.671875 -5.046875 C 5.660156 -4.890625 6.359375 -4.601562 6.765625 -4.1875 C 7.179688 -3.769531 7.390625 -3.222656 7.390625 -2.546875 C 7.390625 -1.691406 7.097656 -1.019531 6.515625 -0.53125 C 5.929688 -0.0390625 5.128906 0.203125 4.109375 0.203125 Z M 4.109375 0.203125 "/></g></g></g></svg>