<svg xmlns="http://www.w3.org/2000/svg" xmlns:xlink="http://www.w3.org/1999/xlink" width="137" zoomAndPan="magnify" viewBox="0 0 102.75 43.499998" height="58" preserveAspectRatio="xMidYMid meet" version="1.0"><defs><g/><clipPath id="id1"><path d="M 0.460938 10 L 20 10 L 20 43.003906 L 0.460938 43.003906 Z M 0.460938 10 " clip-rule="nonzero"/></clipPath><clipPath id="id2"><path d="M 19 10.730469 L 37.621094 10.730469 L 37.621094 43.003906 L 19 43.003906 Z M 19 10.730469 " clip-rule="nonzero"/></clipPath><clipPath id="id3"><path d="M 0.46875 0 L 37.621094 0 L 37.621094 21.554688 L 0.46875 21.554688 Z M 0.46875 0 " clip-rule="nonzero"/></clipPath></defs><g clip-path="url(#id1)"><path fill="#ff66c4" d="M 19.042969 21.546875 L 19.042969 43.109375 L 0.46875 32.328125 L 0.46875 10.78125 L 19.042969 21.546875 " fill-opacity="1" fill-rule="nonzero"/></g><g clip-path="url(#id2)"><path fill="#ffde59" d="M 37.621094 10.78125 L 37.621094 32.328125 L 19.042969 43.109375 L 19.042969 21.546875 L 37.621094 10.78125 " fill-opacity="1" fill-rule="nonzero"/></g><g clip-path="url(#id3)"><path fill="#38b6ff" d="M 37.621094 10.78125 L 19.042969 21.546875 L 0.46875 10.78125 L 19.042969 0 L 37.621094 10.78125 " fill-opacity="1" fill-rule="nonzero"/></g><g fill="#ffffff" fill-opacity="1"><g transform="translate(44.107462, 18.404813)"><g><path d="M 3.9375 0.171875 C 3.4375 0.171875 2.984375 0.0820312 2.578125 -0.09375 C 2.179688 -0.28125 1.835938 -0.539062 1.546875 -0.875 C 1.265625 -1.207031 1.046875 -1.601562 0.890625 -2.0625 C 0.734375 -2.53125 0.65625 -3.054688 0.65625 -3.640625 C 0.65625 -4.210938 0.734375 -4.734375 0.890625 -5.203125 C 1.046875 -5.679688 1.265625 -6.085938 1.546875 -6.421875 C 1.835938 -6.753906 2.179688 -7.007812 2.578125 -7.1875 C 2.984375 -7.363281 3.4375 -7.453125 3.9375 -7.453125 C 4.425781 -7.453125 4.863281 -7.363281 5.25 -7.1875 C 5.632812 -7.007812 5.960938 -6.757812 6.234375 -6.4375 C 6.515625 -6.125 6.726562 -5.75 6.875 -5.3125 C 7.019531 -4.882812 7.09375 -4.414062 7.09375 -3.90625 L 7.09375 -3.359375 L 1.84375 -3.359375 L 1.84375 -3.015625 C 1.84375 -2.710938 1.890625 -2.425781 1.984375 -2.15625 C 2.085938 -1.882812 2.234375 -1.648438 2.421875 -1.453125 C 2.609375 -1.253906 2.832031 -1.097656 3.09375 -0.984375 C 3.363281 -0.867188 3.671875 -0.8125 4.015625 -0.8125 C 4.472656 -0.8125 4.875 -0.921875 5.21875 -1.140625 C 5.5625 -1.359375 5.828125 -1.671875 6.015625 -2.078125 L 6.828125 -1.5 C 6.585938 -1 6.21875 -0.59375 5.71875 -0.28125 C 5.21875 0.0195312 4.625 0.171875 3.9375 0.171875 Z M 3.9375 -6.515625 C 3.625 -6.515625 3.34375 -6.457031 3.09375 -6.34375 C 2.84375 -6.238281 2.625 -6.085938 2.4375 -5.890625 C 2.25 -5.691406 2.101562 -5.457031 2 -5.1875 C 1.894531 -4.914062 1.84375 -4.625 1.84375 -4.3125 L 1.84375 -4.203125 L 5.875 -4.203125 L 5.875 -4.359375 C 5.875 -5.015625 5.695312 -5.535156 5.34375 -5.921875 C 4.988281 -6.316406 4.519531 -6.515625 3.9375 -6.515625 Z M 3.9375 -6.515625 "/></g></g></g><g fill="#ffffff" fill-opacity="1"><g transform="translate(51.859908, 18.404813)"><g><path d="M 2.8125 0 C 2.414062 0 2.113281 -0.109375 1.90625 -0.328125 C 1.707031 -0.546875 1.609375 -0.835938 1.609375 -1.203125 L 1.609375 -6.296875 L 0.40625 -6.296875 L 0.40625 -7.28125 L 1.09375 -7.28125 C 1.332031 -7.28125 1.492188 -7.328125 1.578125 -7.421875 C 1.671875 -7.523438 1.71875 -7.703125 1.71875 -7.953125 L 1.71875 -9.3125 L 2.734375 -9.3125 L 2.734375 -7.28125 L 4.34375 -7.28125 L 4.34375 -6.296875 L 2.734375 -6.296875 L 2.734375 -0.984375 L 4.21875 -0.984375 L 4.21875 0 Z M 2.8125 0 "/></g></g></g><g fill="#ffffff" fill-opacity="1"><g transform="translate(56.816388, 18.404813)"><g><path d="M 1.203125 -10.453125 L 2.328125 -10.453125 L 2.328125 -6.109375 L 2.390625 -6.109375 C 2.566406 -6.515625 2.816406 -6.835938 3.140625 -7.078125 C 3.460938 -7.328125 3.898438 -7.453125 4.453125 -7.453125 C 5.203125 -7.453125 5.796875 -7.207031 6.234375 -6.71875 C 6.671875 -6.238281 6.890625 -5.554688 6.890625 -4.671875 L 6.890625 0 L 5.765625 0 L 5.765625 -4.484375 C 5.765625 -5.785156 5.210938 -6.4375 4.109375 -6.4375 C 3.878906 -6.4375 3.660156 -6.40625 3.453125 -6.34375 C 3.242188 -6.289062 3.050781 -6.207031 2.875 -6.09375 C 2.707031 -5.988281 2.570312 -5.847656 2.46875 -5.671875 C 2.375 -5.492188 2.328125 -5.289062 2.328125 -5.0625 L 2.328125 0 L 1.203125 0 Z M 1.203125 -10.453125 "/></g></g></g><g fill="#ffffff" fill-opacity="1"><g transform="translate(64.837128, 18.404813)"><g><path d="M 6.5 0 C 6.070312 0 5.765625 -0.109375 5.578125 -0.328125 C 5.398438 -0.554688 5.285156 -0.84375 5.234375 -1.1875 L 5.171875 -1.1875 C 5.003906 -0.738281 4.738281 -0.398438 4.375 -0.171875 C 4.007812 0.0546875 3.570312 0.171875 3.0625 0.171875 C 2.289062 0.171875 1.691406 -0.0234375 1.265625 -0.421875 C 0.835938 -0.816406 0.625 -1.351562 0.625 -2.03125 C 0.625 -2.71875 0.875 -3.242188 1.375 -3.609375 C 1.882812 -3.984375 2.671875 -4.171875 3.734375 -4.171875 L 5.171875 -4.171875 L 5.171875 -4.890625 C 5.171875 -5.410156 5.03125 -5.804688 4.75 -6.078125 C 4.46875 -6.347656 4.035156 -6.484375 3.453125 -6.484375 C 3.003906 -6.484375 2.628906 -6.382812 2.328125 -6.1875 C 2.035156 -5.988281 1.789062 -5.722656 1.59375 -5.390625 L 0.921875 -6.03125 C 1.117188 -6.425781 1.429688 -6.757812 1.859375 -7.03125 C 2.296875 -7.3125 2.84375 -7.453125 3.5 -7.453125 C 4.382812 -7.453125 5.070312 -7.234375 5.5625 -6.796875 C 6.050781 -6.367188 6.296875 -5.769531 6.296875 -5 L 6.296875 -0.984375 L 7.140625 -0.984375 L 7.140625 0 Z M 3.25 -0.796875 C 3.53125 -0.796875 3.785156 -0.828125 4.015625 -0.890625 C 4.253906 -0.953125 4.457031 -1.046875 4.625 -1.171875 C 4.800781 -1.296875 4.9375 -1.4375 5.03125 -1.59375 C 5.125 -1.757812 5.171875 -1.9375 5.171875 -2.125 L 5.171875 -3.3125 L 3.671875 -3.3125 C 3.023438 -3.3125 2.550781 -3.21875 2.25 -3.03125 C 1.957031 -2.84375 1.8125 -2.570312 1.8125 -2.21875 L 1.8125 -1.921875 C 1.8125 -1.566406 1.9375 -1.289062 2.1875 -1.09375 C 2.445312 -0.894531 2.800781 -0.796875 3.25 -0.796875 Z M 3.25 -0.796875 "/></g></g></g><g fill="#ffffff" fill-opacity="1"><g transform="translate(72.377757, 18.404813)"><g><path d="M 1.203125 0 L 1.203125 -7.28125 L 2.328125 -7.28125 L 2.328125 -6.109375 L 2.390625 -6.109375 C 2.566406 -6.515625 2.816406 -6.835938 3.140625 -7.078125 C 3.460938 -7.328125 3.898438 -7.453125 4.453125 -7.453125 C 5.203125 -7.453125 5.796875 -7.207031 6.234375 -6.71875 C 6.671875 -6.238281 6.890625 -5.554688 6.890625 -4.671875 L 6.890625 0 L 5.765625 0 L 5.765625 -4.484375 C 5.765625 -5.785156 5.210938 -6.4375 4.109375 -6.4375 C 3.878906 -6.4375 3.660156 -6.40625 3.453125 -6.34375 C 3.242188 -6.289062 3.050781 -6.207031 2.875 -6.09375 C 2.707031 -5.988281 2.570312 -5.847656 2.46875 -5.671875 C 2.375 -5.492188 2.328125 -5.289062 2.328125 -5.0625 L 2.328125 0 Z M 1.203125 0 "/></g></g></g><g fill="#ffffff" fill-opacity="1"><g transform="translate(43.211776, 33.418778)"><g><path d="M 0.4375 -7.28125 L 1.546875 -7.28125 L 2.3125 -4.140625 L 3.09375 -0.953125 L 3.125 -0.953125 L 4.015625 -4.140625 L 4.921875 -7.28125 L 5.9375 -7.28125 L 6.875 -4.140625 L 7.78125 -0.953125 L 7.8125 -0.953125 L 8.5625 -4.140625 L 9.34375 -7.28125 L 10.40625 -7.28125 L 8.46875 0 L 7.078125 0 L 6.0625 -3.5 L 5.421875 -5.71875 L 5.390625 -5.71875 L 4.78125 -3.5 L 3.75 0 L 2.390625 0 Z M 0.4375 -7.28125 "/></g></g></g><g fill="#ffffff" fill-opacity="1"><g transform="translate(54.056725, 33.418778)"><g><path d="M 1.765625 -9 C 1.515625 -9 1.335938 -9.054688 1.234375 -9.171875 C 1.128906 -9.285156 1.078125 -9.441406 1.078125 -9.640625 L 1.078125 -9.8125 C 1.078125 -10 1.128906 -10.148438 1.234375 -10.265625 C 1.335938 -10.390625 1.515625 -10.453125 1.765625 -10.453125 C 2.015625 -10.453125 2.191406 -10.390625 2.296875 -10.265625 C 2.398438 -10.148438 2.453125 -10 2.453125 -9.8125 L 2.453125 -9.640625 C 2.453125 -9.441406 2.398438 -9.285156 2.296875 -9.171875 C 2.191406 -9.054688 2.015625 -9 1.765625 -9 Z M 1.203125 -7.28125 L 2.328125 -7.28125 L 2.328125 0 L 1.203125 0 Z M 1.203125 -7.28125 "/></g></g></g><g fill="#ffffff" fill-opacity="1"><g transform="translate(57.586979, 33.418778)"><g><path d="M 2.40625 0 C 2.007812 0 1.707031 -0.109375 1.5 -0.328125 C 1.300781 -0.546875 1.203125 -0.828125 1.203125 -1.171875 L 1.203125 -10.453125 L 2.328125 -10.453125 L 2.328125 -0.984375 L 3.40625 -0.984375 L 3.40625 0 Z M 2.40625 0 "/></g></g></g><g fill="#ffffff" fill-opacity="1"><g transform="translate(61.427895, 33.418778)"><g><path d="M 2.40625 0 C 2.007812 0 1.707031 -0.109375 1.5 -0.328125 C 1.300781 -0.546875 1.203125 -0.828125 1.203125 -1.171875 L 1.203125 -10.453125 L 2.328125 -10.453125 L 2.328125 -0.984375 L 3.40625 -0.984375 L 3.40625 0 Z M 2.40625 0 "/></g></g></g><g fill="#ffffff" fill-opacity="1"><g transform="translate(65.268812, 33.418778)"><g><path d="M 1.765625 -9 C 1.515625 -9 1.335938 -9.054688 1.234375 -9.171875 C 1.128906 -9.285156 1.078125 -9.441406 1.078125 -9.640625 L 1.078125 -9.8125 C 1.078125 -10 1.128906 -10.148438 1.234375 -10.265625 C 1.335938 -10.390625 1.515625 -10.453125 1.765625 -10.453125 C 2.015625 -10.453125 2.191406 -10.390625 2.296875 -10.265625 C 2.398438 -10.148438 2.453125 -10 2.453125 -9.8125 L 2.453125 -9.640625 C 2.453125 -9.441406 2.398438 -9.285156 2.296875 -9.171875 C 2.191406 -9.054688 2.015625 -9 1.765625 -9 Z M 1.203125 -7.28125 L 2.328125 -7.28125 L 2.328125 0 L 1.203125 0 Z M 1.203125 -7.28125 "/></g></g></g><g fill="#ffffff" fill-opacity="1"><g transform="translate(68.799065, 33.418778)"><g><path d="M 6.5 0 C 6.070312 0 5.765625 -0.109375 5.578125 -0.328125 C 5.398438 -0.554688 5.285156 -0.84375 5.234375 -1.1875 L 5.171875 -1.1875 C 5.003906 -0.738281 4.738281 -0.398438 4.375 -0.171875 C 4.007812 0.0546875 3.570312 0.171875 3.0625 0.171875 C 2.289062 0.171875 1.691406 -0.0234375 1.265625 -0.421875 C 0.835938 -0.816406 0.625 -1.351562 0.625 -2.03125 C 0.625 -2.71875 0.875 -3.242188 1.375 -3.609375 C 1.882812 -3.984375 2.671875 -4.171875 3.734375 -4.171875 L 5.171875 -4.171875 L 5.171875 -4.890625 C 5.171875 -5.410156 5.03125 -5.804688 4.75 -6.078125 C 4.46875 -6.347656 4.035156 -6.484375 3.453125 -6.484375 C 3.003906 -6.484375 2.628906 -6.382812 2.328125 -6.1875 C 2.035156 -5.988281 1.789062 -5.722656 1.59375 -5.390625 L 0.921875 -6.03125 C 1.117188 -6.425781 1.429688 -6.757812 1.859375 -7.03125 C 2.296875 -7.3125 2.84375 -7.453125 3.5 -7.453125 C 4.382812 -7.453125 5.070312 -7.234375 5.5625 -6.796875 C 6.050781 -6.367188 6.296875 -5.769531 6.296875 -5 L 6.296875 -0.984375 L 7.140625 -0.984375 L 7.140625 0 Z M 3.25 -0.796875 C 3.53125 -0.796875 3.785156 -0.828125 4.015625 -0.890625 C 4.253906 -0.953125 4.457031 -1.046875 4.625 -1.171875 C 4.800781 -1.296875 4.9375 -1.4375 5.03125 -1.59375 C 5.125 -1.757812 5.171875 -1.9375 5.171875 -2.125 L 5.171875 -3.3125 L 3.671875 -3.3125 C 3.023438 -3.3125 2.550781 -3.21875 2.25 -3.03125 C 1.957031 -2.84375 1.8125 -2.570312 1.8125 -2.21875 L 1.8125 -1.921875 C 1.8125 -1.566406 1.9375 -1.289062 2.1875 -1.09375 C 2.445312 -0.894531 2.800781 -0.796875 3.25 -0.796875 Z M 3.25 -0.796875 "/></g></g></g><g fill="#ffffff" fill-opacity="1"><g transform="translate(76.339694, 33.418778)"><g><path d="M 1.203125 0 L 1.203125 -7.28125 L 2.328125 -7.28125 L 2.328125 -6.109375 L 2.390625 -6.109375 C 2.472656 -6.296875 2.566406 -6.46875 2.671875 -6.625 C 2.785156 -6.789062 2.921875 -6.9375 3.078125 -7.0625 C 3.234375 -7.1875 3.410156 -7.28125 3.609375 -7.34375 C 3.816406 -7.414062 4.0625 -7.453125 4.34375 -7.453125 C 4.832031 -7.453125 5.273438 -7.335938 5.671875 -7.109375 C 6.078125 -6.878906 6.378906 -6.5 6.578125 -5.96875 L 6.609375 -5.96875 C 6.742188 -6.363281 6.988281 -6.707031 7.34375 -7 C 7.707031 -7.300781 8.203125 -7.453125 8.828125 -7.453125 C 9.566406 -7.453125 10.144531 -7.207031 10.5625 -6.71875 C 10.988281 -6.238281 11.203125 -5.554688 11.203125 -4.671875 L 11.203125 0 L 10.078125 0 L 10.078125 -4.484375 C 10.078125 -5.128906 9.945312 -5.613281 9.6875 -5.9375 C 9.4375 -6.269531 9.03125 -6.4375 8.46875 -6.4375 C 8.25 -6.4375 8.035156 -6.40625 7.828125 -6.34375 C 7.628906 -6.289062 7.445312 -6.207031 7.28125 -6.09375 C 7.125 -5.988281 7 -5.847656 6.90625 -5.671875 C 6.8125 -5.492188 6.765625 -5.289062 6.765625 -5.0625 L 6.765625 0 L 5.640625 0 L 5.640625 -4.484375 C 5.640625 -5.128906 5.507812 -5.613281 5.25 -5.9375 C 5 -6.269531 4.601562 -6.4375 4.0625 -6.4375 C 3.84375 -6.4375 3.628906 -6.40625 3.421875 -6.34375 C 3.210938 -6.289062 3.023438 -6.207031 2.859375 -6.09375 C 2.703125 -5.988281 2.570312 -5.847656 2.46875 -5.671875 C 2.375 -5.492188 2.328125 -5.289062 2.328125 -5.0625 L 2.328125 0 Z M 1.203125 0 "/></g></g></g><g fill="#ffffff" fill-opacity="1"><g transform="translate(88.667356, 33.418778)"><g><path d="M 3.390625 0.171875 C 2.710938 0.171875 2.144531 0.0390625 1.6875 -0.21875 C 1.226562 -0.476562 0.835938 -0.820312 0.515625 -1.25 L 1.3125 -1.90625 C 1.59375 -1.550781 1.90625 -1.273438 2.25 -1.078125 C 2.601562 -0.890625 3.007812 -0.796875 3.46875 -0.796875 C 3.945312 -0.796875 4.320312 -0.894531 4.59375 -1.09375 C 4.863281 -1.300781 5 -1.597656 5 -1.984375 C 5 -2.265625 4.90625 -2.503906 4.71875 -2.703125 C 4.539062 -2.910156 4.210938 -3.050781 3.734375 -3.125 L 3.15625 -3.203125 C 2.8125 -3.253906 2.5 -3.328125 2.21875 -3.421875 C 1.9375 -3.523438 1.6875 -3.65625 1.46875 -3.8125 C 1.257812 -3.976562 1.097656 -4.179688 0.984375 -4.421875 C 0.867188 -4.671875 0.8125 -4.96875 0.8125 -5.3125 C 0.8125 -5.664062 0.875 -5.976562 1 -6.25 C 1.132812 -6.519531 1.316406 -6.742188 1.546875 -6.921875 C 1.773438 -7.097656 2.050781 -7.226562 2.375 -7.3125 C 2.695312 -7.40625 3.039062 -7.453125 3.40625 -7.453125 C 4 -7.453125 4.492188 -7.347656 4.890625 -7.140625 C 5.296875 -6.941406 5.648438 -6.65625 5.953125 -6.28125 L 5.203125 -5.609375 C 5.035156 -5.835938 4.796875 -6.039062 4.484375 -6.21875 C 4.179688 -6.40625 3.789062 -6.5 3.3125 -6.5 C 2.84375 -6.5 2.488281 -6.394531 2.25 -6.1875 C 2.007812 -5.988281 1.890625 -5.71875 1.890625 -5.375 C 1.890625 -5.007812 2.007812 -4.742188 2.25 -4.578125 C 2.488281 -4.421875 2.835938 -4.304688 3.296875 -4.234375 L 3.859375 -4.15625 C 4.671875 -4.03125 5.242188 -3.796875 5.578125 -3.453125 C 5.921875 -3.109375 6.09375 -2.660156 6.09375 -2.109375 C 6.09375 -1.398438 5.847656 -0.84375 5.359375 -0.4375 C 4.878906 -0.03125 4.222656 0.171875 3.390625 0.171875 Z M 3.390625 0.171875 "/></g></g></g></svg>