<svg xmlns="http://www.w3.org/2000/svg" xmlns:xlink="http://www.w3.org/1999/xlink" width="237" zoomAndPan="magnify" viewBox="0 0 177.75 177.749994" height="237" preserveAspectRatio="xMidYMid meet" version="1.0"><defs><g/><clipPath id="id1"><path d="M 0 0 L 177.5 0 L 177.5 177.5 L 0 177.5 Z M 0 0 " clip-rule="nonzero"/></clipPath><clipPath id="id2"><path d="M 63.914062 63 L 89 63 L 89 106.882812 L 63.914062 106.882812 Z M 63.914062 63 " clip-rule="nonzero"/></clipPath><clipPath id="id3"><path d="M 88.554688 63.507812 L 113.410156 63.507812 L 113.410156 106.882812 L 88.554688 106.882812 Z M 88.554688 63.507812 " clip-rule="nonzero"/></clipPath><clipPath id="id4"><path d="M 63.917969 49.132812 L 113.410156 49.132812 L 113.410156 78 L 63.917969 78 Z M 63.917969 49.132812 " clip-rule="nonzero"/></clipPath></defs><g clip-path="url(#id1)"><path fill="#737373" d="M 129.632812 0.0351562 L 48.117188 0.0351562 C 21.59375 0.0351562 0 21.59375 0 48.152344 L 0 129.597656 C 0 156.121094 21.59375 177.714844 48.117188 177.714844 L 129.632812 177.714844 C 156.15625 177.714844 177.75 156.121094 177.75 129.597656 L 177.75 48.152344 C 177.75 21.59375 156.15625 0.0351562 129.632812 0.0351562 Z M 129.632812 0.0351562 " fill-opacity="1" fill-rule="nonzero"/></g><g clip-path="url(#id2)"><path fill="#5ce1e6" d="M 88.664062 78 L 88.664062 106.882812 L 63.917969 92.441406 L 63.917969 63.578125 L 88.664062 78 " fill-opacity="1" fill-rule="nonzero"/></g><g clip-path="url(#id3)"><path fill="#ffde59" d="M 113.410156 63.578125 L 113.410156 92.441406 L 88.664062 106.882812 L 88.664062 78 L 113.410156 63.578125 " fill-opacity="1" fill-rule="nonzero"/></g><g clip-path="url(#id4)"><path fill="#ff5757" d="M 113.410156 63.578125 L 88.664062 78 L 63.917969 63.578125 L 88.664062 49.132812 L 113.410156 63.578125 " fill-opacity="1" fill-rule="nonzero"/></g><g fill="#ffffff" fill-opacity="1"><g transform="translate(69.431016, 141.507987)"><g><path d="M 1.296875 -11.234375 L 2.5 -11.234375 L 2.5 -6.5625 L 2.5625 -6.5625 C 2.757812 -7.007812 3.03125 -7.363281 3.375 -7.625 C 3.726562 -7.882812 4.195312 -8.015625 4.78125 -8.015625 C 5.59375 -8.015625 6.234375 -7.753906 6.703125 -7.234375 C 7.171875 -6.710938 7.40625 -5.976562 7.40625 -5.03125 L 7.40625 0 L 6.203125 0 L 6.203125 -4.8125 C 6.203125 -6.21875 5.609375 -6.921875 4.421875 -6.921875 C 4.179688 -6.921875 3.945312 -6.890625 3.71875 -6.828125 C 3.488281 -6.773438 3.28125 -6.6875 3.09375 -6.5625 C 2.914062 -6.4375 2.769531 -6.28125 2.65625 -6.09375 C 2.550781 -5.90625 2.5 -5.6875 2.5 -5.4375 L 2.5 0 L 1.296875 0 Z M 1.296875 -11.234375 "/></g></g></g><g fill="#ffffff" fill-opacity="1"><g transform="translate(78.057549, 141.507987)"><g><path d="M 4.25 0.1875 C 3.726562 0.1875 3.25 0.09375 2.8125 -0.09375 C 2.375 -0.289062 2 -0.566406 1.6875 -0.921875 C 1.382812 -1.285156 1.144531 -1.71875 0.96875 -2.21875 C 0.800781 -2.726562 0.71875 -3.296875 0.71875 -3.921875 C 0.71875 -4.535156 0.800781 -5.09375 0.96875 -5.59375 C 1.144531 -6.101562 1.382812 -6.535156 1.6875 -6.890625 C 2 -7.253906 2.375 -7.53125 2.8125 -7.71875 C 3.25 -7.914062 3.726562 -8.015625 4.25 -8.015625 C 4.78125 -8.015625 5.257812 -7.914062 5.6875 -7.71875 C 6.113281 -7.53125 6.484375 -7.253906 6.796875 -6.890625 C 7.117188 -6.535156 7.363281 -6.101562 7.53125 -5.59375 C 7.707031 -5.09375 7.796875 -4.535156 7.796875 -3.921875 C 7.796875 -3.296875 7.707031 -2.726562 7.53125 -2.21875 C 7.363281 -1.71875 7.117188 -1.285156 6.796875 -0.921875 C 6.484375 -0.566406 6.113281 -0.289062 5.6875 -0.09375 C 5.257812 0.09375 4.78125 0.1875 4.25 0.1875 Z M 4.25 -0.890625 C 4.90625 -0.890625 5.441406 -1.09375 5.859375 -1.5 C 6.273438 -1.90625 6.484375 -2.523438 6.484375 -3.359375 L 6.484375 -4.484375 C 6.484375 -5.304688 6.273438 -5.921875 5.859375 -6.328125 C 5.441406 -6.734375 4.90625 -6.9375 4.25 -6.9375 C 3.59375 -6.9375 3.054688 -6.734375 2.640625 -6.328125 C 2.222656 -5.921875 2.015625 -5.304688 2.015625 -4.484375 L 2.015625 -3.359375 C 2.015625 -2.523438 2.222656 -1.90625 2.640625 -1.5 C 3.054688 -1.09375 3.59375 -0.890625 4.25 -0.890625 Z M 4.25 -0.890625 "/></g></g></g><g fill="#ffffff" fill-opacity="1"><g transform="translate(86.562579, 141.507987)"><g><path d="M 1.296875 0 L 1.296875 -7.84375 L 2.5 -7.84375 L 2.5 -6.5625 L 2.5625 -6.5625 C 2.65625 -6.757812 2.757812 -6.945312 2.875 -7.125 C 2.988281 -7.300781 3.128906 -7.457031 3.296875 -7.59375 C 3.460938 -7.726562 3.65625 -7.832031 3.875 -7.90625 C 4.101562 -7.976562 4.367188 -8.015625 4.671875 -8.015625 C 5.191406 -8.015625 5.671875 -7.890625 6.109375 -7.640625 C 6.546875 -7.398438 6.867188 -6.992188 7.078125 -6.421875 L 7.109375 -6.421875 C 7.253906 -6.847656 7.519531 -7.21875 7.90625 -7.53125 C 8.289062 -7.851562 8.820312 -8.015625 9.5 -8.015625 C 10.289062 -8.015625 10.910156 -7.753906 11.359375 -7.234375 C 11.816406 -6.710938 12.046875 -5.976562 12.046875 -5.03125 L 12.046875 0 L 10.828125 0 L 10.828125 -4.8125 C 10.828125 -5.507812 10.691406 -6.035156 10.421875 -6.390625 C 10.148438 -6.742188 9.710938 -6.921875 9.109375 -6.921875 C 8.867188 -6.921875 8.640625 -6.890625 8.421875 -6.828125 C 8.203125 -6.773438 8.003906 -6.6875 7.828125 -6.5625 C 7.660156 -6.4375 7.523438 -6.28125 7.421875 -6.09375 C 7.328125 -5.90625 7.28125 -5.6875 7.28125 -5.4375 L 7.28125 0 L 6.0625 0 L 6.0625 -4.8125 C 6.0625 -5.507812 5.921875 -6.035156 5.640625 -6.390625 C 5.367188 -6.742188 4.945312 -6.921875 4.375 -6.921875 C 4.132812 -6.921875 3.898438 -6.890625 3.671875 -6.828125 C 3.453125 -6.773438 3.253906 -6.6875 3.078125 -6.5625 C 2.910156 -6.4375 2.769531 -6.28125 2.65625 -6.09375 C 2.550781 -5.90625 2.5 -5.6875 2.5 -5.4375 L 2.5 0 Z M 1.296875 0 "/></g></g></g><g fill="#ffffff" fill-opacity="1"><g transform="translate(99.821312, 141.507987)"><g><path d="M 4.234375 0.1875 C 3.703125 0.1875 3.21875 0.09375 2.78125 -0.09375 C 2.351562 -0.289062 1.984375 -0.566406 1.671875 -0.921875 C 1.367188 -1.285156 1.132812 -1.71875 0.96875 -2.21875 C 0.800781 -2.726562 0.71875 -3.296875 0.71875 -3.921875 C 0.71875 -4.535156 0.800781 -5.09375 0.96875 -5.59375 C 1.132812 -6.101562 1.367188 -6.535156 1.671875 -6.890625 C 1.984375 -7.253906 2.351562 -7.53125 2.78125 -7.71875 C 3.21875 -7.914062 3.703125 -8.015625 4.234375 -8.015625 C 4.765625 -8.015625 5.234375 -7.914062 5.640625 -7.71875 C 6.054688 -7.53125 6.410156 -7.265625 6.703125 -6.921875 C 7.003906 -6.585938 7.234375 -6.1875 7.390625 -5.71875 C 7.546875 -5.257812 7.625 -4.75 7.625 -4.1875 L 7.625 -3.609375 L 1.984375 -3.609375 L 1.984375 -3.25 C 1.984375 -2.914062 2.035156 -2.601562 2.140625 -2.3125 C 2.253906 -2.03125 2.410156 -1.78125 2.609375 -1.5625 C 2.804688 -1.351562 3.046875 -1.1875 3.328125 -1.0625 C 3.617188 -0.9375 3.945312 -0.875 4.3125 -0.875 C 4.8125 -0.875 5.242188 -0.988281 5.609375 -1.21875 C 5.984375 -1.457031 6.269531 -1.796875 6.46875 -2.234375 L 7.328125 -1.609375 C 7.078125 -1.078125 6.679688 -0.644531 6.140625 -0.3125 C 5.609375 0.0195312 4.972656 0.1875 4.234375 0.1875 Z M 4.234375 -7 C 3.898438 -7 3.597656 -6.941406 3.328125 -6.828125 C 3.054688 -6.710938 2.820312 -6.546875 2.625 -6.328125 C 2.425781 -6.117188 2.269531 -5.867188 2.15625 -5.578125 C 2.039062 -5.296875 1.984375 -4.976562 1.984375 -4.625 L 1.984375 -4.53125 L 6.3125 -4.53125 L 6.3125 -4.6875 C 6.3125 -5.382812 6.117188 -5.941406 5.734375 -6.359375 C 5.359375 -6.785156 4.859375 -7 4.234375 -7 Z M 4.234375 -7 "/></g></g></g></svg>