<svg xmlns="http://www.w3.org/2000/svg" xmlns:xlink="http://www.w3.org/1999/xlink" width="261" zoomAndPan="magnify" viewBox="0 0 195.75 195.749994" height="261" preserveAspectRatio="xMidYMid meet" version="1.0"><defs><g/><clipPath id="id1"><path d="M 0 0 L 195.5 0 L 195.5 195.5 L 0 195.5 Z M 0 0 " clip-rule="nonzero"/></clipPath><clipPath id="id2"><path d="M 72.273438 73 L 98 73 L 98 117.859375 L 72.273438 117.859375 Z M 72.273438 73 " clip-rule="nonzero"/></clipPath><clipPath id="id3"><path d="M 97.664062 73.921875 L 123.265625 73.921875 L 123.265625 117.859375 L 97.664062 117.859375 Z M 97.664062 73.921875 " clip-rule="nonzero"/></clipPath><clipPath id="id4"><path d="M 72.285156 59.359375 L 123.265625 59.359375 L 123.265625 88.609375 L 72.285156 88.609375 Z M 72.285156 59.359375 " clip-rule="nonzero"/></clipPath></defs><g clip-path="url(#id1)"><path fill="#545454" d="M 97.875 0 C 43.820312 0 0 43.820312 0 97.875 C 0 151.929688 43.820312 195.75 97.875 195.75 C 151.929688 195.75 195.75 151.929688 195.75 97.875 C 195.75 43.820312 151.929688 0 97.875 0 " fill-opacity="1" fill-rule="nonzero"/></g><g clip-path="url(#id2)"><path fill="#ff66c4" d="M 97.773438 88.601562 L 97.773438 117.859375 L 72.285156 103.230469 L 72.285156 73.992188 L 97.773438 88.601562 " fill-opacity="1" fill-rule="nonzero"/></g><g clip-path="url(#id3)"><path fill="#ffde59" d="M 123.265625 73.992188 L 123.265625 103.230469 L 97.773438 117.859375 L 97.773438 88.601562 L 123.265625 73.992188 " fill-opacity="1" fill-rule="nonzero"/></g><g clip-path="url(#id4)"><path fill="#38b6ff" d="M 123.265625 73.992188 L 97.773438 88.601562 L 72.285156 73.992188 L 97.773438 59.359375 L 123.265625 73.992188 " fill-opacity="1" fill-rule="nonzero"/></g><g fill="#ffffff" fill-opacity="1"><g transform="translate(75.588691, 151.720755)"><g><path d="M 1.484375 -12.875 L 2.875 -12.875 L 2.875 -7.515625 L 2.9375 -7.515625 C 3.15625 -8.023438 3.460938 -8.429688 3.859375 -8.734375 C 4.265625 -9.035156 4.804688 -9.1875 5.484375 -9.1875 C 6.410156 -9.1875 7.140625 -8.882812 7.671875 -8.28125 C 8.210938 -7.6875 8.484375 -6.84375 8.484375 -5.75 L 8.484375 0 L 7.09375 0 L 7.09375 -5.515625 C 7.09375 -7.128906 6.414062 -7.9375 5.0625 -7.9375 C 4.78125 -7.9375 4.507812 -7.898438 4.25 -7.828125 C 3.988281 -7.753906 3.753906 -7.644531 3.546875 -7.5 C 3.335938 -7.363281 3.171875 -7.1875 3.046875 -6.96875 C 2.929688 -6.757812 2.875 -6.507812 2.875 -6.21875 L 2.875 0 L 1.484375 0 Z M 1.484375 -12.875 "/></g></g></g><g fill="#ffffff" fill-opacity="1"><g transform="translate(85.466222, 151.720755)"><g><path d="M 4.875 0.203125 C 4.269531 0.203125 3.71875 0.09375 3.21875 -0.125 C 2.71875 -0.34375 2.289062 -0.65625 1.9375 -1.0625 C 1.582031 -1.476562 1.304688 -1.972656 1.109375 -2.546875 C 0.910156 -3.117188 0.8125 -3.765625 0.8125 -4.484375 C 0.8125 -5.191406 0.910156 -5.832031 1.109375 -6.40625 C 1.304688 -6.988281 1.582031 -7.484375 1.9375 -7.890625 C 2.289062 -8.304688 2.71875 -8.625 3.21875 -8.84375 C 3.71875 -9.070312 4.269531 -9.1875 4.875 -9.1875 C 5.476562 -9.1875 6.023438 -9.070312 6.515625 -8.84375 C 7.003906 -8.625 7.425781 -8.304688 7.78125 -7.890625 C 8.144531 -7.484375 8.425781 -6.988281 8.625 -6.40625 C 8.820312 -5.832031 8.921875 -5.191406 8.921875 -4.484375 C 8.921875 -3.765625 8.820312 -3.117188 8.625 -2.546875 C 8.425781 -1.972656 8.144531 -1.476562 7.78125 -1.0625 C 7.425781 -0.65625 7.003906 -0.34375 6.515625 -0.125 C 6.023438 0.09375 5.476562 0.203125 4.875 0.203125 Z M 4.875 -1.03125 C 5.625 -1.03125 6.234375 -1.257812 6.703125 -1.71875 C 7.179688 -2.1875 7.421875 -2.894531 7.421875 -3.84375 L 7.421875 -5.125 C 7.421875 -6.082031 7.179688 -6.789062 6.703125 -7.25 C 6.234375 -7.71875 5.625 -7.953125 4.875 -7.953125 C 4.113281 -7.953125 3.492188 -7.71875 3.015625 -7.25 C 2.546875 -6.789062 2.3125 -6.082031 2.3125 -5.125 L 2.3125 -3.84375 C 2.3125 -2.894531 2.546875 -2.1875 3.015625 -1.71875 C 3.492188 -1.257812 4.113281 -1.03125 4.875 -1.03125 Z M 4.875 -1.03125 "/></g></g></g><g fill="#ffffff" fill-opacity="1"><g transform="translate(95.204634, 151.720755)"><g><path d="M 1.484375 0 L 1.484375 -8.96875 L 2.875 -8.96875 L 2.875 -7.515625 L 2.9375 -7.515625 C 3.039062 -7.742188 3.160156 -7.957031 3.296875 -8.15625 C 3.429688 -8.363281 3.59375 -8.539062 3.78125 -8.6875 C 3.96875 -8.84375 4.1875 -8.960938 4.4375 -9.046875 C 4.695312 -9.140625 5.003906 -9.1875 5.359375 -9.1875 C 5.953125 -9.1875 6.492188 -9.039062 6.984375 -8.75 C 7.484375 -8.46875 7.859375 -8.003906 8.109375 -7.359375 L 8.140625 -7.359375 C 8.296875 -7.847656 8.597656 -8.273438 9.046875 -8.640625 C 9.492188 -9.003906 10.101562 -9.1875 10.875 -9.1875 C 11.789062 -9.1875 12.503906 -8.882812 13.015625 -8.28125 C 13.535156 -7.6875 13.796875 -6.84375 13.796875 -5.75 L 13.796875 0 L 12.40625 0 L 12.40625 -5.515625 C 12.40625 -6.316406 12.242188 -6.921875 11.921875 -7.328125 C 11.609375 -7.734375 11.113281 -7.9375 10.4375 -7.9375 C 10.15625 -7.9375 9.890625 -7.898438 9.640625 -7.828125 C 9.390625 -7.753906 9.164062 -7.644531 8.96875 -7.5 C 8.769531 -7.363281 8.613281 -7.1875 8.5 -6.96875 C 8.382812 -6.757812 8.328125 -6.507812 8.328125 -6.21875 L 8.328125 0 L 6.9375 0 L 6.9375 -5.515625 C 6.9375 -6.316406 6.78125 -6.921875 6.46875 -7.328125 C 6.15625 -7.734375 5.671875 -7.9375 5.015625 -7.9375 C 4.734375 -7.9375 4.460938 -7.898438 4.203125 -7.828125 C 3.953125 -7.753906 3.726562 -7.644531 3.53125 -7.5 C 3.332031 -7.363281 3.171875 -7.1875 3.046875 -6.96875 C 2.929688 -6.757812 2.875 -6.507812 2.875 -6.21875 L 2.875 0 Z M 1.484375 0 "/></g></g></g><g fill="#ffffff" fill-opacity="1"><g transform="translate(110.386113, 151.720755)"><g><path d="M 4.859375 0.203125 C 4.242188 0.203125 3.6875 0.09375 3.1875 -0.125 C 2.695312 -0.34375 2.273438 -0.65625 1.921875 -1.0625 C 1.566406 -1.476562 1.289062 -1.972656 1.09375 -2.546875 C 0.90625 -3.117188 0.8125 -3.765625 0.8125 -4.484375 C 0.8125 -5.191406 0.90625 -5.832031 1.09375 -6.40625 C 1.289062 -6.988281 1.566406 -7.484375 1.921875 -7.890625 C 2.273438 -8.304688 2.695312 -8.625 3.1875 -8.84375 C 3.6875 -9.070312 4.242188 -9.1875 4.859375 -9.1875 C 5.453125 -9.1875 5.988281 -9.070312 6.46875 -8.84375 C 6.945312 -8.625 7.351562 -8.320312 7.6875 -7.9375 C 8.019531 -7.550781 8.273438 -7.085938 8.453125 -6.546875 C 8.640625 -6.015625 8.734375 -5.429688 8.734375 -4.796875 L 8.734375 -4.140625 L 2.28125 -4.140625 L 2.28125 -3.71875 C 2.28125 -3.332031 2.335938 -2.972656 2.453125 -2.640625 C 2.578125 -2.316406 2.753906 -2.03125 2.984375 -1.78125 C 3.210938 -1.539062 3.488281 -1.351562 3.8125 -1.21875 C 4.144531 -1.082031 4.519531 -1.015625 4.9375 -1.015625 C 5.507812 -1.015625 6.003906 -1.144531 6.421875 -1.40625 C 6.847656 -1.675781 7.175781 -2.0625 7.40625 -2.5625 L 8.40625 -1.84375 C 8.113281 -1.226562 7.660156 -0.734375 7.046875 -0.359375 C 6.429688 0.015625 5.703125 0.203125 4.859375 0.203125 Z M 4.859375 -8.015625 C 4.472656 -8.015625 4.125 -7.945312 3.8125 -7.8125 C 3.5 -7.675781 3.226562 -7.488281 3 -7.25 C 2.769531 -7.007812 2.59375 -6.722656 2.46875 -6.390625 C 2.34375 -6.054688 2.28125 -5.691406 2.28125 -5.296875 L 2.28125 -5.1875 L 7.234375 -5.1875 L 7.234375 -5.375 C 7.234375 -6.175781 7.015625 -6.816406 6.578125 -7.296875 C 6.148438 -7.773438 5.578125 -8.015625 4.859375 -8.015625 Z M 4.859375 -8.015625 "/></g></g></g></svg>