<svg xmlns="http://www.w3.org/2000/svg" xmlns:xlink="http://www.w3.org/1999/xlink" width="148" zoomAndPan="magnify" viewBox="0 0 110.88 101.249998" height="135" preserveAspectRatio="xMidYMid meet" version="1.0"><defs><g><g id="id1"/></g><clipPath id="id2"><path d="M 25.230469 17 L 56 17 L 56 69.980469 L 25.230469 69.980469 Z M 25.230469 17 " clip-rule="nonzero"/></clipPath><clipPath id="id3"><path d="M 55.25 17.417969 L 85.53125 17.417969 L 85.53125 69.980469 L 55.25 69.980469 Z M 55.25 17.417969 " clip-rule="nonzero"/></clipPath><clipPath id="id4"><path d="M 25.238281 0 L 85.53125 0 L 85.53125 34.992188 L 25.238281 34.992188 Z M 25.238281 0 " clip-rule="nonzero"/></clipPath></defs><g clip-path="url(#id2)"><path fill="rgb(0%, 76.078796%, 79.60968%)" d="M 55.382812 34.980469 L 55.382812 69.980469 L 25.238281 52.480469 L 25.238281 17.5 L 55.382812 34.980469 " fill-opacity="1" fill-rule="nonzero"/></g><g clip-path="url(#id3)"><path fill="rgb(33.729553%, 100%, 81.959534%)" d="M 85.53125 17.5 L 85.53125 52.480469 L 55.382812 69.980469 L 55.382812 34.980469 L 85.53125 17.5 " fill-opacity="1" fill-rule="nonzero"/></g><g clip-path="url(#id4)"><path fill="rgb(36.079407%, 88.238525%, 90.19928%)" d="M 85.53125 17.5 L 55.382812 34.980469 L 25.238281 17.5 L 55.382812 0 L 85.53125 17.5 " fill-opacity="1" fill-rule="nonzero"/></g><g fill="rgb(33.729553%, 100%, 76.078796%)" fill-opacity="1"><g transform="translate(27.450447, 95.549638)"><g><path d="M 2.703125 0.234375 C 2.273438 0.234375 1.960938 0.128906 1.765625 -0.078125 C 1.578125 -0.285156 1.484375 -0.5625 1.484375 -0.90625 L 1.484375 -1.171875 C 1.484375 -1.515625 1.578125 -1.789062 1.765625 -2 C 1.960938 -2.21875 2.273438 -2.328125 2.703125 -2.328125 C 3.117188 -2.328125 3.421875 -2.21875 3.609375 -2 C 3.804688 -1.789062 3.90625 -1.515625 3.90625 -1.171875 L 3.90625 -0.90625 C 3.90625 -0.5625 3.804688 -0.285156 3.609375 -0.078125 C 3.421875 0.128906 3.117188 0.234375 2.703125 0.234375 Z M 2.703125 0.234375 "/></g></g></g><g fill="rgb(33.729553%, 100%, 76.078796%)" fill-opacity="1"><g transform="translate(32.845692, 95.549638)"><g><path d="M 1.6875 -14.6875 L 3.28125 -14.6875 L 3.28125 -8.578125 L 3.359375 -8.578125 C 3.609375 -9.160156 3.957031 -9.625 4.40625 -9.96875 C 4.863281 -10.3125 5.476562 -10.484375 6.25 -10.484375 C 7.3125 -10.484375 8.148438 -10.140625 8.765625 -9.453125 C 9.378906 -8.773438 9.6875 -7.8125 9.6875 -6.5625 L 9.6875 0 L 8.09375 0 L 8.09375 -6.296875 C 8.09375 -8.128906 7.320312 -9.046875 5.78125 -9.046875 C 5.457031 -9.046875 5.144531 -9.003906 4.84375 -8.921875 C 4.550781 -8.847656 4.285156 -8.726562 4.046875 -8.5625 C 3.804688 -8.40625 3.617188 -8.203125 3.484375 -7.953125 C 3.347656 -7.710938 3.28125 -7.429688 3.28125 -7.109375 L 3.28125 0 L 1.6875 0 Z M 1.6875 -14.6875 "/></g></g></g><g fill="rgb(33.729553%, 100%, 76.078796%)" fill-opacity="1"><g transform="translate(44.112237, 95.549638)"><g><path d="M 5.5625 0.234375 C 4.875 0.234375 4.242188 0.109375 3.671875 -0.140625 C 3.097656 -0.390625 2.609375 -0.75 2.203125 -1.21875 C 1.804688 -1.6875 1.492188 -2.25 1.265625 -2.90625 C 1.046875 -3.5625 0.9375 -4.300781 0.9375 -5.125 C 0.9375 -5.925781 1.046875 -6.65625 1.265625 -7.3125 C 1.492188 -7.976562 1.804688 -8.546875 2.203125 -9.015625 C 2.609375 -9.484375 3.097656 -9.84375 3.671875 -10.09375 C 4.242188 -10.351562 4.875 -10.484375 5.5625 -10.484375 C 6.25 -10.484375 6.875 -10.351562 7.4375 -10.09375 C 8 -9.84375 8.484375 -9.484375 8.890625 -9.015625 C 9.296875 -8.546875 9.613281 -7.976562 9.84375 -7.3125 C 10.070312 -6.65625 10.1875 -5.925781 10.1875 -5.125 C 10.1875 -4.300781 10.070312 -3.5625 9.84375 -2.90625 C 9.613281 -2.25 9.296875 -1.6875 8.890625 -1.21875 C 8.484375 -0.75 8 -0.390625 7.4375 -0.140625 C 6.875 0.109375 6.25 0.234375 5.5625 0.234375 Z M 5.5625 -1.171875 C 6.414062 -1.171875 7.113281 -1.4375 7.65625 -1.96875 C 8.195312 -2.5 8.46875 -3.304688 8.46875 -4.390625 L 8.46875 -5.859375 C 8.46875 -6.941406 8.195312 -7.742188 7.65625 -8.265625 C 7.113281 -8.796875 6.414062 -9.0625 5.5625 -9.0625 C 4.695312 -9.0625 3.992188 -8.796875 3.453125 -8.265625 C 2.910156 -7.742188 2.640625 -6.941406 2.640625 -5.859375 L 2.640625 -4.390625 C 2.640625 -3.304688 2.910156 -2.5 3.453125 -1.96875 C 3.992188 -1.4375 4.695312 -1.171875 5.5625 -1.171875 Z M 5.5625 -1.171875 "/></g></g></g><g fill="rgb(33.729553%, 100%, 76.078796%)" fill-opacity="1"><g transform="translate(55.220093, 95.549638)"><g><path d="M 1.6875 0 L 1.6875 -10.234375 L 3.28125 -10.234375 L 3.28125 -8.578125 L 3.359375 -8.578125 C 3.472656 -8.835938 3.601562 -9.082031 3.75 -9.3125 C 3.90625 -9.539062 4.09375 -9.742188 4.3125 -9.921875 C 4.53125 -10.097656 4.785156 -10.234375 5.078125 -10.328125 C 5.367188 -10.429688 5.710938 -10.484375 6.109375 -10.484375 C 6.785156 -10.484375 7.40625 -10.316406 7.96875 -9.984375 C 8.539062 -9.660156 8.96875 -9.128906 9.25 -8.390625 L 9.28125 -8.390625 C 9.46875 -8.953125 9.816406 -9.441406 10.328125 -9.859375 C 10.835938 -10.273438 11.53125 -10.484375 12.40625 -10.484375 C 13.445312 -10.484375 14.257812 -10.140625 14.84375 -9.453125 C 15.4375 -8.773438 15.734375 -7.8125 15.734375 -6.5625 L 15.734375 0 L 14.15625 0 L 14.15625 -6.296875 C 14.15625 -7.203125 13.972656 -7.882812 13.609375 -8.34375 C 13.253906 -8.8125 12.6875 -9.046875 11.90625 -9.046875 C 11.59375 -9.046875 11.289062 -9.003906 11 -8.921875 C 10.71875 -8.847656 10.460938 -8.726562 10.234375 -8.5625 C 10.015625 -8.40625 9.835938 -8.203125 9.703125 -7.953125 C 9.566406 -7.710938 9.5 -7.429688 9.5 -7.109375 L 9.5 0 L 7.921875 0 L 7.921875 -6.296875 C 7.921875 -7.203125 7.738281 -7.882812 7.375 -8.34375 C 7.019531 -8.8125 6.46875 -9.046875 5.71875 -9.046875 C 5.394531 -9.046875 5.085938 -9.003906 4.796875 -8.921875 C 4.503906 -8.847656 4.242188 -8.726562 4.015625 -8.5625 C 3.796875 -8.40625 3.617188 -8.203125 3.484375 -7.953125 C 3.347656 -7.710938 3.28125 -7.429688 3.28125 -7.109375 L 3.28125 0 Z M 1.6875 0 "/></g></g></g><g fill="rgb(33.729553%, 100%, 76.078796%)" fill-opacity="1"><g transform="translate(72.536442, 95.549638)"><g><path d="M 5.53125 0.234375 C 4.832031 0.234375 4.203125 0.109375 3.640625 -0.140625 C 3.078125 -0.390625 2.59375 -0.75 2.1875 -1.21875 C 1.789062 -1.6875 1.484375 -2.25 1.265625 -2.90625 C 1.046875 -3.5625 0.9375 -4.300781 0.9375 -5.125 C 0.9375 -5.925781 1.046875 -6.65625 1.265625 -7.3125 C 1.484375 -7.976562 1.789062 -8.546875 2.1875 -9.015625 C 2.59375 -9.484375 3.078125 -9.84375 3.640625 -10.09375 C 4.203125 -10.351562 4.832031 -10.484375 5.53125 -10.484375 C 6.21875 -10.484375 6.832031 -10.351562 7.375 -10.09375 C 7.925781 -9.84375 8.390625 -9.492188 8.765625 -9.046875 C 9.148438 -8.609375 9.445312 -8.082031 9.65625 -7.46875 C 9.863281 -6.863281 9.96875 -6.203125 9.96875 -5.484375 L 9.96875 -4.71875 L 2.59375 -4.71875 L 2.59375 -4.25 C 2.59375 -3.8125 2.660156 -3.398438 2.796875 -3.015625 C 2.941406 -2.640625 3.144531 -2.3125 3.40625 -2.03125 C 3.664062 -1.757812 3.984375 -1.546875 4.359375 -1.390625 C 4.734375 -1.234375 5.160156 -1.15625 5.640625 -1.15625 C 6.285156 -1.15625 6.847656 -1.304688 7.328125 -1.609375 C 7.816406 -1.910156 8.191406 -2.347656 8.453125 -2.921875 L 9.578125 -2.109375 C 9.253906 -1.398438 8.738281 -0.832031 8.03125 -0.40625 C 7.332031 0.0195312 6.5 0.234375 5.53125 0.234375 Z M 5.53125 -9.140625 C 5.09375 -9.140625 4.695312 -9.0625 4.34375 -8.90625 C 3.988281 -8.757812 3.679688 -8.546875 3.421875 -8.265625 C 3.160156 -7.992188 2.957031 -7.671875 2.8125 -7.296875 C 2.664062 -6.921875 2.59375 -6.503906 2.59375 -6.046875 L 2.59375 -5.90625 L 8.25 -5.90625 L 8.25 -6.125 C 8.25 -7.039062 8 -7.769531 7.5 -8.3125 C 7.007812 -8.863281 6.351562 -9.140625 5.53125 -9.140625 Z M 5.53125 -9.140625 "/></g></g></g></svg>