<svg xmlns="http://www.w3.org/2000/svg" xmlns:xlink="http://www.w3.org/1999/xlink" width="118" zoomAndPan="magnify" viewBox="0 0 88.5 81.749997" height="109" preserveAspectRatio="xMidYMid meet" version="1.0"><defs><clipPath id="id1"><path d="M 3.375 0.105469 L 85.125 0.105469 L 85.125 81.394531 L 3.375 81.394531 Z M 3.375 0.105469 " clip-rule="nonzero"/></clipPath></defs><g clip-path="url(#id1)"><path fill="rgb(0.389099%, 46.669006%, 70.979309%)" d="M 79.070312 0.109375 L 9.410156 0.109375 C 6.082031 0.109375 3.375 2.746094 3.375 5.996094 L 3.375 75.953125 C 3.375 79.210938 6.082031 81.855469 9.410156 81.855469 L 79.074219 81.855469 C 82.410156 81.855469 85.125 79.210938 85.125 75.953125 L 85.125 5.996094 C 85.125 2.746094 82.410156 0.109375 79.070312 0.109375 Z M 79.070312 0.109375 " fill-opacity="1" fill-rule="nonzero"/></g><path fill="rgb(100%, 100%, 100%)" d="M 15.496094 30.753906 L 27.644531 30.753906 L 27.644531 69.765625 L 15.496094 69.765625 Z M 21.5625 11.339844 C 25.4375 11.339844 28.585938 14.488281 28.585938 18.363281 C 28.585938 22.238281 25.4375 25.398438 21.5625 25.398438 C 21.101562 25.394531 20.644531 25.351562 20.191406 25.257812 C 19.742188 25.167969 19.300781 25.035156 18.875 24.855469 C 18.449219 24.679688 18.042969 24.464844 17.660156 24.207031 C 17.277344 23.949219 16.921875 23.660156 16.59375 23.332031 C 16.269531 23.007812 15.976562 22.652344 15.71875 22.269531 C 15.464844 21.882812 15.246094 21.480469 15.070312 21.054688 C 14.890625 20.625 14.757812 20.1875 14.667969 19.734375 C 14.574219 19.28125 14.53125 18.824219 14.527344 18.363281 C 14.527344 17.902344 14.574219 17.445312 14.664062 16.992188 C 14.753906 16.539062 14.886719 16.101562 15.0625 15.671875 C 15.242188 15.246094 15.457031 14.84375 15.714844 14.457031 C 15.972656 14.074219 16.261719 13.71875 16.589844 13.394531 C 16.914062 13.066406 17.269531 12.777344 17.65625 12.519531 C 18.039062 12.261719 18.445312 12.046875 18.871094 11.871094 C 19.296875 11.695312 19.738281 11.5625 20.191406 11.472656 C 20.644531 11.382812 21.101562 11.335938 21.5625 11.339844 M 35.230469 30.753906 L 46.859375 30.753906 L 46.859375 36.085938 L 47.019531 36.085938 C 48.640625 33.019531 52.59375 29.785156 58.515625 29.785156 C 70.792969 29.785156 73.058594 37.867188 73.058594 48.367188 L 73.058594 69.765625 L 60.941406 69.765625 L 60.941406 50.789062 C 60.941406 46.269531 60.859375 40.445312 54.640625 40.445312 C 48.332031 40.445312 47.363281 45.375 47.363281 50.457031 L 47.363281 69.757812 L 35.246094 69.757812 L 35.246094 30.746094 Z M 35.230469 30.753906 " fill-opacity="1" fill-rule="nonzero"/></svg>