<svg xmlns="http://www.w3.org/2000/svg" xmlns:xlink="http://www.w3.org/1999/xlink" width="109" zoomAndPan="magnify" viewBox="0 0 81.75 81.749997" height="109" preserveAspectRatio="xMidYMid meet" version="1.0"><defs><clipPath id="id1"><path d="M 0 0 L 81.5 0 L 81.5 81.5 L 0 81.5 Z M 0 0 " clip-rule="nonzero"/></clipPath><clipPath id="id2"><path d="M 35 0 L 81.5 0 L 81.5 48 L 35 48 Z M 35 0 " clip-rule="nonzero"/></clipPath><clipPath id="id3"><path d="M 0 0 L 81.5 0 L 81.5 65 L 0 65 Z M 0 0 " clip-rule="nonzero"/></clipPath></defs><g clip-path="url(#id1)"><path fill="rgb(100%, 27.059937%, 0%)" d="M 12.261719 0 L 69.488281 0 C 70.292969 0 71.089844 0.078125 71.878906 0.234375 C 72.667969 0.394531 73.4375 0.625 74.179688 0.933594 C 74.925781 1.242188 75.628906 1.621094 76.300781 2.066406 C 76.96875 2.515625 77.589844 3.023438 78.160156 3.589844 C 78.726562 4.160156 79.234375 4.78125 79.683594 5.449219 C 80.128906 6.121094 80.507812 6.824219 80.816406 7.570312 C 81.125 8.3125 81.355469 9.082031 81.515625 9.871094 C 81.671875 10.660156 81.75 11.457031 81.75 12.261719 L 81.75 69.488281 C 81.75 70.292969 81.671875 71.089844 81.515625 71.878906 C 81.355469 72.667969 81.125 73.4375 80.816406 74.179688 C 80.507812 74.925781 80.128906 75.628906 79.683594 76.300781 C 79.234375 76.96875 78.726562 77.589844 78.160156 78.160156 C 77.589844 78.726562 76.96875 79.234375 76.300781 79.683594 C 75.628906 80.128906 74.925781 80.507812 74.179688 80.816406 C 73.4375 81.125 72.667969 81.355469 71.878906 81.515625 C 71.089844 81.671875 70.292969 81.75 69.488281 81.75 L 12.261719 81.75 C 11.457031 81.75 10.660156 81.671875 9.871094 81.515625 C 9.082031 81.355469 8.3125 81.125 7.570312 80.816406 C 6.824219 80.507812 6.121094 80.128906 5.449219 79.683594 C 4.78125 79.234375 4.160156 78.726562 3.589844 78.160156 C 3.023438 77.589844 2.515625 76.96875 2.066406 76.300781 C 1.621094 75.628906 1.242188 74.925781 0.933594 74.179688 C 0.625 73.4375 0.394531 72.667969 0.234375 71.878906 C 0.078125 71.089844 0 70.292969 0 69.488281 L 0 12.261719 C 0 11.457031 0.078125 10.660156 0.234375 9.871094 C 0.394531 9.082031 0.625 8.3125 0.933594 7.570312 C 1.242188 6.824219 1.621094 6.121094 2.066406 5.449219 C 2.515625 4.78125 3.023438 4.160156 3.589844 3.589844 C 4.160156 3.023438 4.78125 2.515625 5.449219 2.066406 C 6.121094 1.621094 6.824219 1.242188 7.570312 0.933594 C 8.3125 0.625 9.082031 0.394531 9.871094 0.234375 C 10.660156 0.078125 11.457031 0 12.261719 0 Z M 12.261719 0 " fill-opacity="1" fill-rule="nonzero"/></g><path fill="rgb(100%, 100%, 100%)" d="M 69.136719 48.699219 C 69.136719 49.34375 69.089844 49.984375 69 50.625 C 68.910156 51.265625 68.773438 51.898438 68.59375 52.53125 C 68.414062 53.160156 68.1875 53.785156 67.917969 54.398438 C 67.652344 55.015625 67.339844 55.621094 66.984375 56.214844 C 66.628906 56.808594 66.234375 57.390625 65.800781 57.957031 C 65.363281 58.523438 64.886719 59.074219 64.375 59.609375 C 63.859375 60.144531 63.308594 60.660156 62.722656 61.15625 C 62.132812 61.65625 61.511719 62.132812 60.859375 62.585938 C 60.203125 63.039062 59.519531 63.472656 58.804688 63.878906 C 58.089844 64.289062 57.34375 64.671875 56.574219 65.027344 C 55.804688 65.386719 55.011719 65.714844 54.195312 66.019531 C 53.382812 66.320312 52.546875 66.597656 51.691406 66.84375 C 50.835938 67.089844 49.964844 67.304688 49.078125 67.492188 C 48.191406 67.679688 47.296875 67.835938 46.386719 67.960938 C 45.480469 68.085938 44.566406 68.179688 43.644531 68.242188 C 42.722656 68.304688 41.800781 68.335938 40.875 68.335938 C 39.949219 68.335938 39.027344 68.304688 38.105469 68.242188 C 37.183594 68.179688 36.269531 68.085938 35.363281 67.960938 C 34.453125 67.835938 33.558594 67.679688 32.671875 67.492188 C 31.785156 67.304688 30.914062 67.089844 30.058594 66.84375 C 29.203125 66.597656 28.367188 66.320312 27.554688 66.019531 C 26.738281 65.714844 25.945312 65.386719 25.175781 65.027344 C 24.40625 64.671875 23.660156 64.289062 22.945312 63.878906 C 22.230469 63.472656 21.546875 63.039062 20.890625 62.585938 C 20.238281 62.132812 19.617188 61.65625 19.027344 61.15625 C 18.441406 60.660156 17.890625 60.144531 17.375 59.609375 C 16.863281 59.074219 16.386719 58.523438 15.949219 57.957031 C 15.515625 57.390625 15.121094 56.808594 14.765625 56.214844 C 14.410156 55.621094 14.097656 55.015625 13.832031 54.398438 C 13.5625 53.785156 13.335938 53.160156 13.15625 52.53125 C 12.976562 51.898438 12.839844 51.265625 12.75 50.625 C 12.660156 49.984375 12.613281 49.34375 12.613281 48.699219 C 12.613281 48.054688 12.660156 47.414062 12.75 46.773438 C 12.839844 46.132812 12.976562 45.5 13.15625 44.867188 C 13.335938 44.238281 13.5625 43.613281 13.832031 42.996094 C 14.097656 42.382812 14.410156 41.777344 14.765625 41.183594 C 15.121094 40.589844 15.515625 40.007812 15.949219 39.441406 C 16.386719 38.875 16.863281 38.324219 17.375 37.789062 C 17.890625 37.253906 18.441406 36.738281 19.027344 36.238281 C 19.617188 35.742188 20.238281 35.265625 20.890625 34.8125 C 21.546875 34.355469 22.230469 33.925781 22.945312 33.515625 C 23.660156 33.109375 24.40625 32.726562 25.175781 32.371094 C 25.945312 32.011719 26.738281 31.683594 27.554688 31.378906 C 28.367188 31.074219 29.203125 30.800781 30.058594 30.554688 C 30.914062 30.308594 31.785156 30.09375 32.671875 29.90625 C 33.558594 29.71875 34.453125 29.5625 35.363281 29.4375 C 36.269531 29.3125 37.183594 29.21875 38.105469 29.152344 C 39.027344 29.089844 39.949219 29.058594 40.875 29.058594 C 41.800781 29.058594 42.722656 29.089844 43.644531 29.152344 C 44.566406 29.21875 45.480469 29.3125 46.386719 29.4375 C 47.296875 29.5625 48.191406 29.71875 49.078125 29.90625 C 49.964844 30.09375 50.835938 30.308594 51.691406 30.554688 C 52.546875 30.800781 53.382812 31.074219 54.195312 31.378906 C 55.011719 31.683594 55.804688 32.011719 56.574219 32.371094 C 57.34375 32.726562 58.089844 33.109375 58.804688 33.515625 C 59.519531 33.925781 60.203125 34.355469 60.859375 34.8125 C 61.511719 35.265625 62.132812 35.742188 62.722656 36.238281 C 63.308594 36.738281 63.859375 37.253906 64.375 37.789062 C 64.886719 38.324219 65.363281 38.875 65.800781 39.441406 C 66.234375 40.007812 66.628906 40.589844 66.984375 41.183594 C 67.339844 41.777344 67.652344 42.382812 67.917969 42.996094 C 68.1875 43.613281 68.414062 44.238281 68.59375 44.867188 C 68.773438 45.5 68.910156 46.132812 69 46.773438 C 69.089844 47.414062 69.136719 48.054688 69.136719 48.699219 Z M 69.136719 48.699219 " fill-opacity="1" fill-rule="nonzero"/><path fill="rgb(100%, 27.059937%, 0%)" d="M 31.773438 55.40625 C 37.363281 60.035156 44.386719 60.035156 49.976562 55.40625 L 51.890625 57.160156 C 45.1875 62.75 36.5625 62.75 29.859375 57.160156 Z M 31.773438 55.40625 " fill-opacity="1" fill-rule="nonzero"/><path fill="rgb(100%, 27.059937%, 0%)" d="M 54.765625 45.503906 C 54.765625 45.800781 54.738281 46.089844 54.679688 46.378906 C 54.621094 46.664062 54.539062 46.945312 54.425781 47.214844 C 54.3125 47.488281 54.175781 47.746094 54.011719 47.988281 C 53.847656 48.234375 53.664062 48.460938 53.457031 48.667969 C 53.25 48.875 53.023438 49.058594 52.777344 49.222656 C 52.535156 49.386719 52.277344 49.523438 52.007812 49.636719 C 51.734375 49.75 51.457031 49.832031 51.167969 49.890625 C 50.878906 49.949219 50.589844 49.976562 50.296875 49.976562 C 50 49.976562 49.710938 49.949219 49.421875 49.890625 C 49.136719 49.832031 48.855469 49.75 48.585938 49.636719 C 48.3125 49.523438 48.054688 49.386719 47.8125 49.222656 C 47.566406 49.058594 47.339844 48.875 47.132812 48.667969 C 46.925781 48.460938 46.742188 48.234375 46.578125 47.988281 C 46.414062 47.746094 46.277344 47.488281 46.164062 47.214844 C 46.050781 46.945312 45.96875 46.664062 45.910156 46.378906 C 45.851562 46.089844 45.824219 45.800781 45.824219 45.503906 C 45.824219 45.210938 45.851562 44.921875 45.910156 44.632812 C 45.96875 44.34375 46.050781 44.066406 46.164062 43.792969 C 46.277344 43.523438 46.414062 43.265625 46.578125 43.023438 C 46.742188 42.777344 46.925781 42.550781 47.132812 42.34375 C 47.339844 42.136719 47.566406 41.953125 47.8125 41.789062 C 48.054688 41.625 48.3125 41.488281 48.585938 41.375 C 48.855469 41.261719 49.136719 41.179688 49.421875 41.121094 C 49.710938 41.0625 50 41.035156 50.296875 41.035156 C 50.589844 41.035156 50.878906 41.0625 51.167969 41.121094 C 51.457031 41.179688 51.734375 41.261719 52.007812 41.375 C 52.277344 41.488281 52.535156 41.625 52.777344 41.789062 C 53.023438 41.953125 53.25 42.136719 53.457031 42.34375 C 53.664062 42.550781 53.847656 42.777344 54.011719 43.023438 C 54.175781 43.265625 54.3125 43.523438 54.425781 43.792969 C 54.539062 44.066406 54.621094 44.34375 54.679688 44.632812 C 54.738281 44.921875 54.765625 45.210938 54.765625 45.503906 Z M 54.765625 45.503906 " fill-opacity="1" fill-rule="nonzero"/><path fill="rgb(100%, 27.059937%, 0%)" d="M 35.925781 45.503906 C 35.925781 45.800781 35.898438 46.089844 35.839844 46.378906 C 35.78125 46.664062 35.699219 46.945312 35.585938 47.214844 C 35.472656 47.488281 35.335938 47.746094 35.171875 47.988281 C 35.007812 48.234375 34.824219 48.460938 34.617188 48.667969 C 34.410156 48.875 34.183594 49.058594 33.9375 49.222656 C 33.695312 49.386719 33.4375 49.523438 33.164062 49.636719 C 32.894531 49.75 32.613281 49.832031 32.328125 49.890625 C 32.039062 49.949219 31.75 49.976562 31.453125 49.976562 C 31.160156 49.976562 30.871094 49.949219 30.582031 49.890625 C 30.292969 49.832031 30.015625 49.75 29.742188 49.636719 C 29.472656 49.523438 29.214844 49.386719 28.972656 49.222656 C 28.726562 49.058594 28.5 48.875 28.292969 48.667969 C 28.085938 48.460938 27.902344 48.234375 27.738281 47.988281 C 27.574219 47.746094 27.4375 47.488281 27.324219 47.214844 C 27.210938 46.945312 27.128906 46.664062 27.070312 46.378906 C 27.011719 46.089844 26.984375 45.800781 26.984375 45.503906 C 26.984375 45.210938 27.011719 44.921875 27.070312 44.632812 C 27.128906 44.34375 27.210938 44.066406 27.324219 43.792969 C 27.4375 43.523438 27.574219 43.265625 27.738281 43.023438 C 27.902344 42.777344 28.085938 42.550781 28.292969 42.34375 C 28.5 42.136719 28.726562 41.953125 28.972656 41.789062 C 29.214844 41.625 29.472656 41.488281 29.742188 41.375 C 30.015625 41.261719 30.292969 41.179688 30.582031 41.121094 C 30.871094 41.0625 31.160156 41.035156 31.453125 41.035156 C 31.75 41.035156 32.039062 41.0625 32.328125 41.121094 C 32.613281 41.179688 32.894531 41.261719 33.164062 41.375 C 33.4375 41.488281 33.695312 41.625 33.9375 41.789062 C 34.183594 41.953125 34.410156 42.136719 34.617188 42.34375 C 34.824219 42.550781 35.007812 42.777344 35.171875 43.023438 C 35.335938 43.265625 35.472656 43.523438 35.585938 43.792969 C 35.699219 44.066406 35.78125 44.34375 35.839844 44.632812 C 35.898438 44.921875 35.925781 45.210938 35.925781 45.503906 Z M 35.925781 45.503906 " fill-opacity="1" fill-rule="nonzero"/><g clip-path="url(#id2)"><path stroke-linecap="butt" transform="matrix(0.159668, 0, 0, 0.159668, 0.0000015, 0)" fill="none" stroke-linejoin="miter" d="M 418.006151 124.990839 C 418.006151 126.850166 417.810432 128.660564 417.467925 130.470962 C 417.100952 132.256895 416.562726 134.018363 415.87771 135.706436 C 415.16823 137.418975 414.311961 139.033654 413.284438 140.550474 C 412.256915 142.091758 411.107068 143.510719 409.810432 144.807355 C 408.48933 146.103991 407.094835 147.253838 405.55355 148.281361 C 404.036731 149.308884 402.422052 150.165154 400.709513 150.874634 C 399.02144 151.584114 397.259971 152.097875 395.474039 152.464848 C 393.663641 152.83182 391.828778 153.003074 389.993916 153.003074 C 388.159053 153.003074 386.348655 152.83182 384.538258 152.464848 C 382.72786 152.097875 380.990857 151.584114 379.278318 150.874634 C 377.590245 150.165154 375.975566 149.308884 374.434281 148.281361 C 372.917461 147.253838 371.498501 146.103991 370.201865 144.807355 C 368.905228 143.510719 367.730916 142.091758 366.727858 140.550474 C 365.700335 139.033654 364.844066 137.418975 364.134586 135.706436 C 363.425106 134.018363 362.886879 132.256895 362.544371 130.470962 C 362.177399 128.660564 362.006145 126.850166 362.006145 124.990839 C 362.006145 123.155976 362.177399 121.345579 362.544371 119.535181 C 362.886879 117.724783 363.425106 115.98778 364.134586 114.275241 C 364.844066 112.587168 365.700335 110.972489 366.727858 109.455669 C 367.730916 107.914385 368.905228 106.495424 370.201865 105.198788 C 371.498501 103.902152 372.917461 102.752304 374.434281 101.724781 C 375.975566 100.697258 377.590245 99.840989 379.278318 99.131509 C 380.990857 98.422029 382.72786 97.908267 384.538258 97.541295 C 386.348655 97.174322 388.159053 97.003068 389.993916 97.003068 C 391.828778 97.003068 393.663641 97.174322 395.474039 97.541295 C 397.259971 97.908267 399.02144 98.422029 400.709513 99.131509 C 402.422052 99.840989 404.036731 100.697258 405.55355 101.724781 C 407.094835 102.752304 408.48933 103.902152 409.810432 105.198788 C 411.107068 106.495424 412.256915 107.914385 413.284438 109.455669 C 414.311961 110.972489 415.16823 112.587168 415.87771 114.275241 C 416.562726 115.98778 417.100952 117.724783 417.467925 119.535181 C 417.810432 121.345579 418.006151 123.155976 418.006151 124.990839 Z M 418.006151 124.990839 " stroke="rgb(100%, 100%, 100%)" stroke-width="25" stroke-opacity="1" stroke-miterlimit="4"/></g><g clip-path="url(#id3)"><path stroke-linecap="butt" transform="matrix(0.159668, 0, 0, 0.159668, 0.0000015, 0)" fill="none" stroke-linejoin="miter" d="M 86.996942 282.006146 C 42.006111 259.987795 82.006115 189.993904 126.996946 232.000025 M 425.003094 282.006146 C 469.993924 259.987795 429.99392 189.993904 385.003089 232.000025 M 258.006134 187.009194 L 282.006137 104.000011 L 362.006145 120.000013 " stroke="rgb(100%, 100%, 100%)" stroke-width="22" stroke-opacity="1" stroke-miterlimit="4"/></g></svg>