<svg xmlns="http://www.w3.org/2000/svg" xmlns:xlink="http://www.w3.org/1999/xlink" width="118" zoomAndPan="magnify" viewBox="0 0 88.5 81.749997" height="109" preserveAspectRatio="xMidYMid meet" version="1.0"><defs><clipPath id="id1"><path d="M 3.375 0.105469 L 85.125 0.105469 L 85.125 81.394531 L 3.375 81.394531 Z M 3.375 0.105469 " clip-rule="nonzero"/></clipPath></defs><g clip-path="url(#id1)"><path fill="rgb(10.5896%, 61.569214%, 94.119263%)" d="M 85.125 40.980469 C 85.125 42.320312 85.058594 43.65625 84.929688 44.988281 C 84.796875 46.320312 84.601562 47.640625 84.339844 48.953125 C 84.078125 50.269531 83.753906 51.566406 83.363281 52.847656 C 82.976562 54.125 82.527344 55.386719 82.011719 56.621094 C 81.5 57.859375 80.929688 59.066406 80.296875 60.25 C 79.667969 61.429688 78.980469 62.574219 78.234375 63.6875 C 77.492188 64.800781 76.695312 65.875 75.847656 66.910156 C 74.996094 67.945312 74.097656 68.9375 73.152344 69.882812 C 72.207031 70.828125 71.214844 71.726562 70.179688 72.578125 C 69.144531 73.425781 68.070312 74.222656 66.957031 74.964844 C 65.847656 75.710938 64.699219 76.398438 63.519531 77.027344 C 62.335938 77.660156 61.128906 78.230469 59.890625 78.742188 C 58.65625 79.257812 57.394531 79.707031 56.117188 80.09375 C 54.835938 80.484375 53.539062 80.808594 52.222656 81.070312 C 50.910156 81.332031 49.589844 81.527344 48.257812 81.660156 C 46.925781 81.789062 45.589844 81.855469 44.25 81.855469 C 42.910156 81.855469 41.574219 81.789062 40.242188 81.660156 C 38.910156 81.527344 37.589844 81.332031 36.277344 81.070312 C 34.960938 80.808594 33.664062 80.484375 32.382812 80.09375 C 31.105469 79.707031 29.84375 79.257812 28.609375 78.742188 C 27.371094 78.230469 26.164062 77.660156 24.980469 77.027344 C 23.800781 76.398438 22.652344 75.710938 21.542969 74.964844 C 20.429688 74.222656 19.355469 73.425781 18.320312 72.578125 C 17.285156 71.726562 16.292969 70.828125 15.347656 69.882812 C 14.402344 68.9375 13.503906 67.945312 12.652344 66.910156 C 11.804688 65.875 11.007812 64.800781 10.265625 63.6875 C 9.519531 62.574219 8.832031 61.429688 8.203125 60.25 C 7.570312 59.066406 7 57.859375 6.488281 56.621094 C 5.972656 55.386719 5.523438 54.125 5.136719 52.847656 C 4.746094 51.566406 4.421875 50.269531 4.160156 48.953125 C 3.898438 47.640625 3.703125 46.320312 3.570312 44.988281 C 3.441406 43.65625 3.375 42.320312 3.375 40.980469 C 3.375 39.640625 3.441406 38.304688 3.570312 36.972656 C 3.703125 35.640625 3.898438 34.320312 4.160156 33.007812 C 4.421875 31.691406 4.746094 30.394531 5.136719 29.113281 C 5.523438 27.832031 5.972656 26.574219 6.488281 25.339844 C 7 24.101562 7.570312 22.894531 8.203125 21.710938 C 8.832031 20.53125 9.519531 19.382812 10.265625 18.269531 C 11.007812 17.160156 11.804688 16.085938 12.652344 15.050781 C 13.503906 14.015625 14.402344 13.023438 15.347656 12.078125 C 16.292969 11.128906 17.285156 10.234375 18.320312 9.382812 C 19.355469 8.535156 20.429688 7.738281 21.542969 6.992188 C 22.652344 6.25 23.800781 5.5625 24.980469 4.933594 C 26.164062 4.300781 27.371094 3.730469 28.609375 3.214844 C 29.84375 2.703125 31.105469 2.253906 32.382812 1.867188 C 33.664062 1.476562 34.960938 1.152344 36.277344 0.890625 C 37.589844 0.628906 38.910156 0.433594 40.242188 0.300781 C 41.574219 0.171875 42.910156 0.105469 44.25 0.105469 C 45.589844 0.105469 46.925781 0.171875 48.257812 0.300781 C 49.589844 0.433594 50.910156 0.628906 52.222656 0.890625 C 53.539062 1.152344 54.835938 1.476562 56.117188 1.867188 C 57.394531 2.253906 58.65625 2.703125 59.890625 3.214844 C 61.128906 3.730469 62.335938 4.300781 63.519531 4.933594 C 64.699219 5.5625 65.847656 6.25 66.957031 6.992188 C 68.070312 7.738281 69.144531 8.535156 70.179688 9.382812 C 71.214844 10.234375 72.207031 11.128906 73.152344 12.078125 C 74.097656 13.023438 74.996094 14.015625 75.847656 15.050781 C 76.695312 16.085938 77.492188 17.160156 78.234375 18.269531 C 78.980469 19.382812 79.667969 20.53125 80.296875 21.710938 C 80.929688 22.894531 81.5 24.101562 82.011719 25.339844 C 82.527344 26.574219 82.976562 27.832031 83.363281 29.113281 C 83.753906 30.394531 84.078125 31.691406 84.339844 33.007812 C 84.601562 34.320312 84.796875 35.640625 84.929688 36.972656 C 85.058594 38.304688 85.125 39.640625 85.125 40.980469 Z M 85.125 40.980469 " fill-opacity="1" fill-rule="nonzero"/></g><path fill="rgb(100%, 100%, 100%)" d="M 36.769531 62.542969 C 54.898438 62.542969 64.808594 47.519531 64.808594 34.5 C 64.808594 34.074219 64.808594 33.644531 64.789062 33.234375 C 66.710938 31.84375 68.386719 30.109375 69.714844 28.125 C 67.957031 28.902344 66.058594 29.433594 64.054688 29.679688 C 66.097656 28.453125 67.652344 26.53125 68.386719 24.222656 C 66.484375 25.34375 64.382812 26.164062 62.132812 26.613281 C 60.335938 24.691406 57.78125 23.507812 54.9375 23.507812 C 49.503906 23.507812 45.089844 27.921875 45.089844 33.355469 C 45.089844 34.132812 45.167969 34.890625 45.355469 35.605469 C 37.15625 35.195312 29.902344 31.273438 25.039062 25.304688 C 24.199219 26.753906 23.710938 28.453125 23.710938 30.25 C 23.710938 33.664062 25.449219 36.6875 28.105469 38.445312 C 26.488281 38.40625 24.976562 37.957031 23.648438 37.21875 C 23.648438 37.261719 23.648438 37.300781 23.648438 37.34375 C 23.648438 42.125 27.042969 46.089844 31.558594 47.007812 C 30.742188 47.234375 29.863281 47.355469 28.960938 47.355469 C 28.328125 47.355469 27.714844 47.296875 27.101562 47.171875 C 28.351562 51.097656 31.988281 53.9375 36.300781 54.019531 C 32.925781 56.65625 28.675781 58.230469 24.058594 58.230469 C 23.261719 58.230469 22.484375 58.1875 21.707031 58.085938 C 26.019531 60.90625 31.210938 62.542969 36.769531 62.542969 " fill-opacity="1" fill-rule="nonzero"/></svg>